<svg width="701" height="1024" viewBox="0 0 701 1024" fill="none" xmlns="http://www.w3.org/2000/svg">
<g opacity="0.05">
<path d="M700.587 1024.89H-1.5V790.195H77.3984V868.095H154.297V790.195H233.195V868.095H310.094V790.195H388.992V868.095H465.892V790.195H543.79V712.297H621.688V635.398H543.79V556.5H700.587V1024.89ZM-0.5 1023.89H76.3984V946.993H-0.5V1023.89ZM77.3984 1023.89H154.297V946.993H77.3984V1023.89ZM155.297 1023.89H232.195V946.993H155.297V1023.89ZM233.195 1023.89H310.094V946.993H233.195V1023.89ZM311.094 1023.89H387.992V946.993H311.094V1023.89ZM388.993 1023.89H465.892V946.993H388.993V1023.89ZM466.892 1023.89H543.79V946.993H466.892V1023.89ZM544.79 1023.89H621.688V946.993H544.79V1023.89ZM622.688 1023.89H699.587V946.993H622.688V1023.89ZM-0.5 945.993H76.3984V869.095H-0.5V945.993ZM155.297 945.993H232.195V869.095H155.297V945.993ZM233.195 945.993H310.094V869.095H233.195V945.993ZM311.094 945.993H387.993V869.094H311.094V945.993ZM388.993 945.993H465.892V869.095H388.993V945.993ZM544.79 945.993H621.688V869.095H544.79V945.993ZM622.688 945.993H699.587V869.095H622.688V945.993ZM466.892 868.094L543.79 868.095V791.196L466.892 791.195V868.094ZM622.688 868.095H699.587V791.196H622.688V868.095ZM-0.5 868.094H76.3984V791.195H-0.5V868.094ZM155.297 868.094H232.195V791.195H155.297V868.094ZM311.094 868.094H387.992V791.195H311.094V868.094ZM544.79 790.195H621.688V713.297H544.79V790.195ZM622.688 713.297V790.195H699.587V713.297H622.688ZM622.688 712.297H699.587V635.398H622.688V712.297ZM544.79 634.398H621.688V557.5H544.79V634.398ZM622.688 634.398H699.587V557.5H622.688V634.398ZM700.587 233.195H621.688V155.297H544.79V233.195H465.892V155.297H388.993V233.195H310.095V155.297H233.195V233.195H155.297V311.094H77.3984V387.993H155.297V466.892H-1.5V-1.5H700.587V233.195ZM-0.5 465.892H76.3984V388.993H-0.5V465.892ZM77.3984 465.892H154.297V388.993H77.3984V465.892ZM-0.5 387.992H76.3984V311.094H-0.5V387.992ZM-0.5 310.094H76.3984V233.195H-0.5V310.094ZM77.3984 310.094H154.297V233.195H77.3984V310.094ZM-0.5 232.195H76.3984V155.297H-0.5V232.195ZM155.297 232.195H232.195V155.297H155.297V232.195ZM311.095 232.195H387.993V155.297H311.095V232.195ZM466.892 232.195H543.79V155.297H466.892V232.195ZM622.688 232.195H699.587V155.297H622.688V232.195ZM-0.5 154.297H76.3984V77.3984H-0.5V154.297ZM77.3984 154.297H154.297V77.3984H77.3984V154.297ZM233.195 154.297H310.094V77.3984H233.195V154.297ZM311.094 154.297H387.993V77.3984H311.094V154.297ZM388.993 154.297H465.892V77.3984H388.993V154.297ZM466.892 154.297H543.79V77.3984H466.892V154.297ZM622.688 154.297H699.587V77.3984H622.688V154.297ZM-0.5 76.3984H76.3984V-0.5H-0.5V76.3984ZM77.3984 76.3984H154.297V-0.5H77.3984V76.3984ZM155.297 76.3984H232.195V-0.5H155.297V76.3984ZM233.195 76.3984H310.094V-0.5H233.195V76.3984ZM311.095 76.3984H387.993V-0.5H311.095V76.3984ZM388.993 76.3984H465.892V-0.5H388.993V76.3984ZM466.892 76.3984H543.79V-0.5H466.892V76.3984ZM544.79 76.3984H621.688V-0.5H544.79V76.3984ZM622.688 76.3984H699.587V-0.5H622.688V76.3984Z" fill="#3586FF"/>
<path d="M700.587 1024.89H-1.5V790.195H77.3984V868.095H154.297V790.195H233.195V868.095H310.094V790.195H388.992V868.095H465.892V790.195H543.79V712.297H621.688V635.398H543.79V556.5H700.587V1024.89ZM-0.5 1023.89H76.3984V946.993H-0.5V1023.89ZM77.3984 1023.89H154.297V946.993H77.3984V1023.89ZM155.297 1023.89H232.195V946.993H155.297V1023.89ZM233.195 1023.89H310.094V946.993H233.195V1023.89ZM311.094 1023.89H387.992V946.993H311.094V1023.89ZM388.993 1023.89H465.892V946.993H388.993V1023.89ZM466.892 1023.89H543.79V946.993H466.892V1023.89ZM544.79 1023.89H621.688V946.993H544.79V1023.89ZM622.688 1023.89H699.587V946.993H622.688V1023.89ZM-0.5 945.993H76.3984V869.095H-0.5V945.993ZM155.297 945.993H232.195V869.095H155.297V945.993ZM233.195 945.993H310.094V869.095H233.195V945.993ZM311.094 945.993H387.993V869.094H311.094V945.993ZM388.993 945.993H465.892V869.095H388.993V945.993ZM544.79 945.993H621.688V869.095H544.79V945.993ZM622.688 945.993H699.587V869.095H622.688V945.993ZM466.892 868.094L543.79 868.095V791.196L466.892 791.195V868.094ZM622.688 868.095H699.587V791.196H622.688V868.095ZM-0.5 868.094H76.3984V791.195H-0.5V868.094ZM155.297 868.094H232.195V791.195H155.297V868.094ZM311.094 868.094H387.992V791.195H311.094V868.094ZM544.79 790.195H621.688V713.297H544.79V790.195ZM622.688 713.297V790.195H699.587V713.297H622.688ZM622.688 712.297H699.587V635.398H622.688V712.297ZM544.79 634.398H621.688V557.5H544.79V634.398ZM622.688 634.398H699.587V557.5H622.688V634.398ZM700.587 233.195H621.688V155.297H544.79V233.195H465.892V155.297H388.993V233.195H310.095V155.297H233.195V233.195H155.297V311.094H77.3984V387.993H155.297V466.892H-1.5V-1.5H700.587V233.195ZM-0.5 465.892H76.3984V388.993H-0.5V465.892ZM77.3984 465.892H154.297V388.993H77.3984V465.892ZM-0.5 387.992H76.3984V311.094H-0.5V387.992ZM-0.5 310.094H76.3984V233.195H-0.5V310.094ZM77.3984 310.094H154.297V233.195H77.3984V310.094ZM-0.5 232.195H76.3984V155.297H-0.5V232.195ZM155.297 232.195H232.195V155.297H155.297V232.195ZM311.095 232.195H387.993V155.297H311.095V232.195ZM466.892 232.195H543.79V155.297H466.892V232.195ZM622.688 232.195H699.587V155.297H622.688V232.195ZM-0.5 154.297H76.3984V77.3984H-0.5V154.297ZM77.3984 154.297H154.297V77.3984H77.3984V154.297ZM233.195 154.297H310.094V77.3984H233.195V154.297ZM311.094 154.297H387.993V77.3984H311.094V154.297ZM388.993 154.297H465.892V77.3984H388.993V154.297ZM466.892 154.297H543.79V77.3984H466.892V154.297ZM622.688 154.297H699.587V77.3984H622.688V154.297ZM-0.5 76.3984H76.3984V-0.5H-0.5V76.3984ZM77.3984 76.3984H154.297V-0.5H77.3984V76.3984ZM155.297 76.3984H232.195V-0.5H155.297V76.3984ZM233.195 76.3984H310.094V-0.5H233.195V76.3984ZM311.095 76.3984H387.993V-0.5H311.095V76.3984ZM388.993 76.3984H465.892V-0.5H388.993V76.3984ZM466.892 76.3984H543.79V-0.5H466.892V76.3984ZM544.79 76.3984H621.688V-0.5H544.79V76.3984ZM622.688 76.3984H699.587V-0.5H622.688V76.3984Z" fill="url(#paint0_radial_1198_1320)"/>
<path d="M700.587 1024.89H-1.5V790.195H77.3984V868.095H154.297V790.195H233.195V868.095H310.094V790.195H388.992V868.095H465.892V790.195H543.79V712.297H621.688V635.398H543.79V556.5H700.587V1024.89ZM-0.5 1023.89H76.3984V946.993H-0.5V1023.89ZM77.3984 1023.89H154.297V946.993H77.3984V1023.89ZM155.297 1023.89H232.195V946.993H155.297V1023.89ZM233.195 1023.89H310.094V946.993H233.195V1023.89ZM311.094 1023.89H387.992V946.993H311.094V1023.89ZM388.993 1023.89H465.892V946.993H388.993V1023.89ZM466.892 1023.89H543.79V946.993H466.892V1023.89ZM544.79 1023.89H621.688V946.993H544.79V1023.89ZM622.688 1023.89H699.587V946.993H622.688V1023.89ZM-0.5 945.993H76.3984V869.095H-0.5V945.993ZM155.297 945.993H232.195V869.095H155.297V945.993ZM233.195 945.993H310.094V869.095H233.195V945.993ZM311.094 945.993H387.993V869.094H311.094V945.993ZM388.993 945.993H465.892V869.095H388.993V945.993ZM544.79 945.993H621.688V869.095H544.79V945.993ZM622.688 945.993H699.587V869.095H622.688V945.993ZM466.892 868.094L543.79 868.095V791.196L466.892 791.195V868.094ZM622.688 868.095H699.587V791.196H622.688V868.095ZM-0.5 868.094H76.3984V791.195H-0.5V868.094ZM155.297 868.094H232.195V791.195H155.297V868.094ZM311.094 868.094H387.992V791.195H311.094V868.094ZM544.79 790.195H621.688V713.297H544.79V790.195ZM622.688 713.297V790.195H699.587V713.297H622.688ZM622.688 712.297H699.587V635.398H622.688V712.297ZM544.79 634.398H621.688V557.5H544.79V634.398ZM622.688 634.398H699.587V557.5H622.688V634.398ZM700.587 233.195H621.688V155.297H544.79V233.195H465.892V155.297H388.993V233.195H310.095V155.297H233.195V233.195H155.297V311.094H77.3984V387.993H155.297V466.892H-1.5V-1.5H700.587V233.195ZM-0.5 465.892H76.3984V388.993H-0.5V465.892ZM77.3984 465.892H154.297V388.993H77.3984V465.892ZM-0.5 387.992H76.3984V311.094H-0.5V387.992ZM-0.5 310.094H76.3984V233.195H-0.5V310.094ZM77.3984 310.094H154.297V233.195H77.3984V310.094ZM-0.5 232.195H76.3984V155.297H-0.5V232.195ZM155.297 232.195H232.195V155.297H155.297V232.195ZM311.095 232.195H387.993V155.297H311.095V232.195ZM466.892 232.195H543.79V155.297H466.892V232.195ZM622.688 232.195H699.587V155.297H622.688V232.195ZM-0.5 154.297H76.3984V77.3984H-0.5V154.297ZM77.3984 154.297H154.297V77.3984H77.3984V154.297ZM233.195 154.297H310.094V77.3984H233.195V154.297ZM311.094 154.297H387.993V77.3984H311.094V154.297ZM388.993 154.297H465.892V77.3984H388.993V154.297ZM466.892 154.297H543.79V77.3984H466.892V154.297ZM622.688 154.297H699.587V77.3984H622.688V154.297ZM-0.5 76.3984H76.3984V-0.5H-0.5V76.3984ZM77.3984 76.3984H154.297V-0.5H77.3984V76.3984ZM155.297 76.3984H232.195V-0.5H155.297V76.3984ZM233.195 76.3984H310.094V-0.5H233.195V76.3984ZM311.095 76.3984H387.993V-0.5H311.095V76.3984ZM388.993 76.3984H465.892V-0.5H388.993V76.3984ZM466.892 76.3984H543.79V-0.5H466.892V76.3984ZM544.79 76.3984H621.688V-0.5H544.79V76.3984ZM622.688 76.3984H699.587V-0.5H622.688V76.3984Z" fill="url(#paint1_radial_1198_1320)"/>
</g>
<defs>
<radialGradient id="paint0_radial_1198_1320" cx="0" cy="0" r="1" gradientUnits="userSpaceOnUse" gradientTransform="translate(279.5 283.5) rotate(-61.8033) scale(149.206 176.407)">
<stop/>
<stop offset="1" stop-color="#080B20" stop-opacity="0"/>
</radialGradient>
<radialGradient id="paint1_radial_1198_1320" cx="0" cy="0" r="1" gradientUnits="userSpaceOnUse" gradientTransform="translate(547.709 607.727) rotate(-101.245) scale(203.636 159.706)">
<stop/>
<stop offset="1" stop-color="#080B20" stop-opacity="0"/>
</radialGradient>
</defs>
</svg>
