<svg width="29" height="31" viewBox="0 0 29 31" fill="none" xmlns="http://www.w3.org/2000/svg">
<path fill-rule="evenodd" clip-rule="evenodd" d="M14.8397 21.1428C12.6428 21.1428 10.7246 19.9364 9.69824 18.1433L6.20685 20.1807C6.0038 20.2993 5.93938 20.5652 6.06515 20.7653C7.90779 23.6971 11.149 25.6428 14.8397 25.6428C18.6842 25.6428 22.0411 23.5316 23.8372 20.3936L20.3259 18.3444C20.1377 18.2346 19.8983 18.2913 19.7775 18.4739C18.7128 20.0832 16.8986 21.1428 14.8397 21.1428ZM27.3309 7.85303C27.5322 7.73559 27.5975 7.47295 27.4754 7.27309C24.8616 2.99433 20.1801 0.142822 14.8397 0.142822C9.34744 0.142822 4.55208 3.15874 1.98599 7.64154L5.49251 9.68793C5.6844 9.79989 5.92886 9.73861 6.04704 9.54922C7.88649 6.60125 11.1369 4.6428 14.8397 4.6428C18.6842 4.6428 22.0411 6.754 23.8372 9.89196L27.3309 7.85303Z" fill="#4A86E0"/>
<path fill-rule="evenodd" clip-rule="evenodd" d="M14.8397 25.6428C11.149 25.6428 7.90779 23.6972 6.06515 20.7653C5.93964 20.5655 6.00405 20.2992 6.20685 20.1808L9.69824 18.1433C9.19301 17.2606 8.90381 16.2359 8.90381 15.1428C8.90381 11.845 11.5457 9.14285 14.8397 9.14285C16.8986 9.14285 18.7128 10.2025 19.7775 11.8117C19.8981 11.994 20.138 12.0508 20.3259 11.9412L23.8372 9.89198C22.0411 6.75402 18.6842 4.64282 14.8397 4.64282C11.1369 4.64282 7.88649 6.60127 6.04704 9.54924C5.92899 9.73846 5.68414 9.79978 5.49251 9.68795L1.98599 7.64156C0.72293 9.84819 -7.62939e-06 12.4102 -7.62939e-06 15.1428C-7.62939e-06 23.3874 6.60472 30.1428 14.8397 30.1428C20.1801 30.1428 24.8616 27.2913 27.4754 23.0125C27.5974 22.8129 27.5319 22.5499 27.3309 22.4326L23.8372 20.3936C22.0411 23.5316 18.6842 25.6428 14.8397 25.6428Z" fill="#1A4E9D"/>
<path fill-rule="evenodd" clip-rule="evenodd" d="M27.3511 16.7561V13.5296L24.5868 15.1429L27.3511 16.7561ZM22.5257 14.4212L27.7634 11.3646C28.3117 11.0446 29 11.4463 29 12.0863V18.1995C29 18.8395 28.3117 19.2412 27.7634 18.9212L22.5257 15.8645C21.9783 15.5451 21.9783 14.7407 22.5257 14.4212Z" fill="#316CC5"/>
</svg>
