<svg width="1400" height="701" viewBox="0 0 1400 701" fill="none" xmlns="http://www.w3.org/2000/svg">
<g opacity="0.05">
<path fill-rule="evenodd" clip-rule="evenodd" d="M1011.01 -1.5H934.109H933.609H933.109H856.21H855.71H855.21H778.312H777.812H777.312H700.587H700.087H699.913H699.413H622.688H622.188H621.688H544.79H544.29H543.79H466.891H466.391H465.891H388.993H388.493H387.993H311.094H310.594H310.094H233.196H232.696H232.196H155.297H154.797H154.297H77.3986H76.8985H76.3985H-0.999992H-1.49999V-1V76.3986V76.8986V77.3986V154.297V154.797V155.297L-1.5 232.196V232.696V310.094V310.594V311.094V387.993V388.493V388.993V466.391V466.891H-1H76.3985L76.3985 543.899H-0.999992V621.297H-1.49999V621.797V699.696V700.196H-0.999992H76.8986H77.3986V699.696H154.297V700.196H154.797H232.696H233.196V699.696V621.797V621.297H232.696H154.797H154.297V621.797H77.3986V621.297H76.8986L76.8985 544.399H154.797H155.297V543.899V466.891V466.391V466V465.5V388.493V387.993H154.797H77.3986V311.094H154.797H155.297V310.594V233.196H232.696H233.196V232.696V155.297H310.094V232.696V233.196H310.594H388.493H388.993V232.696V155.297H465.891V232.696V233.196H466.391H544.29H544.79V232.696V155.297V154.797H621.688V155.297V232.696V233.196H622.188H699.413V310.094V310.594V311.094V388.493V388.993H699.913H777.312V465.5V466H699.913V543.399H699.413V543.899H622.188V621.297H621.688V621.797H544.79V621.297V543.899V543.399H544.29H466.391H465.891V543.899V621.297H388.993H388.493H387.993H310.594H310.094V621.797V699.696V700.196H310.594H387.993H388.493H388.993H465.891H466.391H466.891H544.29H544.79V699.696H621.688V700.196H622.188H700.087H700.587V699.696V622.297H777.312V699.696V700.196H777.812H855.71H856.21V699.696V621.797V621.297H855.71H778.312V544.399H855.71H856.21V543.899V466.891V466.391V466V465.5V388.493V387.993H855.71H778.312V311.094H855.71H856.21V310.594V233.196V232.696V232.196V155.297H933.609H934.109V154.797V77.3986H1011.01V154.797V155.297H1011.51H1089.41H1089.91V154.797V77.3986H1166.8V154.797V155.297H1167.3H1244.7H1245.2H1245.7H1322.6H1323.1V232.696H1401V155.297H1401.5V154.797V77.3986V76.8986V76.3986V-1V-1.5H1401H1323.6H1323.1H1322.6H1245.7H1245.2H1244.7H1167.8H1167.3H1166.8H1089.91H1089.41H1088.91H1012.01H1011.51H1011.01ZM154.297 465.5V388.993H77.3986L77.3985 465.5H154.297ZM76.3985 465.5L76.3986 388.993H-0.5V465.891H76.3986L76.3985 465.5ZM77.3986 466.891L77.3985 543.399H154.297V466.891H77.3986ZM466.891 699.196V622.297H543.79V699.196H466.891ZM388.993 699.196V622.297H465.891V699.196H388.993ZM311.094 622.297H387.993V699.196H311.094V622.297ZM700.587 621.297H700.413V544.399H777.312V621.297H700.587ZM699.413 622.297H699.587V699.196H622.688V622.297H699.413ZM778.312 699.196L778.312 622.297H855.21V699.196H778.312ZM855.21 465.5V388.993H778.312L778.312 465.5H855.21ZM778.312 466.891H855.21V543.399H778.312L778.312 466.891ZM76.3986 311.094H-0.5V387.993H76.3986V311.094ZM77.3986 310.094H154.297V233.196H77.3985L77.3986 310.094ZM-0.5 310.094H76.3985V233.196L-0.5 233.196V310.094ZM77.3986 76.3986L77.3985 -0.5H154.297V76.3986H77.3986ZM-0.499992 77.3986H76.3986V154.297H-0.499992V77.3986ZM154.297 77.3986H77.3986V154.297H154.297V77.3986ZM-0.499992 -0.5H76.3986L76.3985 76.3986H-0.499992V-0.5ZM233.196 154.297H310.094V77.3986H233.196V154.297ZM232.196 155.297H155.297V232.196H232.196L232.196 155.297ZM233.196 76.3986V-0.5H310.094V76.3986H233.196ZM155.297 -0.5H232.196L232.196 76.3986H155.297V-0.5ZM76.3986 155.297V232.196H-0.499992V155.297H76.3986ZM311.094 77.3986V154.297H387.993V77.3986H311.094ZM311.094 76.3986H387.993V-0.5H311.094V76.3986ZM466.891 -0.5H543.79V76.3986H466.891V-0.5ZM388.993 77.3986H465.891V154.297H388.993V77.3986ZM466.891 154.297V77.3986H543.79V154.297H466.891ZM388.993 -0.5H465.891V76.3986H388.993L388.993 -0.5ZM466.891 155.297V232.196H543.79V155.297H466.891ZM387.993 155.297V232.196H311.094V155.297H387.993ZM544.79 76.3986H621.688V-0.5H544.79V76.3986ZM699.413 154.297H622.688V77.3986H699.413V154.297ZM699.413 155.297H699.587V232.196H622.688V155.297H699.413ZM700.587 232.196V155.297H777.312V232.196H700.587ZM700.413 233.196L700.587 233.196H777.312V310.094H700.413V233.196ZM700.587 77.3986V154.297H777.312V77.3986H700.587ZM622.688 -0.5V76.3986H699.413V-0.5H622.688ZM700.587 -0.5H777.312L777.312 76.3986H700.587V-0.5ZM777.312 311.094H700.413V387.993H777.312V311.094ZM778.312 310.094H855.21V233.196H778.312L778.312 310.094ZM778.312 77.3986V154.297H855.21V77.3986H778.312ZM778.312 -0.5L778.312 76.3986H855.21V-0.5H778.312ZM934.109 -0.5H1011.01V76.3986H934.109V-0.5ZM856.21 -0.5H933.109L933.109 76.3986H856.21L856.21 -0.5ZM856.21 77.3986H933.109L933.109 154.297H856.21V77.3986ZM855.21 155.297V232.196H778.312L778.312 155.297H855.21ZM1012.01 154.297V77.3986H1088.91V154.297H1012.01ZM1012.01 -0.5H1088.91V76.3986H1012.01V-0.5ZM1167.8 77.3986V154.297H1244.7V77.3986H1167.8ZM1167.8 76.3986H1244.7V-0.5H1167.8V76.3986ZM1166.8 -0.5H1089.91V76.3986H1166.8V-0.5ZM1245.7 -0.5H1322.6V76.3986H1245.7V-0.5ZM1322.6 77.3986H1245.7V154.297H1322.6V77.3986ZM1323.6 77.3986H1400.5V154.297H1323.6V77.3986ZM1400.5 -0.5V76.3986H1323.6V-0.5H1400.5ZM1401 310.094H1401.5V310.594V388.493V388.993H1401H1323.1H1322.6V388.493V310.594V310.094H1323.1H1401ZM1400.5 387.993V311.094H1323.6V387.993H1400.5ZM1400.5 543.399H1323.6V466.5H1400.5V543.399ZM1322.6 543.399H1245.7V466V465.5H1245.2H1167.8H1167.3H1166.8H1089.41H1088.91V466V543.899V544.399H1089.41H1166.8H1167.3H1167.8H1244.7V621.797V622.297H1245.2H1322.6V699.696V700.196H1323.1H1401H1401.5V699.696V622.297V621.797V621.297V544.399V543.899V543.399V466V465.5H1401H1323.1H1322.6V466V543.399ZM1167.8 543.399H1244.7V466.5H1167.8V543.399ZM1166.8 543.399V466.5H1089.91V543.399H1166.8ZM1245.7 621.297V544.399H1322.6V621.297H1245.7ZM1400.5 621.297V544.399H1323.6V621.297H1400.5ZM1400.5 622.297H1323.6V699.196H1400.5V622.297ZM543.79 621.297V544.399H466.891V621.297H543.79ZM76.3986 622.297V699.196H-0.499992V622.297H76.3986ZM232.196 699.196V622.297H155.297V699.196H232.196Z" fill="#3586FF"/>
<path fill-rule="evenodd" clip-rule="evenodd" d="M1011.01 -1.5H934.109H933.609H933.109H856.21H855.71H855.21H778.312H777.812H777.312H700.587H700.087H699.913H699.413H622.688H622.188H621.688H544.79H544.29H543.79H466.891H466.391H465.891H388.993H388.493H387.993H311.094H310.594H310.094H233.196H232.696H232.196H155.297H154.797H154.297H77.3986H76.8985H76.3985H-0.999992H-1.49999V-1V76.3986V76.8986V77.3986V154.297V154.797V155.297L-1.5 232.196V232.696V310.094V310.594V311.094V387.993V388.493V388.993V466.391V466.891H-1H76.3985L76.3985 543.899H-0.999992V621.297H-1.49999V621.797V699.696V700.196H-0.999992H76.8986H77.3986V699.696H154.297V700.196H154.797H232.696H233.196V699.696V621.797V621.297H232.696H154.797H154.297V621.797H77.3986V621.297H76.8986L76.8985 544.399H154.797H155.297V543.899V466.891V466.391V466V465.5V388.493V387.993H154.797H77.3986V311.094H154.797H155.297V310.594V233.196H232.696H233.196V232.696V155.297H310.094V232.696V233.196H310.594H388.493H388.993V232.696V155.297H465.891V232.696V233.196H466.391H544.29H544.79V232.696V155.297V154.797H621.688V155.297V232.696V233.196H622.188H699.413V310.094V310.594V311.094V388.493V388.993H699.913H777.312V465.5V466H699.913V543.399H699.413V543.899H622.188V621.297H621.688V621.797H544.79V621.297V543.899V543.399H544.29H466.391H465.891V543.899V621.297H388.993H388.493H387.993H310.594H310.094V621.797V699.696V700.196H310.594H387.993H388.493H388.993H465.891H466.391H466.891H544.29H544.79V699.696H621.688V700.196H622.188H700.087H700.587V699.696V622.297H777.312V699.696V700.196H777.812H855.71H856.21V699.696V621.797V621.297H855.71H778.312V544.399H855.71H856.21V543.899V466.891V466.391V466V465.5V388.493V387.993H855.71H778.312V311.094H855.71H856.21V310.594V233.196V232.696V232.196V155.297H933.609H934.109V154.797V77.3986H1011.01V154.797V155.297H1011.51H1089.41H1089.91V154.797V77.3986H1166.8V154.797V155.297H1167.3H1244.7H1245.2H1245.7H1322.6H1323.1V232.696H1401V155.297H1401.5V154.797V77.3986V76.8986V76.3986V-1V-1.5H1401H1323.6H1323.1H1322.6H1245.7H1245.2H1244.7H1167.8H1167.3H1166.8H1089.91H1089.41H1088.91H1012.01H1011.51H1011.01ZM154.297 465.5V388.993H77.3986L77.3985 465.5H154.297ZM76.3985 465.5L76.3986 388.993H-0.5V465.891H76.3986L76.3985 465.5ZM77.3986 466.891L77.3985 543.399H154.297V466.891H77.3986ZM466.891 699.196V622.297H543.79V699.196H466.891ZM388.993 699.196V622.297H465.891V699.196H388.993ZM311.094 622.297H387.993V699.196H311.094V622.297ZM700.587 621.297H700.413V544.399H777.312V621.297H700.587ZM699.413 622.297H699.587V699.196H622.688V622.297H699.413ZM778.312 699.196L778.312 622.297H855.21V699.196H778.312ZM855.21 465.5V388.993H778.312L778.312 465.5H855.21ZM778.312 466.891H855.21V543.399H778.312L778.312 466.891ZM76.3986 311.094H-0.5V387.993H76.3986V311.094ZM77.3986 310.094H154.297V233.196H77.3985L77.3986 310.094ZM-0.5 310.094H76.3985V233.196L-0.5 233.196V310.094ZM77.3986 76.3986L77.3985 -0.5H154.297V76.3986H77.3986ZM-0.499992 77.3986H76.3986V154.297H-0.499992V77.3986ZM154.297 77.3986H77.3986V154.297H154.297V77.3986ZM-0.499992 -0.5H76.3986L76.3985 76.3986H-0.499992V-0.5ZM233.196 154.297H310.094V77.3986H233.196V154.297ZM232.196 155.297H155.297V232.196H232.196L232.196 155.297ZM233.196 76.3986V-0.5H310.094V76.3986H233.196ZM155.297 -0.5H232.196L232.196 76.3986H155.297V-0.5ZM76.3986 155.297V232.196H-0.499992V155.297H76.3986ZM311.094 77.3986V154.297H387.993V77.3986H311.094ZM311.094 76.3986H387.993V-0.5H311.094V76.3986ZM466.891 -0.5H543.79V76.3986H466.891V-0.5ZM388.993 77.3986H465.891V154.297H388.993V77.3986ZM466.891 154.297V77.3986H543.79V154.297H466.891ZM388.993 -0.5H465.891V76.3986H388.993L388.993 -0.5ZM466.891 155.297V232.196H543.79V155.297H466.891ZM387.993 155.297V232.196H311.094V155.297H387.993ZM544.79 76.3986H621.688V-0.5H544.79V76.3986ZM699.413 154.297H622.688V77.3986H699.413V154.297ZM699.413 155.297H699.587V232.196H622.688V155.297H699.413ZM700.587 232.196V155.297H777.312V232.196H700.587ZM700.413 233.196L700.587 233.196H777.312V310.094H700.413V233.196ZM700.587 77.3986V154.297H777.312V77.3986H700.587ZM622.688 -0.5V76.3986H699.413V-0.5H622.688ZM700.587 -0.5H777.312L777.312 76.3986H700.587V-0.5ZM777.312 311.094H700.413V387.993H777.312V311.094ZM778.312 310.094H855.21V233.196H778.312L778.312 310.094ZM778.312 77.3986V154.297H855.21V77.3986H778.312ZM778.312 -0.5L778.312 76.3986H855.21V-0.5H778.312ZM934.109 -0.5H1011.01V76.3986H934.109V-0.5ZM856.21 -0.5H933.109L933.109 76.3986H856.21L856.21 -0.5ZM856.21 77.3986H933.109L933.109 154.297H856.21V77.3986ZM855.21 155.297V232.196H778.312L778.312 155.297H855.21ZM1012.01 154.297V77.3986H1088.91V154.297H1012.01ZM1012.01 -0.5H1088.91V76.3986H1012.01V-0.5ZM1167.8 77.3986V154.297H1244.7V77.3986H1167.8ZM1167.8 76.3986H1244.7V-0.5H1167.8V76.3986ZM1166.8 -0.5H1089.91V76.3986H1166.8V-0.5ZM1245.7 -0.5H1322.6V76.3986H1245.7V-0.5ZM1322.6 77.3986H1245.7V154.297H1322.6V77.3986ZM1323.6 77.3986H1400.5V154.297H1323.6V77.3986ZM1400.5 -0.5V76.3986H1323.6V-0.5H1400.5ZM1401 310.094H1401.5V310.594V388.493V388.993H1401H1323.1H1322.6V388.493V310.594V310.094H1323.1H1401ZM1400.5 387.993V311.094H1323.6V387.993H1400.5ZM1400.5 543.399H1323.6V466.5H1400.5V543.399ZM1322.6 543.399H1245.7V466V465.5H1245.2H1167.8H1167.3H1166.8H1089.41H1088.91V466V543.899V544.399H1089.41H1166.8H1167.3H1167.8H1244.7V621.797V622.297H1245.2H1322.6V699.696V700.196H1323.1H1401H1401.5V699.696V622.297V621.797V621.297V544.399V543.899V543.399V466V465.5H1401H1323.1H1322.6V466V543.399ZM1167.8 543.399H1244.7V466.5H1167.8V543.399ZM1166.8 543.399V466.5H1089.91V543.399H1166.8ZM1245.7 621.297V544.399H1322.6V621.297H1245.7ZM1400.5 621.297V544.399H1323.6V621.297H1400.5ZM1400.5 622.297H1323.6V699.196H1400.5V622.297ZM543.79 621.297V544.399H466.891V621.297H543.79ZM76.3986 622.297V699.196H-0.499992V622.297H76.3986ZM232.196 699.196V622.297H155.297V699.196H232.196Z" fill="url(#paint0_radial_827_1056)"/>
<path fill-rule="evenodd" clip-rule="evenodd" d="M1011.01 -1.5H934.109H933.609H933.109H856.21H855.71H855.21H778.312H777.812H777.312H700.587H700.087H699.913H699.413H622.688H622.188H621.688H544.79H544.29H543.79H466.891H466.391H465.891H388.993H388.493H387.993H311.094H310.594H310.094H233.196H232.696H232.196H155.297H154.797H154.297H77.3986H76.8985H76.3985H-0.999992H-1.49999V-1V76.3986V76.8986V77.3986V154.297V154.797V155.297L-1.5 232.196V232.696V310.094V310.594V311.094V387.993V388.493V388.993V466.391V466.891H-1H76.3985L76.3985 543.899H-0.999992V621.297H-1.49999V621.797V699.696V700.196H-0.999992H76.8986H77.3986V699.696H154.297V700.196H154.797H232.696H233.196V699.696V621.797V621.297H232.696H154.797H154.297V621.797H77.3986V621.297H76.8986L76.8985 544.399H154.797H155.297V543.899V466.891V466.391V466V465.5V388.493V387.993H154.797H77.3986V311.094H154.797H155.297V310.594V233.196H232.696H233.196V232.696V155.297H310.094V232.696V233.196H310.594H388.493H388.993V232.696V155.297H465.891V232.696V233.196H466.391H544.29H544.79V232.696V155.297V154.797H621.688V155.297V232.696V233.196H622.188H699.413V310.094V310.594V311.094V388.493V388.993H699.913H777.312V465.5V466H699.913V543.399H699.413V543.899H622.188V621.297H621.688V621.797H544.79V621.297V543.899V543.399H544.29H466.391H465.891V543.899V621.297H388.993H388.493H387.993H310.594H310.094V621.797V699.696V700.196H310.594H387.993H388.493H388.993H465.891H466.391H466.891H544.29H544.79V699.696H621.688V700.196H622.188H700.087H700.587V699.696V622.297H777.312V699.696V700.196H777.812H855.71H856.21V699.696V621.797V621.297H855.71H778.312V544.399H855.71H856.21V543.899V466.891V466.391V466V465.5V388.493V387.993H855.71H778.312V311.094H855.71H856.21V310.594V233.196V232.696V232.196V155.297H933.609H934.109V154.797V77.3986H1011.01V154.797V155.297H1011.51H1089.41H1089.91V154.797V77.3986H1166.8V154.797V155.297H1167.3H1244.7H1245.2H1245.7H1322.6H1323.1V232.696H1401V155.297H1401.5V154.797V77.3986V76.8986V76.3986V-1V-1.5H1401H1323.6H1323.1H1322.6H1245.7H1245.2H1244.7H1167.8H1167.3H1166.8H1089.91H1089.41H1088.91H1012.01H1011.51H1011.01ZM154.297 465.5V388.993H77.3986L77.3985 465.5H154.297ZM76.3985 465.5L76.3986 388.993H-0.5V465.891H76.3986L76.3985 465.5ZM77.3986 466.891L77.3985 543.399H154.297V466.891H77.3986ZM466.891 699.196V622.297H543.79V699.196H466.891ZM388.993 699.196V622.297H465.891V699.196H388.993ZM311.094 622.297H387.993V699.196H311.094V622.297ZM700.587 621.297H700.413V544.399H777.312V621.297H700.587ZM699.413 622.297H699.587V699.196H622.688V622.297H699.413ZM778.312 699.196L778.312 622.297H855.21V699.196H778.312ZM855.21 465.5V388.993H778.312L778.312 465.5H855.21ZM778.312 466.891H855.21V543.399H778.312L778.312 466.891ZM76.3986 311.094H-0.5V387.993H76.3986V311.094ZM77.3986 310.094H154.297V233.196H77.3985L77.3986 310.094ZM-0.5 310.094H76.3985V233.196L-0.5 233.196V310.094ZM77.3986 76.3986L77.3985 -0.5H154.297V76.3986H77.3986ZM-0.499992 77.3986H76.3986V154.297H-0.499992V77.3986ZM154.297 77.3986H77.3986V154.297H154.297V77.3986ZM-0.499992 -0.5H76.3986L76.3985 76.3986H-0.499992V-0.5ZM233.196 154.297H310.094V77.3986H233.196V154.297ZM232.196 155.297H155.297V232.196H232.196L232.196 155.297ZM233.196 76.3986V-0.5H310.094V76.3986H233.196ZM155.297 -0.5H232.196L232.196 76.3986H155.297V-0.5ZM76.3986 155.297V232.196H-0.499992V155.297H76.3986ZM311.094 77.3986V154.297H387.993V77.3986H311.094ZM311.094 76.3986H387.993V-0.5H311.094V76.3986ZM466.891 -0.5H543.79V76.3986H466.891V-0.5ZM388.993 77.3986H465.891V154.297H388.993V77.3986ZM466.891 154.297V77.3986H543.79V154.297H466.891ZM388.993 -0.5H465.891V76.3986H388.993L388.993 -0.5ZM466.891 155.297V232.196H543.79V155.297H466.891ZM387.993 155.297V232.196H311.094V155.297H387.993ZM544.79 76.3986H621.688V-0.5H544.79V76.3986ZM699.413 154.297H622.688V77.3986H699.413V154.297ZM699.413 155.297H699.587V232.196H622.688V155.297H699.413ZM700.587 232.196V155.297H777.312V232.196H700.587ZM700.413 233.196L700.587 233.196H777.312V310.094H700.413V233.196ZM700.587 77.3986V154.297H777.312V77.3986H700.587ZM622.688 -0.5V76.3986H699.413V-0.5H622.688ZM700.587 -0.5H777.312L777.312 76.3986H700.587V-0.5ZM777.312 311.094H700.413V387.993H777.312V311.094ZM778.312 310.094H855.21V233.196H778.312L778.312 310.094ZM778.312 77.3986V154.297H855.21V77.3986H778.312ZM778.312 -0.5L778.312 76.3986H855.21V-0.5H778.312ZM934.109 -0.5H1011.01V76.3986H934.109V-0.5ZM856.21 -0.5H933.109L933.109 76.3986H856.21L856.21 -0.5ZM856.21 77.3986H933.109L933.109 154.297H856.21V77.3986ZM855.21 155.297V232.196H778.312L778.312 155.297H855.21ZM1012.01 154.297V77.3986H1088.91V154.297H1012.01ZM1012.01 -0.5H1088.91V76.3986H1012.01V-0.5ZM1167.8 77.3986V154.297H1244.7V77.3986H1167.8ZM1167.8 76.3986H1244.7V-0.5H1167.8V76.3986ZM1166.8 -0.5H1089.91V76.3986H1166.8V-0.5ZM1245.7 -0.5H1322.6V76.3986H1245.7V-0.5ZM1322.6 77.3986H1245.7V154.297H1322.6V77.3986ZM1323.6 77.3986H1400.5V154.297H1323.6V77.3986ZM1400.5 -0.5V76.3986H1323.6V-0.5H1400.5ZM1401 310.094H1401.5V310.594V388.493V388.993H1401H1323.1H1322.6V388.493V310.594V310.094H1323.1H1401ZM1400.5 387.993V311.094H1323.6V387.993H1400.5ZM1400.5 543.399H1323.6V466.5H1400.5V543.399ZM1322.6 543.399H1245.7V466V465.5H1245.2H1167.8H1167.3H1166.8H1089.41H1088.91V466V543.899V544.399H1089.41H1166.8H1167.3H1167.8H1244.7V621.797V622.297H1245.2H1322.6V699.696V700.196H1323.1H1401H1401.5V699.696V622.297V621.797V621.297V544.399V543.899V543.399V466V465.5H1401H1323.1H1322.6V466V543.399ZM1167.8 543.399H1244.7V466.5H1167.8V543.399ZM1166.8 543.399V466.5H1089.91V543.399H1166.8ZM1245.7 621.297V544.399H1322.6V621.297H1245.7ZM1400.5 621.297V544.399H1323.6V621.297H1400.5ZM1400.5 622.297H1323.6V699.196H1400.5V622.297ZM543.79 621.297V544.399H466.891V621.297H543.79ZM76.3986 622.297V699.196H-0.499992V622.297H76.3986ZM232.196 699.196V622.297H155.297V699.196H232.196Z" fill="url(#paint1_radial_827_1056)"/>
</g>
<defs>
<radialGradient id="paint0_radial_827_1056" cx="0" cy="0" r="1" gradientUnits="userSpaceOnUse" gradientTransform="translate(366.5 393.5) rotate(-130.122) scale(324.322 709.847)">
<stop/>
<stop offset="1" stop-color="#080B20" stop-opacity="0"/>
</radialGradient>
<radialGradient id="paint1_radial_827_1056" cx="0" cy="0" r="1" gradientUnits="userSpaceOnUse" gradientTransform="translate(1096 415) rotate(-129.452) scale(186.489 275.102)">
<stop/>
<stop offset="1" stop-color="#080B20" stop-opacity="0"/>
</radialGradient>
</defs>
</svg>
