<svg width="475" height="563" viewBox="0 0 475 563" fill="none" xmlns="http://www.w3.org/2000/svg">
<rect width="475" height="563" rx="12" fill="#21233D"/>
<path d="M196.125 343.563C190.604 343.563 185.943 341.661 182.141 337.859C178.339 334.057 176.438 329.396 176.438 323.875V240.125C176.438 234.604 178.339 229.943 182.141 226.141C185.943 222.339 190.604 220.438 196.125 220.438H279.875C285.396 220.438 290.057 222.339 293.859 226.141C297.661 229.943 299.563 234.604 299.563 240.125V323.875C299.563 329.396 297.661 334.057 293.859 337.859C290.057 341.661 285.396 343.563 279.875 343.563H196.125ZM207.375 315.125H268.625C270.708 315.125 272.167 314.24 273 312.469C273.833 310.698 273.677 308.979 272.531 307.313L255.969 284.344C255.031 282.99 253.729 282.286 252.063 282.234C250.396 282.182 249.042 282.833 248 284.188L233.313 303.875L223.313 290.438C222.271 289.083 220.917 288.432 219.25 288.484C217.583 288.536 216.281 289.24 215.344 290.594L203.469 307.313C202.323 308.979 202.167 310.698 203 312.469C203.833 314.24 205.292 315.125 207.375 315.125ZM216.125 273.094C219.771 273.094 222.844 271.844 225.344 269.344C227.844 266.844 229.094 263.771 229.094 260.125C229.094 256.479 227.844 253.406 225.344 250.906C222.844 248.406 219.771 247.156 216.125 247.156C212.479 247.156 209.406 248.406 206.906 250.906C204.406 253.406 203.156 256.479 203.156 260.125C203.156 263.771 204.406 266.844 206.906 269.344C209.406 271.844 212.479 273.094 216.125 273.094Z" fill="#353755"/>
</svg>
