<svg width="30" height="29" viewBox="0 0 30 29" fill="none" xmlns="http://www.w3.org/2000/svg">
<path d="M28.1651 19.2209C28.1651 19.2209 28.1214 18.9554 28.0958 18.9578L23.2269 19.4227C22.8395 19.4597 22.5386 19.7655 22.5114 20.1498L22.3776 22.0473L18.6108 22.3132L18.3546 20.5935C18.2976 20.211 17.9601 19.9227 17.5694 19.9227H12.4306C12.0401 19.9227 11.7026 20.211 11.6455 20.5935L11.3891 22.3132L7.62235 22.0473L7.48859 20.1498C7.46141 19.7654 7.16051 19.4596 6.77309 19.4226L1.90176 18.9578C1.8766 18.9554 1.85816 19.2212 1.833 19.2212L1.8264 20.264L5.95196 20.9225L6.08707 22.8369C6.11439 23.2245 6.43035 23.5379 6.82221 23.5657L12.0099 23.932C12.0296 23.9333 12.0489 23.9341 12.0683 23.9341C12.4582 23.9341 12.7951 23.6456 12.8522 23.2631L13.1158 21.4936H16.8843L17.148 23.2631C17.2049 23.6455 17.5422 23.9339 17.9326 23.9339C17.9517 23.9339 17.9708 23.9333 17.9895 23.932L23.1779 23.5657C23.5696 23.5379 23.8857 23.2245 23.913 22.8369L24.048 20.9225L28.1718 20.2611L28.1651 19.2209Z" fill="#4A86E0"/>
<path d="M1.83294 11.3578V17.6859V18.4897V19.2211C1.84747 19.2212 1.86201 19.2218 1.8764 19.2231L6.7472 19.6879C7.00234 19.7123 7.2023 19.9155 7.22007 20.1686L7.37024 22.2966L11.6191 22.5967L11.9118 20.6326C11.9497 20.378 12.1704 20.1892 12.4306 20.1892H17.5695C17.8296 20.1892 18.0503 20.378 18.0882 20.6326L18.3809 22.5967L22.6299 22.2966L22.7799 20.1686C22.7978 19.9155 22.9977 19.7124 23.2528 19.6879L28.1217 19.2231C28.1361 19.2218 28.1505 19.2212 28.165 19.2211V18.5937L28.1671 18.593V11.3578H28.1851C28.8303 10.5427 29.4274 9.68375 30 8.76744C29.2396 7.48621 28.3078 6.34122 27.3119 5.2804C26.3882 5.74055 25.4911 6.26184 24.6437 6.81655C24.2197 6.39942 23.7421 6.0582 23.273 5.70153C22.8121 5.33514 22.2927 5.06651 21.8 4.75352C21.9467 3.67246 22.0192 2.60818 22.0484 1.49742C20.7773 0.86426 19.4218 0.444462 18.0507 0.142933C17.5033 1.05352 17.0027 2.03962 16.5667 3.00361C16.0497 2.9181 15.5303 2.88641 15.0102 2.88028V2.87948C15.0065 2.87948 15.0032 2.88028 15.0001 2.88028C14.9968 2.88028 14.9935 2.87948 14.9902 2.87948V2.88028C14.4692 2.88641 13.9502 2.9181 13.433 3.00361C12.9973 2.03962 12.497 1.05352 11.9488 0.142933C10.5783 0.444462 9.2227 0.86426 7.95171 1.49742C7.98078 2.60818 8.05331 3.67246 8.20039 4.75352C7.7068 5.06651 7.18804 5.33514 6.72701 5.70153C6.25858 6.0582 5.7802 6.39942 5.35604 6.81655C4.50867 6.26184 3.61178 5.74055 2.68784 5.2804C1.69191 6.34122 0.760708 7.48621 0 8.76744C0.572314 9.68375 1.16979 10.5427 1.81491 11.3578H1.83294Z" fill="#316CC5"/>
<path d="M23.7954 20.679L23.6446 22.8184C23.6264 23.0762 23.4192 23.2814 23.1586 23.3L17.9704 23.6663C17.9578 23.6673 17.9451 23.6677 17.9326 23.6677C17.6748 23.6677 17.4523 23.4804 17.4142 23.2242L17.1167 21.2272H12.8834L12.5858 23.2242C12.5459 23.4929 12.3031 23.6862 12.0297 23.6663L6.84143 23.3C6.58091 23.2814 6.37368 23.0762 6.35551 22.8184L6.20466 20.679L1.8249 20.2611C1.82692 20.727 1.83298 21.2373 1.83298 21.3389C1.83298 25.917 7.70078 28.1175 14.9911 28.1428H15H15.009C22.2993 28.1175 28.1651 25.917 28.1651 21.3389C28.1651 21.2355 28.1714 20.7272 28.1736 20.2611L23.7954 20.679Z" fill="#316CC5"/>
<path d="M11.0307 14.5494C11.0307 16.1546 9.7166 17.4548 8.09534 17.4548C6.47488 17.4548 5.16043 16.1546 5.16043 14.5494C5.16043 12.9453 6.47488 11.6457 8.09534 11.6457C9.7166 11.6457 11.0307 12.9453 11.0307 14.5494Z" fill="#4A86E0"/>
<path d="M10.3244 14.7221C10.3244 15.7868 9.45249 16.6497 8.37596 16.6497C7.29996 16.6497 6.42756 15.7868 6.42756 14.7221C6.42756 13.6574 7.29996 12.7937 8.37596 12.7937C9.45249 12.7937 10.3244 13.6574 10.3244 14.7221Z" fill="#1A4E9D"/>
<path d="M14.9998 17.7192C14.4779 17.7192 14.055 17.3386 14.055 16.8694V14.1949C14.055 13.7261 14.4779 13.3451 14.9998 13.3451C15.5216 13.3451 15.9455 13.7261 15.9455 14.1949V16.8694C15.9455 17.3386 15.5216 17.7192 14.9998 17.7192Z" fill="#4A86E0"/>
<path d="M18.9694 14.5494C18.9694 16.1546 20.2835 17.4548 21.905 17.4548C23.5253 17.4548 24.8396 16.1546 24.8396 14.5494C24.8396 12.9453 23.5253 11.6457 21.905 11.6457C20.2835 11.6457 18.9694 12.9453 18.9694 14.5494Z" fill="#4A86E0"/>
<path d="M19.6759 14.7221C19.6759 15.7868 20.5475 16.6497 21.6232 16.6497C22.7 16.6497 23.5716 15.7868 23.5716 14.7221C23.5716 13.6574 22.7 12.7937 21.6232 12.7937C20.5475 12.7937 19.6759 13.6574 19.6759 14.7221Z" fill="#1A4E9D"/>
</svg>
