<svg width="511" height="501" viewBox="0 0 511 501" fill="none" xmlns="http://www.w3.org/2000/svg">
<g clip-path="url(#clip0_792_1911)">
<path d="M1 11C1 5.47714 5.47715 1 11 1H271V501H11C5.47715 501 1 496.523 1 491V11Z" fill="#474747"/>
<path d="M1 10.5C1 4.97715 5.47715 0.5 11 0.5H31V30.5H1V10.5Z" stroke="#5C5C5C"/>
<rect x="31" y="0.5" width="30" height="30" stroke="#5C5C5C"/>
<rect x="61" y="0.5" width="30" height="30" stroke="#5C5C5C"/>
<rect x="91" y="0.5" width="30" height="30" stroke="#5C5C5C"/>
<rect x="121" y="0.5" width="30" height="30" stroke="#5C5C5C"/>
<rect x="151" y="0.5" width="30" height="30" stroke="#5C5C5C"/>
<rect x="181" y="0.5" width="30" height="30" stroke="#5C5C5C"/>
<rect x="211" y="0.5" width="30" height="30" stroke="#5C5C5C"/>
<rect x="241" y="0.5" width="30" height="30" stroke="#5C5C5C"/>
<rect x="1" y="30.5" width="30" height="30" stroke="#5C5C5C"/>
<rect x="31" y="30.5" width="30" height="30" stroke="#5C5C5C"/>
<rect x="61" y="30.5" width="30" height="30" stroke="#5C5C5C"/>
<rect x="91" y="30.5" width="30" height="30" stroke="#5C5C5C"/>
<rect x="121" y="30.5" width="30" height="30" stroke="#5C5C5C"/>
<rect x="151" y="30.5" width="30" height="30" stroke="#5C5C5C"/>
<rect x="181" y="30.5" width="30" height="30" stroke="#5C5C5C"/>
<rect x="211" y="30.5" width="30" height="30" stroke="#5C5C5C"/>
<rect x="241" y="30.5" width="30" height="30" stroke="#5C5C5C"/>
<path d="M1 490.5C1 496.023 5.47715 500.5 11 500.5H31V480.5H1V490.5Z" stroke="#5C5C5C"/>
<rect width="30" height="20" transform="matrix(1 0 0 -1 31 500.5)" stroke="#5C5C5C"/>
<rect width="30" height="20" transform="matrix(1 0 0 -1 61 500.5)" stroke="#5C5C5C"/>
<rect width="30" height="20" transform="matrix(1 0 0 -1 91 500.5)" stroke="#5C5C5C"/>
<rect width="30" height="20" transform="matrix(1 0 0 -1 121 500.5)" stroke="#5C5C5C"/>
<rect width="30" height="20" transform="matrix(1 0 0 -1 151 500.5)" stroke="#5C5C5C"/>
<rect width="30" height="20" transform="matrix(1 0 0 -1 181 500.5)" stroke="#5C5C5C"/>
<rect width="30" height="20" transform="matrix(1 0 0 -1 211 500.5)" stroke="#5C5C5C"/>
<rect width="30" height="20" transform="matrix(1 0 0 -1 241 500.5)" stroke="#5C5C5C"/>
<rect x="1" y="60.5" width="30" height="30" stroke="#5C5C5C"/>
<rect x="31" y="60.5" width="30" height="30" stroke="#5C5C5C"/>
<rect x="61" y="60.5" width="30" height="30" stroke="#5C5C5C"/>
<rect x="91" y="60.5" width="30" height="30" stroke="#5C5C5C"/>
<rect x="121" y="60.5" width="30" height="30" stroke="#5C5C5C"/>
<rect x="151" y="60.5" width="30" height="30" stroke="#5C5C5C"/>
<rect x="181" y="60.5" width="30" height="30" stroke="#5C5C5C"/>
<rect x="211" y="60.5" width="30" height="30" stroke="#5C5C5C"/>
<rect x="241" y="60.5" width="30" height="30" stroke="#5C5C5C"/>
<rect x="1" y="90.5" width="30" height="30" stroke="#5C5C5C"/>
<rect x="31" y="90.5" width="30" height="30" stroke="#5C5C5C"/>
<rect x="61" y="90.5" width="30" height="30" stroke="#5C5C5C"/>
<rect x="91" y="90.5" width="30" height="30" stroke="#5C5C5C"/>
<rect x="121" y="90.5" width="30" height="30" stroke="#5C5C5C"/>
<rect x="151" y="90.5" width="30" height="30" stroke="#5C5C5C"/>
<rect x="181" y="90.5" width="30" height="30" stroke="#5C5C5C"/>
<rect x="211" y="90.5" width="30" height="30" stroke="#5C5C5C"/>
<rect x="241" y="90.5" width="30" height="30" stroke="#5C5C5C"/>
<rect x="1" y="120.5" width="30" height="30" stroke="#5C5C5C"/>
<rect x="31" y="120.5" width="30" height="30" stroke="#5C5C5C"/>
<rect x="61" y="120.5" width="30" height="30" stroke="#5C5C5C"/>
<rect x="91" y="120.5" width="30" height="30" stroke="#5C5C5C"/>
<rect x="121" y="120.5" width="30" height="30" stroke="#5C5C5C"/>
<rect x="151" y="120.5" width="30" height="30" stroke="#5C5C5C"/>
<rect x="181" y="120.5" width="30" height="30" stroke="#5C5C5C"/>
<rect x="211" y="120.5" width="30" height="30" stroke="#5C5C5C"/>
<rect x="241" y="120.5" width="30" height="30" stroke="#5C5C5C"/>
<rect x="1" y="150.5" width="30" height="30" stroke="#5C5C5C"/>
<rect x="31" y="150.5" width="30" height="30" stroke="#5C5C5C"/>
<rect x="61" y="150.5" width="30" height="30" stroke="#5C5C5C"/>
<rect x="91" y="150.5" width="30" height="30" stroke="#5C5C5C"/>
<rect x="121" y="150.5" width="30" height="30" stroke="#5C5C5C"/>
<rect x="151" y="150.5" width="30" height="30" stroke="#5C5C5C"/>
<rect x="181" y="150.5" width="30" height="30" stroke="#5C5C5C"/>
<rect x="211" y="150.5" width="30" height="30" stroke="#5C5C5C"/>
<rect x="241" y="150.5" width="30" height="30" stroke="#5C5C5C"/>
<rect x="1" y="180.5" width="30" height="30" stroke="#5C5C5C"/>
<rect x="31" y="180.5" width="30" height="30" stroke="#5C5C5C"/>
<rect x="61" y="180.5" width="30" height="30" stroke="#5C5C5C"/>
<rect x="91" y="180.5" width="30" height="30" stroke="#5C5C5C"/>
<rect x="121" y="180.5" width="30" height="30" stroke="#5C5C5C"/>
<rect x="151" y="180.5" width="30" height="30" stroke="#5C5C5C"/>
<rect x="181" y="180.5" width="30" height="30" stroke="#5C5C5C"/>
<rect x="211" y="180.5" width="30" height="30" stroke="#5C5C5C"/>
<rect x="241" y="180.5" width="30" height="30" stroke="#5C5C5C"/>
<rect x="1" y="210.5" width="30" height="30" stroke="#5C5C5C"/>
<rect x="31" y="210.5" width="30" height="30" stroke="#5C5C5C"/>
<rect x="61" y="210.5" width="30" height="30" stroke="#5C5C5C"/>
<rect x="91" y="210.5" width="30" height="30" stroke="#5C5C5C"/>
<rect x="121" y="210.5" width="30" height="30" stroke="#5C5C5C"/>
<rect x="151" y="210.5" width="30" height="30" stroke="#5C5C5C"/>
<rect x="181" y="210.5" width="30" height="30" stroke="#5C5C5C"/>
<rect x="211" y="210.5" width="30" height="30" stroke="#5C5C5C"/>
<rect x="241" y="210.5" width="30" height="30" stroke="#5C5C5C"/>
<rect x="1" y="240.5" width="30" height="30" stroke="#5C5C5C"/>
<rect x="31" y="240.5" width="30" height="30" stroke="#5C5C5C"/>
<rect x="61" y="240.5" width="30" height="30" stroke="#5C5C5C"/>
<rect x="91" y="240.5" width="30" height="30" stroke="#5C5C5C"/>
<rect x="121" y="240.5" width="30" height="30" stroke="#5C5C5C"/>
<rect x="151" y="240.5" width="30" height="30" stroke="#5C5C5C"/>
<rect x="181" y="240.5" width="30" height="30" stroke="#5C5C5C"/>
<rect x="211" y="240.5" width="30" height="30" stroke="#5C5C5C"/>
<rect x="241" y="240.5" width="30" height="30" stroke="#5C5C5C"/>
<rect x="1" y="270.5" width="30" height="30" stroke="#5C5C5C"/>
<rect x="31" y="270.5" width="30" height="30" stroke="#5C5C5C"/>
<rect x="61" y="270.5" width="30" height="30" stroke="#5C5C5C"/>
<rect x="91" y="270.5" width="30" height="30" stroke="#5C5C5C"/>
<rect x="121" y="270.5" width="30" height="30" stroke="#5C5C5C"/>
<rect x="151" y="270.5" width="30" height="30" stroke="#5C5C5C"/>
<rect x="181" y="270.5" width="30" height="30" stroke="#5C5C5C"/>
<rect x="211" y="270.5" width="30" height="30" stroke="#5C5C5C"/>
<rect x="241" y="270.5" width="30" height="30" stroke="#5C5C5C"/>
<rect x="1" y="300.5" width="30" height="30" stroke="#5C5C5C"/>
<rect x="31" y="300.5" width="30" height="30" stroke="#5C5C5C"/>
<rect x="61" y="300.5" width="30" height="30" stroke="#5C5C5C"/>
<rect x="91" y="300.5" width="30" height="30" stroke="#5C5C5C"/>
<rect x="121" y="300.5" width="30" height="30" stroke="#5C5C5C"/>
<rect x="151" y="300.5" width="30" height="30" stroke="#5C5C5C"/>
<rect x="181" y="300.5" width="30" height="30" stroke="#5C5C5C"/>
<rect x="211" y="300.5" width="30" height="30" stroke="#5C5C5C"/>
<rect x="241" y="300.5" width="30" height="30" stroke="#5C5C5C"/>
<rect x="1" y="330.5" width="30" height="30" stroke="#5C5C5C"/>
<rect x="31" y="330.5" width="30" height="30" stroke="#5C5C5C"/>
<rect x="61" y="330.5" width="30" height="30" stroke="#5C5C5C"/>
<rect x="91" y="330.5" width="30" height="30" stroke="#5C5C5C"/>
<rect x="121" y="330.5" width="30" height="30" stroke="#5C5C5C"/>
<rect x="151" y="330.5" width="30" height="30" stroke="#5C5C5C"/>
<rect x="181" y="330.5" width="30" height="30" stroke="#5C5C5C"/>
<rect x="211" y="330.5" width="30" height="30" stroke="#5C5C5C"/>
<rect x="241" y="330.5" width="30" height="30" stroke="#5C5C5C"/>
<rect x="1" y="360.5" width="30" height="30" stroke="#5C5C5C"/>
<rect x="31" y="360.5" width="30" height="30" stroke="#5C5C5C"/>
<rect x="61" y="360.5" width="30" height="30" stroke="#5C5C5C"/>
<rect x="91" y="360.5" width="30" height="30" stroke="#5C5C5C"/>
<rect x="121" y="360.5" width="30" height="30" stroke="#5C5C5C"/>
<rect x="151" y="360.5" width="30" height="30" stroke="#5C5C5C"/>
<rect x="181" y="360.5" width="30" height="30" stroke="#5C5C5C"/>
<rect x="211" y="360.5" width="30" height="30" stroke="#5C5C5C"/>
<rect x="241" y="360.5" width="30" height="30" stroke="#5C5C5C"/>
<rect x="1" y="360.5" width="30" height="30" stroke="#5C5C5C"/>
<rect x="31" y="360.5" width="30" height="30" stroke="#5C5C5C"/>
<rect x="61" y="360.5" width="30" height="30" stroke="#5C5C5C"/>
<rect x="91" y="360.5" width="30" height="30" stroke="#5C5C5C"/>
<rect x="121" y="360.5" width="30" height="30" stroke="#5C5C5C"/>
<rect x="151" y="360.5" width="30" height="30" stroke="#5C5C5C"/>
<rect x="181" y="360.5" width="30" height="30" stroke="#5C5C5C"/>
<rect x="211" y="360.5" width="30" height="30" stroke="#5C5C5C"/>
<rect x="241" y="360.5" width="30" height="30" stroke="#5C5C5C"/>
<rect x="1" y="390.5" width="30" height="30" stroke="#5C5C5C"/>
<rect x="31" y="390.5" width="30" height="30" stroke="#5C5C5C"/>
<rect x="61" y="390.5" width="30" height="30" stroke="#5C5C5C"/>
<rect x="91" y="390.5" width="30" height="30" stroke="#5C5C5C"/>
<rect x="121" y="390.5" width="30" height="30" stroke="#5C5C5C"/>
<rect x="151" y="390.5" width="30" height="30" stroke="#5C5C5C"/>
<rect x="181" y="390.5" width="30" height="30" stroke="#5C5C5C"/>
<rect x="211" y="390.5" width="30" height="30" stroke="#5C5C5C"/>
<rect x="241" y="390.5" width="30" height="30" stroke="#5C5C5C"/>
<rect x="1" y="420.5" width="30" height="30" stroke="#5C5C5C"/>
<rect x="31" y="420.5" width="30" height="30" stroke="#5C5C5C"/>
<rect x="61" y="420.5" width="30" height="30" stroke="#5C5C5C"/>
<rect x="91" y="420.5" width="30" height="30" stroke="#5C5C5C"/>
<rect x="121" y="420.5" width="30" height="30" stroke="#5C5C5C"/>
<rect x="151" y="420.5" width="30" height="30" stroke="#5C5C5C"/>
<rect x="181" y="420.5" width="30" height="30" stroke="#5C5C5C"/>
<rect x="211" y="420.5" width="30" height="30" stroke="#5C5C5C"/>
<rect x="241" y="420.5" width="30" height="30" stroke="#5C5C5C"/>
<rect x="1" y="450.5" width="30" height="30" stroke="#5C5C5C"/>
<rect x="31" y="450.5" width="30" height="30" stroke="#5C5C5C"/>
<rect x="61" y="450.5" width="30" height="30" stroke="#5C5C5C"/>
<rect x="91" y="450.5" width="30" height="30" stroke="#5C5C5C"/>
<rect x="121" y="450.5" width="30" height="30" stroke="#5C5C5C"/>
<rect x="151" y="450.5" width="30" height="30" stroke="#5C5C5C"/>
<rect x="181" y="450.5" width="30" height="30" stroke="#5C5C5C"/>
<rect x="211" y="450.5" width="30" height="30" stroke="#5C5C5C"/>
<rect x="241" y="450.5" width="30" height="30" stroke="#5C5C5C"/>
<line x1="49" y1="310.5" x2="219" y2="310.5" stroke="#3586FF" stroke-opacity="0.4" stroke-width="3"/>
<line x1="49" y1="141.5" x2="219" y2="141.5" stroke="#3586FF" stroke-opacity="0.4" stroke-width="3"/>
<line x1="48.5" y1="312" x2="48.5" y2="142" stroke="#3586FF" stroke-opacity="0.4" stroke-width="3"/>
<line x1="217.5" y1="312" x2="217.5" y2="142" stroke="#3586FF" stroke-opacity="0.4" stroke-width="3"/>
<circle cx="217.5" cy="141.5" r="7.5" fill="#3586FF"/>
<circle cx="48.5" cy="141.5" r="7.5" fill="#3586FF"/>
<circle cx="217.5" cy="310.5" r="7.5" fill="#3586FF"/>
<circle cx="48.5" cy="310.5" r="7.5" fill="#3586FF"/>
<path d="M271 0H511V501H271V0Z" fill="#383838"/>
<rect x="364" y="125" width="57" height="17" rx="2" fill="#2A2A2A"/>
<rect x="369" y="130" width="30" height="7" rx="3.5" fill="white" fill-opacity="0.4"/>
<path d="M352.153 130C352.315 130 352.468 130.075 352.567 130.203L354.5 132.683L356.433 130.203C356.532 130.075 356.685 130 356.847 130C357.287 130 357.532 130.507 357.259 130.852L355.187 133.466L357.316 136.141C357.592 136.488 357.345 137 356.902 137C356.739 137 356.585 136.925 356.485 136.797L354.5 134.264L352.515 136.797C352.414 136.925 352.261 137 352.098 137C351.655 137 351.408 136.488 351.684 136.141L353.813 133.466L351.741 130.852C351.468 130.507 351.713 130 352.153 130Z" fill="#585858"/>
<path d="M444 126.5C444 125.395 444.895 124.5 446 124.5H499C500.104 124.5 501 125.395 501 126.5V139.5C501 140.605 500.104 141.5 499 141.5H446C444.895 141.5 444 140.605 444 139.5V126.5Z" fill="#2A2A2A"/>
<path d="M449 133C449 131.067 450.567 129.5 452.5 129.5H462.5C464.433 129.5 466 131.067 466 133C466 134.933 464.433 136.5 462.5 136.5H452.5C450.567 136.5 449 134.933 449 133Z" fill="white" fill-opacity="0.4"/>
<path d="M432.069 129.5C432.263 129.5 432.443 129.603 432.542 129.77L434.598 133.252L436.66 129.768C436.758 129.602 436.936 129.5 437.129 129.5C437.555 129.5 437.816 129.966 437.594 130.33L435.16 134.312V135.935C435.16 136.247 434.907 136.5 434.595 136.5C434.282 136.5 434.029 136.247 434.029 135.935V134.312L431.599 130.337C431.375 129.97 431.639 129.5 432.069 129.5Z" fill="#585858"/>
<rect x="281" y="129" width="50" height="9" rx="4.5" fill="#585858"/>
<rect x="364" y="147" width="57" height="17" rx="2" fill="#2A2A2A"/>
<rect x="369" y="152" width="30" height="7" rx="3.5" fill="white" fill-opacity="0.4"/>
<path d="M352.153 152C352.315 152 352.468 152.075 352.567 152.203L354.5 154.683L356.433 152.203C356.532 152.075 356.685 152 356.847 152C357.287 152 357.532 152.507 357.259 152.852L355.187 155.466L357.316 158.141C357.592 158.488 357.345 159 356.902 159C356.739 159 356.585 158.925 356.485 158.797L354.5 156.264L352.515 158.797C352.414 158.925 352.261 159 352.098 159C351.655 159 351.408 158.488 351.684 158.141L353.813 155.466L351.741 152.852C351.468 152.507 351.713 152 352.153 152Z" fill="#585858"/>
<path d="M444 148.5C444 147.395 444.895 146.5 446 146.5H499C500.104 146.5 501 147.395 501 148.5V161.5C501 162.605 500.104 163.5 499 163.5H446C444.895 163.5 444 162.605 444 161.5V148.5Z" fill="#2A2A2A"/>
<path d="M449 155C449 153.067 450.567 151.5 452.5 151.5H473.5C475.433 151.5 477 153.067 477 155C477 156.933 475.433 158.5 473.5 158.5H452.5C450.567 158.5 449 156.933 449 155Z" fill="white" fill-opacity="0.4"/>
<path d="M432.069 151.5C432.263 151.5 432.443 151.603 432.542 151.77L434.598 155.252L436.66 151.768C436.758 151.602 436.936 151.5 437.129 151.5C437.555 151.5 437.816 151.966 437.594 152.33L435.16 156.312V157.935C435.16 158.247 434.907 158.5 434.595 158.5C434.282 158.5 434.029 158.247 434.029 157.935V156.312L431.599 152.337C431.375 151.97 431.639 151.5 432.069 151.5Z" fill="#585858"/>
<rect x="281" y="151" width="50" height="9" rx="4.5" fill="#585858"/>
<rect x="364" y="169" width="57" height="17" rx="2" fill="#2A2A2A"/>
<rect x="369" y="174" width="40" height="7" rx="3.5" fill="white" fill-opacity="0.4"/>
<path d="M352.153 174C352.315 174 352.468 174.075 352.567 174.203L354.5 176.683L356.433 174.203C356.532 174.075 356.685 174 356.847 174C357.287 174 357.532 174.507 357.259 174.852L355.187 177.466L357.316 180.141C357.592 180.488 357.345 181 356.902 181C356.739 181 356.585 180.925 356.485 180.797L354.5 178.264L352.515 180.797C352.414 180.925 352.261 181 352.098 181C351.655 181 351.408 180.488 351.684 180.141L353.813 177.466L351.741 174.852C351.468 174.507 351.713 174 352.153 174Z" fill="#585858"/>
<path d="M444 170.5C444 169.395 444.895 168.5 446 168.5H499C500.104 168.5 501 169.395 501 170.5V183.5C501 184.605 500.104 185.5 499 185.5H446C444.895 185.5 444 184.605 444 183.5V170.5Z" fill="#2A2A2A"/>
<path d="M449 177C449 175.067 450.567 173.5 452.5 173.5H467.5C469.433 173.5 471 175.067 471 177C471 178.933 469.433 180.5 467.5 180.5H452.5C450.567 180.5 449 178.933 449 177Z" fill="white" fill-opacity="0.4"/>
<path d="M432.069 173.5C432.263 173.5 432.443 173.603 432.542 173.77L434.598 177.252L436.66 173.768C436.758 173.602 436.936 173.5 437.129 173.5C437.555 173.5 437.816 173.966 437.594 174.33L435.16 178.312V179.935C435.16 180.247 434.907 180.5 434.595 180.5C434.282 180.5 434.029 180.247 434.029 179.935V178.312L431.599 174.337C431.375 173.97 431.639 173.5 432.069 173.5Z" fill="#585858"/>
<rect x="281" y="173" width="50" height="9" rx="4.5" fill="#585858"/>
<path d="M301.884 102.969V111.5H300.279V102.969H301.884ZM304.532 102.969V104.24H297.659V102.969H304.532ZM306.624 106.455V111.5H305.077V105.16H306.542L306.624 106.455ZM308.552 105.119L308.529 106.561C308.443 106.545 308.345 106.533 308.236 106.525C308.13 106.518 308.03 106.514 307.937 106.514C307.698 106.514 307.489 106.547 307.31 106.613C307.13 106.676 306.98 106.768 306.859 106.889C306.741 107.01 306.652 107.158 306.589 107.334C306.527 107.506 306.491 107.701 306.484 107.92L306.15 107.879C306.15 107.477 306.191 107.104 306.273 106.76C306.355 106.416 306.474 106.115 306.63 105.857C306.786 105.6 306.982 105.4 307.216 105.26C307.454 105.115 307.728 105.043 308.036 105.043C308.122 105.043 308.214 105.051 308.312 105.066C308.413 105.078 308.493 105.096 308.552 105.119ZM312.695 110.152V107.229C312.695 107.014 312.657 106.828 312.583 106.672C312.509 106.516 312.396 106.395 312.243 106.309C312.091 106.223 311.898 106.18 311.663 106.18C311.456 106.18 311.275 106.215 311.118 106.285C310.966 106.355 310.849 106.455 310.767 106.584C310.685 106.709 310.644 106.854 310.644 107.018H309.091C309.091 106.756 309.154 106.508 309.279 106.273C309.404 106.035 309.581 105.824 309.812 105.641C310.046 105.453 310.325 105.307 310.65 105.201C310.978 105.096 311.345 105.043 311.751 105.043C312.232 105.043 312.659 105.125 313.034 105.289C313.413 105.449 313.71 105.691 313.925 106.016C314.144 106.34 314.253 106.748 314.253 107.24V110.006C314.253 110.322 314.273 110.594 314.312 110.82C314.355 111.043 314.417 111.236 314.499 111.4V111.5H312.923C312.849 111.34 312.792 111.137 312.753 110.891C312.714 110.641 312.695 110.395 312.695 110.152ZM312.911 107.639L312.923 108.559H311.945C311.702 108.559 311.489 108.584 311.306 108.635C311.122 108.682 310.972 108.752 310.855 108.846C310.737 108.936 310.65 109.045 310.591 109.174C310.532 109.299 310.503 109.441 310.503 109.602C310.503 109.758 310.538 109.898 310.609 110.023C310.683 110.148 310.788 110.248 310.925 110.322C311.066 110.393 311.23 110.428 311.417 110.428C311.691 110.428 311.929 110.373 312.132 110.264C312.335 110.15 312.493 110.014 312.607 109.854C312.72 109.693 312.78 109.541 312.788 109.396L313.234 110.064C313.179 110.225 313.097 110.395 312.987 110.574C312.878 110.754 312.737 110.922 312.566 111.078C312.394 111.234 312.187 111.363 311.945 111.465C311.702 111.566 311.421 111.617 311.101 111.617C310.691 111.617 310.323 111.535 309.999 111.371C309.675 111.207 309.419 110.982 309.232 110.697C309.044 110.412 308.95 110.088 308.95 109.725C308.95 109.389 309.013 109.092 309.138 108.834C309.263 108.576 309.448 108.359 309.695 108.184C309.941 108.004 310.245 107.869 310.609 107.779C310.976 107.686 311.396 107.639 311.868 107.639H312.911ZM317.165 106.514V111.5H315.618V105.16H317.071L317.165 106.514ZM316.919 108.102H316.462C316.466 107.641 316.529 107.223 316.65 106.848C316.771 106.473 316.941 106.15 317.159 105.881C317.382 105.611 317.646 105.404 317.95 105.26C318.255 105.115 318.595 105.043 318.97 105.043C319.275 105.043 319.55 105.086 319.796 105.172C320.042 105.258 320.253 105.395 320.429 105.582C320.609 105.77 320.745 106.016 320.839 106.32C320.937 106.621 320.986 106.992 320.986 107.434V111.5H319.427V107.422C319.427 107.133 319.384 106.904 319.298 106.736C319.216 106.568 319.095 106.449 318.935 106.379C318.779 106.309 318.585 106.273 318.355 106.273C318.116 106.273 317.907 106.322 317.728 106.42C317.552 106.514 317.404 106.645 317.282 106.812C317.165 106.98 317.075 107.174 317.013 107.393C316.95 107.611 316.919 107.848 316.919 108.102ZM325.837 109.766C325.837 109.633 325.802 109.514 325.732 109.408C325.661 109.303 325.529 109.207 325.333 109.121C325.142 109.031 324.861 108.947 324.489 108.869C324.161 108.799 323.859 108.711 323.581 108.605C323.304 108.5 323.066 108.373 322.866 108.225C322.667 108.072 322.511 107.895 322.398 107.691C322.288 107.484 322.234 107.246 322.234 106.977C322.234 106.715 322.29 106.469 322.404 106.238C322.517 106.004 322.681 105.799 322.896 105.623C323.111 105.443 323.372 105.303 323.681 105.201C323.989 105.096 324.337 105.043 324.724 105.043C325.263 105.043 325.726 105.131 326.112 105.307C326.503 105.482 326.802 105.725 327.009 106.033C327.216 106.338 327.32 106.682 327.32 107.064H325.773C325.773 106.896 325.734 106.744 325.655 106.607C325.581 106.471 325.466 106.361 325.31 106.279C325.154 106.193 324.956 106.15 324.718 106.15C324.503 106.15 324.321 106.186 324.173 106.256C324.029 106.326 323.919 106.418 323.845 106.531C323.771 106.645 323.734 106.77 323.734 106.906C323.734 107.008 323.753 107.1 323.792 107.182C323.835 107.26 323.904 107.332 323.997 107.398C324.091 107.465 324.218 107.525 324.378 107.58C324.542 107.635 324.743 107.688 324.982 107.738C325.454 107.832 325.866 107.957 326.218 108.113C326.573 108.266 326.851 108.469 327.05 108.723C327.249 108.977 327.349 109.301 327.349 109.695C327.349 109.977 327.288 110.234 327.167 110.469C327.046 110.699 326.87 110.9 326.64 111.072C326.409 111.244 326.134 111.379 325.814 111.477C325.493 111.57 325.132 111.617 324.73 111.617C324.148 111.617 323.655 111.514 323.253 111.307C322.851 111.096 322.546 110.83 322.339 110.51C322.132 110.186 322.029 109.85 322.029 109.502H323.511C323.523 109.748 323.589 109.945 323.71 110.094C323.831 110.242 323.984 110.35 324.167 110.416C324.355 110.479 324.552 110.51 324.759 110.51C324.993 110.51 325.191 110.479 325.351 110.416C325.511 110.35 325.632 110.262 325.714 110.152C325.796 110.039 325.837 109.91 325.837 109.766ZM330.554 111.5H328.995V104.574C328.995 104.098 329.087 103.697 329.271 103.373C329.454 103.045 329.716 102.797 330.056 102.629C330.396 102.461 330.796 102.377 331.257 102.377C331.409 102.377 331.554 102.387 331.691 102.406C331.831 102.426 331.97 102.453 332.107 102.488L332.077 103.666C332.003 103.646 331.921 103.633 331.831 103.625C331.745 103.617 331.65 103.613 331.544 103.613C331.333 103.613 331.154 103.65 331.005 103.725C330.857 103.799 330.743 103.908 330.665 104.053C330.591 104.193 330.554 104.367 330.554 104.574V111.5ZM331.837 105.16V106.273H328.04V105.16H331.837ZM332.517 108.395V108.271C332.517 107.807 332.583 107.379 332.716 106.988C332.849 106.594 333.042 106.252 333.296 105.963C333.55 105.674 333.861 105.449 334.228 105.289C334.595 105.125 335.013 105.043 335.482 105.043C335.958 105.043 336.38 105.125 336.747 105.289C337.118 105.449 337.431 105.674 337.685 105.963C337.939 106.252 338.132 106.594 338.265 106.988C338.398 107.379 338.464 107.807 338.464 108.271V108.395C338.464 108.855 338.398 109.283 338.265 109.678C338.132 110.068 337.939 110.41 337.685 110.703C337.431 110.992 337.12 111.217 336.753 111.377C336.386 111.537 335.966 111.617 335.493 111.617C335.025 111.617 334.605 111.537 334.234 111.377C333.862 111.217 333.55 110.992 333.296 110.703C333.042 110.41 332.849 110.068 332.716 109.678C332.583 109.283 332.517 108.855 332.517 108.395ZM334.064 108.271V108.395C334.064 108.672 334.091 108.932 334.146 109.174C334.2 109.416 334.284 109.629 334.398 109.812C334.511 109.996 334.657 110.141 334.837 110.246C335.021 110.348 335.239 110.398 335.493 110.398C335.743 110.398 335.958 110.348 336.138 110.246C336.318 110.141 336.464 109.996 336.577 109.812C336.695 109.629 336.78 109.416 336.835 109.174C336.89 108.932 336.917 108.672 336.917 108.395V108.271C336.917 107.998 336.89 107.742 336.835 107.504C336.78 107.262 336.695 107.049 336.577 106.865C336.464 106.678 336.316 106.531 336.132 106.426C335.952 106.316 335.736 106.262 335.482 106.262C335.232 106.262 335.017 106.316 334.837 106.426C334.657 106.531 334.511 106.678 334.398 106.865C334.284 107.049 334.2 107.262 334.146 107.504C334.091 107.742 334.064 107.998 334.064 108.271ZM341.136 106.455V111.5H339.589V105.16H341.054L341.136 106.455ZM343.064 105.119L343.04 106.561C342.954 106.545 342.857 106.533 342.747 106.525C342.642 106.518 342.542 106.514 342.448 106.514C342.21 106.514 342.001 106.547 341.821 106.613C341.642 106.676 341.491 106.768 341.37 106.889C341.253 107.01 341.163 107.158 341.101 107.334C341.038 107.506 341.003 107.701 340.995 107.92L340.661 107.879C340.661 107.477 340.702 107.104 340.784 106.76C340.866 106.416 340.986 106.115 341.142 105.857C341.298 105.6 341.493 105.4 341.728 105.26C341.966 105.115 342.239 105.043 342.548 105.043C342.634 105.043 342.726 105.051 342.823 105.066C342.925 105.078 343.005 105.096 343.064 105.119ZM345.454 106.461V111.5H343.907V105.16H345.366L345.454 106.461ZM345.226 108.102H344.751C344.751 107.66 344.804 107.254 344.909 106.883C345.019 106.512 345.179 106.189 345.39 105.916C345.601 105.639 345.861 105.424 346.169 105.271C346.482 105.119 346.843 105.043 347.253 105.043C347.538 105.043 347.8 105.086 348.038 105.172C348.277 105.254 348.482 105.385 348.654 105.564C348.829 105.74 348.964 105.971 349.058 106.256C349.152 106.537 349.198 106.875 349.198 107.27V111.5H347.652V107.428C347.652 107.131 347.609 106.898 347.523 106.73C347.441 106.562 347.321 106.445 347.165 106.379C347.009 106.309 346.821 106.273 346.603 106.273C346.361 106.273 346.152 106.322 345.976 106.42C345.804 106.514 345.661 106.645 345.548 106.812C345.439 106.98 345.357 107.174 345.302 107.393C345.251 107.611 345.226 107.848 345.226 108.102ZM349.081 107.814L348.443 107.932C348.446 107.533 348.501 107.16 348.607 106.812C348.712 106.461 348.866 106.154 349.07 105.893C349.277 105.627 349.532 105.42 349.837 105.271C350.146 105.119 350.501 105.043 350.904 105.043C351.216 105.043 351.497 105.088 351.747 105.178C352.001 105.264 352.218 105.402 352.398 105.594C352.577 105.781 352.714 106.025 352.808 106.326C352.905 106.627 352.954 106.994 352.954 107.428V111.5H351.396V107.422C351.396 107.113 351.353 106.877 351.267 106.713C351.185 106.549 351.066 106.436 350.909 106.373C350.753 106.307 350.57 106.273 350.359 106.273C350.144 106.273 349.956 106.314 349.796 106.396C349.64 106.475 349.507 106.584 349.398 106.725C349.292 106.865 349.212 107.029 349.157 107.217C349.107 107.4 349.081 107.6 349.081 107.814Z" fill="white" fill-opacity="0.8"/>
<path d="M285.663 102.5H287.663V108L286.663 108.5L285.663 108V102.5Z" fill="#2BDE21"/>
<path d="M292.407 110.543L291.407 112.275L286.663 109.5L286.663 108.5L287.663 108L292.407 110.543Z" fill="#E04A4A"/>
<path d="M282.049 112.509L281.049 110.777L285.663 108L286.663 108.5L286.663 109.5L282.049 112.509Z" fill="#4A86E0"/>
<path d="M305.279 215.285C305.279 215.121 305.254 214.975 305.203 214.846C305.156 214.713 305.068 214.594 304.939 214.488C304.814 214.379 304.637 214.273 304.406 214.172C304.18 214.066 303.887 213.957 303.527 213.844C303.129 213.719 302.758 213.578 302.414 213.422C302.07 213.266 301.767 213.084 301.506 212.877C301.248 212.67 301.047 212.432 300.902 212.162C300.758 211.889 300.685 211.572 300.685 211.213C300.685 210.861 300.76 210.541 300.908 210.252C301.06 209.963 301.275 209.715 301.553 209.508C301.83 209.297 302.156 209.135 302.531 209.021C302.91 208.908 303.328 208.852 303.785 208.852C304.418 208.852 304.965 208.967 305.426 209.197C305.891 209.428 306.25 209.74 306.504 210.135C306.758 210.529 306.885 210.973 306.885 211.465H305.279C305.279 211.199 305.223 210.965 305.109 210.762C305 210.559 304.832 210.398 304.605 210.281C304.383 210.164 304.101 210.105 303.762 210.105C303.433 210.105 303.16 210.154 302.941 210.252C302.726 210.35 302.564 210.482 302.455 210.65C302.349 210.818 302.297 211.006 302.297 211.213C302.297 211.369 302.334 211.51 302.408 211.635C302.482 211.756 302.594 211.871 302.742 211.98C302.891 212.086 303.074 212.186 303.293 212.279C303.516 212.369 303.773 212.459 304.066 212.549C304.535 212.689 304.945 212.846 305.297 213.018C305.652 213.189 305.947 213.385 306.182 213.604C306.42 213.822 306.598 214.068 306.715 214.342C306.836 214.615 306.896 214.926 306.896 215.273C306.896 215.641 306.824 215.969 306.68 216.258C306.535 216.547 306.328 216.793 306.058 216.996C305.789 217.199 305.465 217.354 305.086 217.459C304.711 217.564 304.291 217.617 303.826 217.617C303.412 217.617 303.002 217.562 302.596 217.453C302.193 217.34 301.828 217.172 301.5 216.949C301.172 216.723 300.91 216.438 300.715 216.094C300.519 215.746 300.422 215.34 300.422 214.875H302.039C302.039 215.145 302.082 215.375 302.168 215.566C302.258 215.754 302.383 215.908 302.543 216.029C302.707 216.146 302.898 216.232 303.117 216.287C303.336 216.342 303.572 216.369 303.826 216.369C304.154 216.369 304.424 216.324 304.635 216.234C304.849 216.141 305.01 216.012 305.115 215.848C305.224 215.684 305.279 215.496 305.279 215.285ZM309.568 212.379V219.938H308.016V211.16H309.451L309.568 212.379ZM313.641 214.266V214.389C313.641 214.85 313.586 215.277 313.476 215.672C313.371 216.062 313.215 216.404 313.008 216.697C312.801 216.986 312.543 217.213 312.234 217.377C311.93 217.537 311.578 217.617 311.18 217.617C310.789 217.617 310.449 217.543 310.16 217.395C309.871 217.242 309.627 217.027 309.428 216.75C309.228 216.473 309.068 216.15 308.947 215.783C308.83 215.412 308.742 215.008 308.683 214.57V214.178C308.742 213.713 308.83 213.291 308.947 212.912C309.068 212.529 309.228 212.199 309.428 211.922C309.627 211.641 309.869 211.424 310.154 211.271C310.443 211.119 310.781 211.043 311.168 211.043C311.57 211.043 311.924 211.119 312.228 211.271C312.537 211.424 312.797 211.643 313.008 211.928C313.219 212.213 313.377 212.553 313.482 212.947C313.588 213.342 313.641 213.781 313.641 214.266ZM312.088 214.389V214.266C312.088 213.984 312.062 213.725 312.012 213.486C311.961 213.244 311.883 213.033 311.777 212.854C311.672 212.67 311.535 212.527 311.367 212.426C311.199 212.324 310.996 212.273 310.758 212.273C310.519 212.273 310.314 212.312 310.142 212.391C309.971 212.469 309.83 212.58 309.721 212.725C309.611 212.869 309.525 213.041 309.463 213.24C309.404 213.436 309.365 213.652 309.346 213.891V214.863C309.381 215.152 309.449 215.412 309.551 215.643C309.652 215.873 309.801 216.057 309.996 216.193C310.195 216.33 310.453 216.398 310.769 216.398C311.008 216.398 311.211 216.346 311.379 216.24C311.547 216.135 311.683 215.99 311.789 215.807C311.894 215.619 311.971 215.404 312.017 215.162C312.064 214.92 312.088 214.662 312.088 214.389ZM316.318 212.455V217.5H314.771V211.16H316.236L316.318 212.455ZM318.246 211.119L318.223 212.561C318.137 212.545 318.039 212.533 317.93 212.525C317.824 212.518 317.724 212.514 317.631 212.514C317.392 212.514 317.183 212.547 317.004 212.613C316.824 212.676 316.674 212.768 316.553 212.889C316.435 213.01 316.346 213.158 316.283 213.334C316.221 213.506 316.185 213.701 316.178 213.92L315.844 213.879C315.844 213.477 315.885 213.104 315.967 212.76C316.049 212.416 316.168 212.115 316.324 211.857C316.48 211.6 316.676 211.4 316.91 211.26C317.148 211.115 317.422 211.043 317.73 211.043C317.816 211.043 317.908 211.051 318.006 211.066C318.107 211.078 318.187 211.096 318.246 211.119ZM320.736 211.16V217.5H319.183V211.16H320.736ZM319.078 209.502C319.078 209.271 319.156 209.08 319.312 208.928C319.473 208.775 319.687 208.699 319.957 208.699C320.226 208.699 320.439 208.775 320.596 208.928C320.756 209.08 320.836 209.271 320.836 209.502C320.836 209.729 320.756 209.918 320.596 210.07C320.439 210.223 320.226 210.299 319.957 210.299C319.687 210.299 319.473 210.223 319.312 210.07C319.156 209.918 319.078 209.729 319.078 209.502ZM325.213 211.16V212.273H321.58V211.16H325.213ZM322.553 209.602H324.105V215.672C324.105 215.859 324.131 216.004 324.182 216.105C324.232 216.207 324.308 216.275 324.41 216.311C324.512 216.346 324.633 216.363 324.773 216.363C324.875 216.363 324.969 216.357 325.055 216.346C325.141 216.334 325.213 216.322 325.271 216.311L325.277 217.471C325.148 217.514 325.002 217.549 324.838 217.576C324.678 217.604 324.496 217.617 324.293 217.617C323.945 217.617 323.641 217.559 323.379 217.441C323.117 217.32 322.914 217.127 322.769 216.861C322.625 216.592 322.553 216.236 322.553 215.795V209.602ZM329.092 217.617C328.611 217.617 328.18 217.539 327.797 217.383C327.414 217.227 327.088 217.01 326.818 216.732C326.553 216.451 326.348 216.125 326.203 215.754C326.062 215.379 325.992 214.977 325.992 214.547V214.312C325.992 213.824 326.062 213.381 326.203 212.982C326.344 212.58 326.543 212.234 326.801 211.945C327.058 211.656 327.367 211.434 327.726 211.277C328.086 211.121 328.482 211.043 328.916 211.043C329.365 211.043 329.762 211.119 330.105 211.271C330.449 211.42 330.736 211.631 330.967 211.904C331.197 212.178 331.371 212.506 331.488 212.889C331.605 213.268 331.664 213.688 331.664 214.148V214.799H326.695V213.732H330.141V213.615C330.133 213.369 330.086 213.145 330 212.941C329.914 212.734 329.781 212.57 329.601 212.449C329.422 212.324 329.189 212.262 328.904 212.262C328.674 212.262 328.473 212.312 328.301 212.414C328.133 212.512 327.992 212.652 327.879 212.836C327.769 213.016 327.687 213.23 327.633 213.48C327.578 213.73 327.551 214.008 327.551 214.312V214.547C327.551 214.812 327.586 215.059 327.656 215.285C327.73 215.512 327.838 215.709 327.978 215.877C328.123 216.041 328.295 216.17 328.494 216.264C328.697 216.354 328.928 216.398 329.185 216.398C329.51 216.398 329.803 216.336 330.064 216.211C330.33 216.082 330.56 215.893 330.756 215.643L331.535 216.451C331.402 216.646 331.223 216.834 330.996 217.014C330.773 217.193 330.504 217.34 330.187 217.453C329.871 217.562 329.506 217.617 329.092 217.617ZM335.807 208.969H338.906C339.555 208.969 340.111 209.066 340.576 209.262C341.041 209.457 341.398 209.746 341.648 210.129C341.898 210.512 342.023 210.982 342.023 211.541C342.023 211.982 341.945 212.365 341.789 212.689C341.633 213.014 341.412 213.285 341.127 213.504C340.846 213.723 340.514 213.895 340.131 214.02L339.627 214.277H336.891L336.879 213.006H338.924C339.256 213.006 339.531 212.947 339.75 212.83C339.969 212.713 340.133 212.551 340.242 212.344C340.355 212.137 340.412 211.9 340.412 211.635C340.412 211.35 340.357 211.104 340.248 210.896C340.139 210.686 339.973 210.523 339.75 210.41C339.527 210.297 339.246 210.24 338.906 210.24H337.418V217.5H335.807V208.969ZM340.623 217.5L338.648 213.68L340.353 213.674L342.351 217.418V217.5H340.623ZM346.166 217.617C345.685 217.617 345.254 217.539 344.871 217.383C344.488 217.227 344.162 217.01 343.892 216.732C343.627 216.451 343.422 216.125 343.277 215.754C343.137 215.379 343.066 214.977 343.066 214.547V214.312C343.066 213.824 343.137 213.381 343.277 212.982C343.418 212.58 343.617 212.234 343.875 211.945C344.133 211.656 344.441 211.434 344.801 211.277C345.16 211.121 345.557 211.043 345.99 211.043C346.439 211.043 346.836 211.119 347.18 211.271C347.523 211.42 347.81 211.631 348.041 211.904C348.271 212.178 348.445 212.506 348.562 212.889C348.68 213.268 348.738 213.688 348.738 214.148V214.799H343.769V213.732H347.215V213.615C347.207 213.369 347.16 213.145 347.074 212.941C346.988 212.734 346.855 212.57 346.676 212.449C346.496 212.324 346.264 212.262 345.978 212.262C345.748 212.262 345.547 212.312 345.375 212.414C345.207 212.512 345.066 212.652 344.953 212.836C344.844 213.016 344.762 213.23 344.707 213.48C344.652 213.73 344.625 214.008 344.625 214.312V214.547C344.625 214.812 344.66 215.059 344.73 215.285C344.805 215.512 344.912 215.709 345.053 215.877C345.197 216.041 345.369 216.17 345.568 216.264C345.771 216.354 346.002 216.398 346.26 216.398C346.584 216.398 346.877 216.336 347.139 216.211C347.404 216.082 347.635 215.893 347.83 215.643L348.609 216.451C348.476 216.646 348.297 216.834 348.07 217.014C347.848 217.193 347.578 217.34 347.262 217.453C346.945 217.562 346.58 217.617 346.166 217.617ZM351.293 212.514V217.5H349.746V211.16H351.199L351.293 212.514ZM351.047 214.102H350.59C350.594 213.641 350.656 213.223 350.777 212.848C350.898 212.473 351.068 212.15 351.287 211.881C351.51 211.611 351.773 211.404 352.078 211.26C352.383 211.115 352.723 211.043 353.098 211.043C353.402 211.043 353.678 211.086 353.924 211.172C354.17 211.258 354.381 211.395 354.557 211.582C354.736 211.77 354.873 212.016 354.967 212.32C355.064 212.621 355.113 212.992 355.113 213.434V217.5H353.555V213.422C353.555 213.133 353.512 212.904 353.426 212.736C353.344 212.568 353.223 212.449 353.062 212.379C352.906 212.309 352.713 212.273 352.482 212.273C352.244 212.273 352.035 212.322 351.855 212.42C351.68 212.514 351.531 212.645 351.41 212.812C351.293 212.98 351.203 213.174 351.141 213.393C351.078 213.611 351.047 213.848 351.047 214.102ZM360.281 216.152V208.5H361.84V217.5H360.433L360.281 216.152ZM356.209 214.406V214.283C356.209 213.799 356.264 213.359 356.373 212.965C356.486 212.566 356.65 212.225 356.865 211.939C357.08 211.654 357.34 211.434 357.644 211.277C357.953 211.121 358.303 211.043 358.693 211.043C359.072 211.043 359.402 211.119 359.683 211.271C359.969 211.424 360.211 211.641 360.41 211.922C360.613 212.203 360.775 212.537 360.896 212.924C361.017 213.307 361.105 213.729 361.16 214.189V214.523C361.105 214.973 361.017 215.385 360.896 215.76C360.775 216.135 360.613 216.463 360.41 216.744C360.211 217.021 359.969 217.236 359.683 217.389C359.398 217.541 359.064 217.617 358.682 217.617C358.295 217.617 357.947 217.537 357.639 217.377C357.334 217.217 357.074 216.992 356.859 216.703C356.648 216.414 356.486 216.074 356.373 215.684C356.264 215.293 356.209 214.867 356.209 214.406ZM357.762 214.283V214.406C357.762 214.68 357.785 214.936 357.832 215.174C357.879 215.412 357.955 215.623 358.06 215.807C358.166 215.986 358.301 216.127 358.465 216.229C358.633 216.33 358.836 216.381 359.074 216.381C359.379 216.381 359.629 216.314 359.824 216.182C360.023 216.045 360.178 215.859 360.287 215.625C360.396 215.387 360.467 215.119 360.498 214.822V213.902C360.482 213.668 360.441 213.451 360.375 213.252C360.312 213.053 360.223 212.881 360.105 212.736C359.992 212.592 359.851 212.479 359.683 212.396C359.516 212.314 359.316 212.273 359.086 212.273C358.848 212.273 358.644 212.326 358.476 212.432C358.308 212.533 358.172 212.676 358.066 212.859C357.961 213.043 357.883 213.256 357.832 213.498C357.785 213.74 357.762 214.002 357.762 214.283ZM366.088 217.617C365.607 217.617 365.176 217.539 364.793 217.383C364.41 217.227 364.084 217.01 363.814 216.732C363.549 216.451 363.344 216.125 363.199 215.754C363.058 215.379 362.988 214.977 362.988 214.547V214.312C362.988 213.824 363.058 213.381 363.199 212.982C363.34 212.58 363.539 212.234 363.797 211.945C364.055 211.656 364.363 211.434 364.723 211.277C365.082 211.121 365.478 211.043 365.912 211.043C366.361 211.043 366.758 211.119 367.101 211.271C367.445 211.42 367.732 211.631 367.963 211.904C368.193 212.178 368.367 212.506 368.484 212.889C368.601 213.268 368.66 213.688 368.66 214.148V214.799H363.691V213.732H367.137V213.615C367.129 213.369 367.082 213.145 366.996 212.941C366.91 212.734 366.777 212.57 366.598 212.449C366.418 212.324 366.185 212.262 365.9 212.262C365.67 212.262 365.469 212.312 365.297 212.414C365.129 212.512 364.988 212.652 364.875 212.836C364.766 213.016 364.683 213.23 364.629 213.48C364.574 213.73 364.547 214.008 364.547 214.312V214.547C364.547 214.812 364.582 215.059 364.652 215.285C364.726 215.512 364.834 215.709 364.974 215.877C365.119 216.041 365.291 216.17 365.49 216.264C365.693 216.354 365.924 216.398 366.182 216.398C366.506 216.398 366.799 216.336 367.06 216.211C367.326 216.082 367.557 215.893 367.752 215.643L368.531 216.451C368.398 216.646 368.219 216.834 367.992 217.014C367.769 217.193 367.5 217.34 367.183 217.453C366.867 217.562 366.502 217.617 366.088 217.617ZM371.244 212.455V217.5H369.697V211.16H371.162L371.244 212.455ZM373.172 211.119L373.148 212.561C373.062 212.545 372.965 212.533 372.855 212.525C372.75 212.518 372.65 212.514 372.557 212.514C372.318 212.514 372.109 212.547 371.93 212.613C371.75 212.676 371.599 212.768 371.478 212.889C371.361 213.01 371.271 213.158 371.209 213.334C371.146 213.506 371.111 213.701 371.103 213.92L370.769 213.879C370.769 213.477 370.81 213.104 370.892 212.76C370.974 212.416 371.094 212.115 371.25 211.857C371.406 211.6 371.601 211.4 371.836 211.26C372.074 211.115 372.348 211.043 372.656 211.043C372.742 211.043 372.834 211.051 372.932 211.066C373.033 211.078 373.113 211.096 373.172 211.119ZM376.752 217.617C376.271 217.617 375.84 217.539 375.457 217.383C375.074 217.227 374.748 217.01 374.478 216.732C374.213 216.451 374.008 216.125 373.863 215.754C373.723 215.379 373.652 214.977 373.652 214.547V214.312C373.652 213.824 373.723 213.381 373.863 212.982C374.004 212.58 374.203 212.234 374.461 211.945C374.719 211.656 375.027 211.434 375.387 211.277C375.746 211.121 376.142 211.043 376.576 211.043C377.025 211.043 377.422 211.119 377.766 211.271C378.109 211.42 378.396 211.631 378.627 211.904C378.857 212.178 379.031 212.506 379.148 212.889C379.266 213.268 379.324 213.688 379.324 214.148V214.799H374.355V213.732H377.801V213.615C377.793 213.369 377.746 213.145 377.66 212.941C377.574 212.734 377.441 212.57 377.262 212.449C377.082 212.324 376.849 212.262 376.564 212.262C376.334 212.262 376.133 212.312 375.961 212.414C375.793 212.512 375.652 212.652 375.539 212.836C375.43 213.016 375.348 213.23 375.293 213.48C375.238 213.73 375.211 214.008 375.211 214.312V214.547C375.211 214.812 375.246 215.059 375.316 215.285C375.391 215.512 375.498 215.709 375.639 215.877C375.783 216.041 375.955 216.17 376.154 216.264C376.357 216.354 376.588 216.398 376.846 216.398C377.17 216.398 377.463 216.336 377.724 216.211C377.99 216.082 378.221 215.893 378.416 215.643L379.195 216.451C379.062 216.646 378.883 216.834 378.656 217.014C378.433 217.193 378.164 217.34 377.848 217.453C377.531 217.562 377.166 217.617 376.752 217.617ZM381.908 212.455V217.5H380.361V211.16H381.826L381.908 212.455ZM383.836 211.119L383.812 212.561C383.726 212.545 383.629 212.533 383.519 212.525C383.414 212.518 383.314 212.514 383.221 212.514C382.982 212.514 382.773 212.547 382.594 212.613C382.414 212.676 382.264 212.768 382.142 212.889C382.025 213.01 381.935 213.158 381.873 213.334C381.81 213.506 381.775 213.701 381.767 213.92L381.433 213.879C381.433 213.477 381.474 213.104 381.557 212.76C381.639 212.416 381.758 212.115 381.914 211.857C382.07 211.6 382.266 211.4 382.5 211.26C382.738 211.115 383.012 211.043 383.32 211.043C383.406 211.043 383.498 211.051 383.596 211.066C383.697 211.078 383.777 211.096 383.836 211.119Z" fill="white" fill-opacity="0.8"/>
<rect x="281" y="206.5" width="14" height="14" rx="2" fill="#2A2A2A"/>
<path d="M285 214.247L286.093 215.569C286.493 216.052 287.234 216.052 287.634 215.569L291 211.5" stroke="white" stroke-opacity="0.4" stroke-width="1.5" stroke-linecap="round"/>
<path d="M351 375C351 373.895 351.895 373 353 373H499C500.104 373 501 373.895 501 375V388C501 389.105 500.104 390 499 390H353C351.895 390 351 389.105 351 388V375Z" fill="#2A2A2A"/>
<rect x="356" y="377.5" width="58" height="7" rx="3.5" fill="white" fill-opacity="0.4"/>
<rect x="281" y="377" width="50" height="9" rx="4.5" fill="#585858"/>
<path d="M351 397C351 395.895 351.895 395 353 395H499C500.104 395 501 395.895 501 397V410C501 411.105 500.104 412 499 412H353C351.895 412 351 411.105 351 410V397Z" fill="#515151"/>
<rect x="281" y="399" width="50" height="9" rx="4.5" fill="#585858"/>
<path d="M351 353C351 351.895 351.895 351 353 351H499C500.104 351 501 351.895 501 353V366C501 367.105 500.104 368 499 368H353C351.895 368 351 367.105 351 366V353Z" fill="#515151"/>
<rect x="281" y="355" width="50" height="9" rx="4.5" fill="#585858"/>
<path d="M351 233C351 231.895 351.895 231 353 231H499C500.104 231 501 231.895 501 233V246C501 247.105 500.104 248 499 248H353C351.895 248 351 247.105 351 246V233Z" fill="#2A2A2A"/>
<rect x="356" y="235.5" width="24" height="7" rx="3.5" fill="white" fill-opacity="0.4"/>
<rect x="384" y="235.5" width="59" height="7" rx="3.5" fill="white" fill-opacity="0.4"/>
<rect x="281" y="235" width="50" height="9" rx="4.5" fill="#585858"/>
<path d="M351 299C351 297.895 351.895 297 353 297H499C500.104 297 501 297.895 501 299V312C501 313.105 500.104 314 499 314H353C351.895 314 351 313.105 351 312V299Z" fill="#2A2A2A"/>
<rect x="356" y="301.5" width="53" height="7" rx="3.5" fill="white" fill-opacity="0.4"/>
<rect x="414" y="301.5" width="49" height="7" rx="3.5" fill="white" fill-opacity="0.4"/>
<rect x="281" y="301" width="50" height="9" rx="4.5" fill="#585858"/>
<path d="M351 255C351 253.895 351.895 253 353 253H499C500.104 253 501 253.895 501 255V268C501 269.105 500.104 270 499 270H353C351.895 270 351 269.105 351 268V255Z" fill="#2A2A2A"/>
<rect x="281" y="257" width="50" height="9" rx="4.5" fill="#585858"/>
<path d="M351 321C351 319.895 351.895 319 353 319H499C500.104 319 501 319.895 501 321V334C501 335.105 500.104 336 499 336H353C351.895 336 351 335.105 351 334V321Z" fill="#515151"/>
<rect x="281" y="323" width="50" height="9" rx="4.5" fill="#585858"/>
<rect x="363" y="274.5" width="17" height="17" rx="2" fill="#2A2A2A"/>
<rect x="368" y="279.5" width="7" height="7" rx="3.5" fill="white" fill-opacity="0.4"/>
<path d="M352.153 279.5C352.315 279.5 352.468 279.575 352.567 279.703L354.5 282.183L356.433 279.703C356.532 279.575 356.685 279.5 356.847 279.5C357.287 279.5 357.532 280.007 357.259 280.352L355.187 282.966L357.316 285.641C357.592 285.988 357.345 286.5 356.902 286.5C356.739 286.5 356.585 286.425 356.485 286.297L354.5 283.764L352.515 286.297C352.414 286.425 352.261 286.5 352.098 286.5C351.655 286.5 351.408 285.988 351.684 285.641L353.813 282.966L351.741 280.352C351.468 280.007 351.713 279.5 352.153 279.5Z" fill="#585858"/>
<path d="M403 276.5C403 275.395 403.895 274.5 405 274.5H418C419.104 274.5 420 275.395 420 276.5V289.5C420 290.605 419.104 291.5 418 291.5H405C403.895 291.5 403 290.605 403 289.5V276.5Z" fill="#2A2A2A"/>
<path d="M391.981 279.5C392.175 279.5 392.356 279.603 392.454 279.77L394.51 283.252L396.572 279.768C396.67 279.602 396.849 279.5 397.041 279.5C397.467 279.5 397.729 279.966 397.506 280.33L395.072 284.312V285.935C395.072 286.247 394.819 286.5 394.507 286.5C394.194 286.5 393.941 286.247 393.941 285.935V284.312L391.511 280.337C391.287 279.97 391.551 279.5 391.981 279.5Z" fill="#585858"/>
<rect x="281" y="278" width="50" height="9" rx="4.5" fill="#585858"/>
<path d="M300.507 436.264L298.075 443.5H296.37L299.558 434.969H300.648L300.507 436.264ZM302.54 443.5L300.097 436.264L299.95 434.969H301.046L304.251 443.5H302.54ZM302.429 440.33V441.602H297.853V440.33H302.429ZM306.378 438.514V443.5H304.831V437.16H306.284L306.378 438.514ZM306.132 440.102H305.675C305.679 439.641 305.741 439.223 305.862 438.848C305.984 438.473 306.154 438.15 306.372 437.881C306.595 437.611 306.859 437.404 307.163 437.26C307.468 437.115 307.808 437.043 308.183 437.043C308.487 437.043 308.763 437.086 309.009 437.172C309.255 437.258 309.466 437.395 309.642 437.582C309.821 437.77 309.958 438.016 310.052 438.32C310.15 438.621 310.198 438.992 310.198 439.434V443.5H308.64V439.422C308.64 439.133 308.597 438.904 308.511 438.736C308.429 438.568 308.308 438.449 308.148 438.379C307.991 438.309 307.798 438.273 307.568 438.273C307.329 438.273 307.12 438.322 306.941 438.42C306.765 438.514 306.616 438.645 306.495 438.812C306.378 438.98 306.288 439.174 306.226 439.393C306.163 439.611 306.132 439.848 306.132 440.102ZM313.204 437.16V443.5H311.652V437.16H313.204ZM311.546 435.502C311.546 435.271 311.624 435.08 311.78 434.928C311.941 434.775 312.155 434.699 312.425 434.699C312.695 434.699 312.907 434.775 313.064 434.928C313.224 435.08 313.304 435.271 313.304 435.502C313.304 435.729 313.224 435.918 313.064 436.07C312.907 436.223 312.695 436.299 312.425 436.299C312.155 436.299 311.941 436.223 311.78 436.07C311.624 435.918 311.546 435.729 311.546 435.502ZM316.222 438.461V443.5H314.675V437.16H316.134L316.222 438.461ZM315.993 440.102H315.519C315.519 439.66 315.571 439.254 315.677 438.883C315.786 438.512 315.946 438.189 316.157 437.916C316.368 437.639 316.628 437.424 316.937 437.271C317.249 437.119 317.611 437.043 318.021 437.043C318.306 437.043 318.568 437.086 318.806 437.172C319.044 437.254 319.249 437.385 319.421 437.564C319.597 437.74 319.732 437.971 319.825 438.256C319.919 438.537 319.966 438.875 319.966 439.27V443.5H318.419V439.428C318.419 439.131 318.376 438.898 318.29 438.73C318.208 438.562 318.089 438.445 317.933 438.379C317.777 438.309 317.589 438.273 317.37 438.273C317.128 438.273 316.919 438.322 316.743 438.42C316.571 438.514 316.429 438.645 316.316 438.812C316.206 438.98 316.124 439.174 316.07 439.393C316.019 439.611 315.993 439.848 315.993 440.102ZM319.849 439.814L319.21 439.932C319.214 439.533 319.269 439.16 319.374 438.812C319.48 438.461 319.634 438.154 319.837 437.893C320.044 437.627 320.3 437.42 320.605 437.271C320.913 437.119 321.269 437.043 321.671 437.043C321.984 437.043 322.265 437.088 322.515 437.178C322.769 437.264 322.986 437.402 323.165 437.594C323.345 437.781 323.482 438.025 323.575 438.326C323.673 438.627 323.722 438.994 323.722 439.428V443.5H322.163V439.422C322.163 439.113 322.12 438.877 322.034 438.713C321.952 438.549 321.833 438.436 321.677 438.373C321.521 438.307 321.337 438.273 321.126 438.273C320.911 438.273 320.724 438.314 320.564 438.396C320.407 438.475 320.275 438.584 320.165 438.725C320.06 438.865 319.98 439.029 319.925 439.217C319.874 439.4 319.849 439.6 319.849 439.814ZM328.603 442.152V439.229C328.603 439.014 328.566 438.828 328.491 438.672C328.417 438.516 328.304 438.395 328.152 438.309C327.999 438.223 327.806 438.18 327.571 438.18C327.364 438.18 327.183 438.215 327.027 438.285C326.874 438.355 326.757 438.455 326.675 438.584C326.593 438.709 326.552 438.854 326.552 439.018H324.999C324.999 438.756 325.062 438.508 325.187 438.273C325.312 438.035 325.489 437.824 325.72 437.641C325.954 437.453 326.234 437.307 326.558 437.201C326.886 437.096 327.253 437.043 327.659 437.043C328.14 437.043 328.568 437.125 328.943 437.289C329.321 437.449 329.618 437.691 329.833 438.016C330.052 438.34 330.161 438.748 330.161 439.24V442.006C330.161 442.322 330.181 442.594 330.22 442.82C330.263 443.043 330.325 443.236 330.407 443.4V443.5H328.831C328.757 443.34 328.7 443.137 328.661 442.891C328.622 442.641 328.603 442.395 328.603 442.152ZM328.82 439.639L328.831 440.559H327.853C327.611 440.559 327.398 440.584 327.214 440.635C327.03 440.682 326.88 440.752 326.763 440.846C326.646 440.936 326.558 441.045 326.499 441.174C326.441 441.299 326.411 441.441 326.411 441.602C326.411 441.758 326.446 441.898 326.517 442.023C326.591 442.148 326.696 442.248 326.833 442.322C326.974 442.393 327.138 442.428 327.325 442.428C327.599 442.428 327.837 442.373 328.04 442.264C328.243 442.15 328.402 442.014 328.515 441.854C328.628 441.693 328.689 441.541 328.696 441.396L329.142 442.064C329.087 442.225 329.005 442.395 328.896 442.574C328.786 442.754 328.646 442.922 328.474 443.078C328.302 443.234 328.095 443.363 327.853 443.465C327.611 443.566 327.329 443.617 327.009 443.617C326.599 443.617 326.232 443.535 325.907 443.371C325.583 443.207 325.327 442.982 325.14 442.697C324.952 442.412 324.859 442.088 324.859 441.725C324.859 441.389 324.921 441.092 325.046 440.834C325.171 440.576 325.357 440.359 325.603 440.184C325.849 440.004 326.154 439.869 326.517 439.779C326.884 439.686 327.304 439.639 327.777 439.639H328.82ZM334.556 437.16V438.273H330.923V437.16H334.556ZM331.896 435.602H333.448V441.672C333.448 441.859 333.474 442.004 333.525 442.105C333.575 442.207 333.652 442.275 333.753 442.311C333.855 442.346 333.976 442.363 334.116 442.363C334.218 442.363 334.312 442.357 334.398 442.346C334.484 442.334 334.556 442.322 334.614 442.311L334.62 443.471C334.491 443.514 334.345 443.549 334.181 443.576C334.021 443.604 333.839 443.617 333.636 443.617C333.288 443.617 332.984 443.559 332.722 443.441C332.46 443.32 332.257 443.127 332.112 442.861C331.968 442.592 331.896 442.236 331.896 441.795V435.602ZM335.159 440.395V440.271C335.159 439.807 335.226 439.379 335.359 438.988C335.491 438.594 335.685 438.252 335.939 437.963C336.193 437.674 336.503 437.449 336.87 437.289C337.237 437.125 337.655 437.043 338.124 437.043C338.601 437.043 339.023 437.125 339.39 437.289C339.761 437.449 340.073 437.674 340.327 437.963C340.581 438.252 340.775 438.594 340.907 438.988C341.04 439.379 341.107 439.807 341.107 440.271V440.395C341.107 440.855 341.04 441.283 340.907 441.678C340.775 442.068 340.581 442.41 340.327 442.703C340.073 442.992 339.763 443.217 339.396 443.377C339.029 443.537 338.609 443.617 338.136 443.617C337.667 443.617 337.247 443.537 336.876 443.377C336.505 443.217 336.193 442.992 335.939 442.703C335.685 442.41 335.491 442.068 335.359 441.678C335.226 441.283 335.159 440.855 335.159 440.395ZM336.706 440.271V440.395C336.706 440.672 336.734 440.932 336.788 441.174C336.843 441.416 336.927 441.629 337.04 441.812C337.154 441.996 337.3 442.141 337.48 442.246C337.663 442.348 337.882 442.398 338.136 442.398C338.386 442.398 338.601 442.348 338.78 442.246C338.96 442.141 339.107 441.996 339.22 441.812C339.337 441.629 339.423 441.416 339.478 441.174C339.532 440.932 339.56 440.672 339.56 440.395V440.271C339.56 439.998 339.532 439.742 339.478 439.504C339.423 439.262 339.337 439.049 339.22 438.865C339.107 438.678 338.958 438.531 338.775 438.426C338.595 438.316 338.378 438.262 338.124 438.262C337.874 438.262 337.659 438.316 337.48 438.426C337.3 438.531 337.154 438.678 337.04 438.865C336.927 439.049 336.843 439.262 336.788 439.504C336.734 439.742 336.706 439.998 336.706 440.271ZM343.779 438.455V443.5H342.232V437.16H343.696L343.779 438.455ZM345.706 437.119L345.683 438.561C345.597 438.545 345.499 438.533 345.39 438.525C345.284 438.518 345.185 438.514 345.091 438.514C344.853 438.514 344.644 438.547 344.464 438.613C344.284 438.676 344.134 438.768 344.013 438.889C343.896 439.01 343.806 439.158 343.743 439.334C343.681 439.506 343.646 439.701 343.638 439.92L343.304 439.879C343.304 439.477 343.345 439.104 343.427 438.76C343.509 438.416 343.628 438.115 343.784 437.857C343.941 437.6 344.136 437.4 344.37 437.26C344.609 437.115 344.882 437.043 345.191 437.043C345.277 437.043 345.368 437.051 345.466 437.066C345.568 437.078 345.648 437.096 345.706 437.119Z" fill="white" fill-opacity="0.8"/>
<path d="M281.75 433.5C281.75 433.086 281.414 432.75 281 432.75C280.586 432.75 280.25 433.086 280.25 433.5L281.75 433.5ZM286.6 439.85H287.6V438.35H286.6V439.85ZM280.25 433.5C280.25 437.007 283.093 439.85 286.6 439.85V438.35C283.921 438.35 281.75 436.179 281.75 433.5L280.25 433.5Z" fill="#D7D7D7"/>
<path d="M281.75 444.5C281.75 444.914 281.414 445.25 281 445.25C280.586 445.25 280.25 444.914 280.25 444.5H281.75ZM286.4 438.35H287.6V439.85H286.4V438.35ZM280.25 444.5C280.25 441.103 283.004 438.35 286.4 438.35V439.85C283.832 439.85 281.75 441.932 281.75 444.5H280.25Z" fill="#D7D7D7"/>
<path d="M287.6 439.1H290.9" stroke="#D7D7D7" stroke-width="1.5"/>
<path d="M288 435.8L291.3 439.1L288 442.4" stroke="#D7D7D7" stroke-width="1.5" stroke-linecap="round"/>
<path d="M396 475.5C396 473.843 397.343 472.5 399 472.5H498C499.657 472.5 501 473.843 501 475.5V486.5C501 488.157 499.657 489.5 498 489.5H399C397.343 489.5 396 488.157 396 486.5V475.5Z" fill="#515151"/>
<rect x="404" y="477.5" width="90" height="7" rx="3.5" fill="white" fill-opacity="0.4"/>
<path d="M281 475.5C281 473.843 282.343 472.5 284 472.5H383C384.657 472.5 386 473.843 386 475.5V486.5C386 488.157 384.657 489.5 383 489.5H284C282.343 489.5 281 488.157 281 486.5V475.5Z" fill="#515151"/>
<rect x="288" y="477.5" width="90" height="7" rx="3.5" fill="white" fill-opacity="0.4"/>
<rect x="317" y="42" width="15" height="15" rx="2" fill="#2A2A2A"/>
<rect x="321" y="46" width="7" height="7" rx="3.5" fill="white" fill-opacity="0.4"/>
<path d="M337 43C337 41.8954 337.895 41 339 41H499C500.105 41 501 41.8954 501 43V56C501 57.1046 500.105 58 499 58H339C337.895 58 337 57.1046 337 56V43Z" fill="#2A2A2A"/>
<rect x="342" y="46.5" width="70" height="7" rx="3.5" fill="white" fill-opacity="0.4"/>
<path d="M337 65C337 63.8954 337.895 63 339 63H499C500.105 63 501 63.8954 501 65V78C501 79.1046 500.105 80 499 80H339C337.895 80 337 79.1046 337 78V65Z" fill="#515151"/>
<rect x="342" y="68" width="40" height="7" rx="3.5" fill="white" fill-opacity="0.4"/>
<rect x="310" y="67" width="22" height="9" rx="4.5" fill="#585858"/>
<path d="M294.053 40.0273L303.518 45.5211L293.998 51.0103L284.481 45.5163L294.053 40.0273Z" fill="#A83434"/>
<path d="M303.518 56.1357L294 61.9933L294 51.009L303.518 45.5175L303.518 56.1357Z" fill="#2BDE21"/>
<path d="M284.481 56.8678L294 61.9933L294 51.0102L284.481 45.5187L284.481 56.8678Z" fill="#4A86E0"/>
<rect x="271" y="426.5" width="240" height="1" fill="black" fill-opacity="0.2"/>
<rect x="271" y="451.5" width="240" height="1" fill="black" fill-opacity="0.2"/>
<rect x="271" y="94.5" width="240" height="1" fill="black" fill-opacity="0.2"/>
<rect x="271" y="200.5" width="240" height="1" fill="black" fill-opacity="0.2"/>
<rect x="284" y="6" width="54" height="5" rx="2.5" fill="white" fill-opacity="0.2"/>
<path d="M349 -0.00012207H511V15.5H353.405C352.439 15.5 351.656 14.7169 351.656 13.7509L351.656 4.54997C351.656 2.66534 350.641 0.926716 349 -0.00012207Z" fill="#2A2A2A"/>
<rect x="494" y="4.5" width="7" height="7" rx="3.5" fill="#E04A4A"/>
<rect x="482" y="4.5" width="7" height="7" rx="3.5" fill="#DEC821"/>
<rect x="470" y="4.5" width="7" height="7" rx="3.5" fill="#6DE04A"/>
</g>
<defs>
<clipPath id="clip0_792_1911">
<rect width="511" height="501" fill="white"/>
</clipPath>
</defs>
</svg>
