<svg width="400" height="392" viewBox="0 0 400 392" fill="none" xmlns="http://www.w3.org/2000/svg">
<g clip-path="url(#clip0_1157_1385)">
<mask id="mask0_1157_1385" style="mask-type:luminance" maskUnits="userSpaceOnUse" x="0" y="0" width="400" height="392">
<path d="M400 0H0V392H400V0Z" fill="white"/>
</mask>
<g mask="url(#mask0_1157_1385)">
<path d="M0.782776 8.60682C0.782776 4.28554 4.28739 0.782471 8.61056 0.782471H212.133V392H8.61056C4.28739 392 0.782776 388.497 0.782776 384.176V8.60682Z" fill="#474747"/>
<path d="M0.782776 8.21571C0.782776 3.89444 4.28739 0.391357 8.61056 0.391357H24.2661V23.8644H0.782776V8.21571Z" stroke="#5C5C5C"/>
<path d="M47.7495 0.391357H24.2661V23.8644H47.7495V0.391357Z" stroke="#5C5C5C"/>
<path d="M71.2329 0.391357H47.7495V23.8644H71.2329V0.391357Z" stroke="#5C5C5C"/>
<path d="M94.7162 0.391357H71.2328V23.8644H94.7162V0.391357Z" stroke="#5C5C5C"/>
<path d="M118.2 0.391357H94.7162V23.8644H118.2V0.391357Z" stroke="#5C5C5C"/>
<path d="M141.683 0.391357H118.2V23.8644H141.683V0.391357Z" stroke="#5C5C5C"/>
<path d="M165.166 0.391357H141.683V23.8644H165.166V0.391357Z" stroke="#5C5C5C"/>
<path d="M188.65 0.391357H165.166V23.8644H188.65V0.391357Z" stroke="#5C5C5C"/>
<path d="M212.133 0.391357H188.65V23.8644H212.133V0.391357Z" stroke="#5C5C5C"/>
<path d="M24.2661 23.8643H0.782776V47.3373H24.2661V23.8643Z" stroke="#5C5C5C"/>
<path d="M47.7495 23.8643H24.2661V47.3373H47.7495V23.8643Z" stroke="#5C5C5C"/>
<path d="M71.2329 23.8643H47.7495V47.3373H71.2329V23.8643Z" stroke="#5C5C5C"/>
<path d="M94.7162 23.8643H71.2328V47.3373H94.7162V23.8643Z" stroke="#5C5C5C"/>
<path d="M118.2 23.8643H94.7162V47.3373H118.2V23.8643Z" stroke="#5C5C5C"/>
<path d="M141.683 23.8643H118.2V47.3373H141.683V23.8643Z" stroke="#5C5C5C"/>
<path d="M165.166 23.8643H141.683V47.3373H165.166V23.8643Z" stroke="#5C5C5C"/>
<path d="M188.65 23.8643H165.166V47.3373H188.65V23.8643Z" stroke="#5C5C5C"/>
<path d="M212.133 23.8643H188.65V47.3373H212.133V23.8643Z" stroke="#5C5C5C"/>
<path d="M0.782776 383.785C0.782776 388.106 4.28739 391.609 8.61056 391.609H24.2661V375.96H0.782776V383.785Z" stroke="#5C5C5C"/>
<path d="M47.7495 391.609H24.2661V375.96H47.7495V391.609Z" stroke="#5C5C5C"/>
<path d="M71.2329 391.609H47.7495V375.96H71.2329V391.609Z" stroke="#5C5C5C"/>
<path d="M94.7162 391.609H71.2328V375.96H94.7162V391.609Z" stroke="#5C5C5C"/>
<path d="M118.2 391.609H94.7162V375.96H118.2V391.609Z" stroke="#5C5C5C"/>
<path d="M141.683 391.609H118.2V375.96H141.683V391.609Z" stroke="#5C5C5C"/>
<path d="M165.166 391.609H141.683V375.96H165.166V391.609Z" stroke="#5C5C5C"/>
<path d="M188.65 391.609H165.166V375.96H188.65V391.609Z" stroke="#5C5C5C"/>
<path d="M212.133 391.609H188.65V375.96H212.133V391.609Z" stroke="#5C5C5C"/>
<path d="M24.2661 47.3374H0.782776V70.8105H24.2661V47.3374Z" stroke="#5C5C5C"/>
<path d="M47.7495 47.3374H24.2661V70.8105H47.7495V47.3374Z" stroke="#5C5C5C"/>
<path d="M71.2329 47.3374H47.7495V70.8105H71.2329V47.3374Z" stroke="#5C5C5C"/>
<path d="M94.7162 47.3374H71.2328V70.8105H94.7162V47.3374Z" stroke="#5C5C5C"/>
<path d="M118.2 47.3374H94.7162V70.8105H118.2V47.3374Z" stroke="#5C5C5C"/>
<path d="M141.683 47.3374H118.2V70.8105H141.683V47.3374Z" stroke="#5C5C5C"/>
<path d="M165.166 47.3374H141.683V70.8105H165.166V47.3374Z" stroke="#5C5C5C"/>
<path d="M188.65 47.3374H165.166V70.8105H188.65V47.3374Z" stroke="#5C5C5C"/>
<path d="M212.133 47.3374H188.65V70.8105H212.133V47.3374Z" stroke="#5C5C5C"/>
<path d="M24.2661 70.8105H0.782776V94.2836H24.2661V70.8105Z" stroke="#5C5C5C"/>
<path d="M47.7495 70.8105H24.2661V94.2836H47.7495V70.8105Z" stroke="#5C5C5C"/>
<path d="M71.2329 70.8105H47.7495V94.2836H71.2329V70.8105Z" stroke="#5C5C5C"/>
<path d="M94.7162 70.8105H71.2328V94.2836H94.7162V70.8105Z" stroke="#5C5C5C"/>
<path d="M118.2 70.8105H94.7162V94.2836H118.2V70.8105Z" stroke="#5C5C5C"/>
<path d="M141.683 70.8105H118.2V94.2836H141.683V70.8105Z" stroke="#5C5C5C"/>
<path d="M165.166 70.8105H141.683V94.2836H165.166V70.8105Z" stroke="#5C5C5C"/>
<path d="M188.65 70.8105H165.166V94.2836H188.65V70.8105Z" stroke="#5C5C5C"/>
<path d="M212.133 70.8105H188.65V94.2836H212.133V70.8105Z" stroke="#5C5C5C"/>
<path d="M24.2661 94.2834H0.782776V117.757H24.2661V94.2834Z" stroke="#5C5C5C"/>
<path d="M47.7495 94.2834H24.2661V117.757H47.7495V94.2834Z" stroke="#5C5C5C"/>
<path d="M71.2329 94.2834H47.7495V117.757H71.2329V94.2834Z" stroke="#5C5C5C"/>
<path d="M94.7162 94.2834H71.2328V117.757H94.7162V94.2834Z" stroke="#5C5C5C"/>
<path d="M118.2 94.2834H94.7162V117.757H118.2V94.2834Z" stroke="#5C5C5C"/>
<path d="M141.683 94.2834H118.2V117.757H141.683V94.2834Z" stroke="#5C5C5C"/>
<path d="M165.166 94.2834H141.683V117.757H165.166V94.2834Z" stroke="#5C5C5C"/>
<path d="M188.65 94.2834H165.166V117.757H188.65V94.2834Z" stroke="#5C5C5C"/>
<path d="M212.133 94.2834H188.65V117.757H212.133V94.2834Z" stroke="#5C5C5C"/>
<path d="M24.2661 117.757H0.782776V141.23H24.2661V117.757Z" stroke="#5C5C5C"/>
<path d="M47.7495 117.757H24.2661V141.23H47.7495V117.757Z" stroke="#5C5C5C"/>
<path d="M71.2329 117.757H47.7495V141.23H71.2329V117.757Z" stroke="#5C5C5C"/>
<path d="M94.7162 117.757H71.2328V141.23H94.7162V117.757Z" stroke="#5C5C5C"/>
<path d="M118.2 117.757H94.7162V141.23H118.2V117.757Z" stroke="#5C5C5C"/>
<path d="M141.683 117.757H118.2V141.23H141.683V117.757Z" stroke="#5C5C5C"/>
<path d="M165.166 117.757H141.683V141.23H165.166V117.757Z" stroke="#5C5C5C"/>
<path d="M188.65 117.757H165.166V141.23H188.65V117.757Z" stroke="#5C5C5C"/>
<path d="M212.133 117.757H188.65V141.23H212.133V117.757Z" stroke="#5C5C5C"/>
<path d="M24.2661 141.23H0.782776V164.703H24.2661V141.23Z" stroke="#5C5C5C"/>
<path d="M47.7495 141.23H24.2661V164.703H47.7495V141.23Z" stroke="#5C5C5C"/>
<path d="M71.2329 141.23H47.7495V164.703H71.2329V141.23Z" stroke="#5C5C5C"/>
<path d="M94.7162 141.23H71.2328V164.703H94.7162V141.23Z" stroke="#5C5C5C"/>
<path d="M118.2 141.23H94.7162V164.703H118.2V141.23Z" stroke="#5C5C5C"/>
<path d="M141.683 141.23H118.2V164.703H141.683V141.23Z" stroke="#5C5C5C"/>
<path d="M165.166 141.23H141.683V164.703H165.166V141.23Z" stroke="#5C5C5C"/>
<path d="M188.65 141.23H165.166V164.703H188.65V141.23Z" stroke="#5C5C5C"/>
<path d="M212.133 141.23H188.65V164.703H212.133V141.23Z" stroke="#5C5C5C"/>
<path d="M24.2661 164.703H0.782776V188.176H24.2661V164.703Z" stroke="#5C5C5C"/>
<path d="M47.7495 164.703H24.2661V188.176H47.7495V164.703Z" stroke="#5C5C5C"/>
<path d="M71.2329 164.703H47.7495V188.176H71.2329V164.703Z" stroke="#5C5C5C"/>
<path d="M94.7162 164.703H71.2328V188.176H94.7162V164.703Z" stroke="#5C5C5C"/>
<path d="M118.2 164.703H94.7162V188.176H118.2V164.703Z" stroke="#5C5C5C"/>
<path d="M141.683 164.703H118.2V188.176H141.683V164.703Z" stroke="#5C5C5C"/>
<path d="M165.166 164.703H141.683V188.176H165.166V164.703Z" stroke="#5C5C5C"/>
<path d="M188.65 164.703H165.166V188.176H188.65V164.703Z" stroke="#5C5C5C"/>
<path d="M212.133 164.703H188.65V188.176H212.133V164.703Z" stroke="#5C5C5C"/>
<path d="M24.2661 188.176H0.782776V211.649H24.2661V188.176Z" stroke="#5C5C5C"/>
<path d="M47.7495 188.176H24.2661V211.649H47.7495V188.176Z" stroke="#5C5C5C"/>
<path d="M71.2329 188.176H47.7495V211.649H71.2329V188.176Z" stroke="#5C5C5C"/>
<path d="M94.7162 188.176H71.2328V211.649H94.7162V188.176Z" stroke="#5C5C5C"/>
<path d="M118.2 188.176H94.7162V211.649H118.2V188.176Z" stroke="#5C5C5C"/>
<path d="M141.683 188.176H118.2V211.649H141.683V188.176Z" stroke="#5C5C5C"/>
<path d="M165.166 188.176H141.683V211.649H165.166V188.176Z" stroke="#5C5C5C"/>
<path d="M188.65 188.176H165.166V211.649H188.65V188.176Z" stroke="#5C5C5C"/>
<path d="M212.133 188.176H188.65V211.649H212.133V188.176Z" stroke="#5C5C5C"/>
<path d="M24.2661 211.649H0.782776V235.122H24.2661V211.649Z" stroke="#5C5C5C"/>
<path d="M47.7495 211.649H24.2661V235.122H47.7495V211.649Z" stroke="#5C5C5C"/>
<path d="M71.2329 211.649H47.7495V235.122H71.2329V211.649Z" stroke="#5C5C5C"/>
<path d="M94.7162 211.649H71.2328V235.122H94.7162V211.649Z" stroke="#5C5C5C"/>
<path d="M118.2 211.649H94.7162V235.122H118.2V211.649Z" stroke="#5C5C5C"/>
<path d="M141.683 211.649H118.2V235.122H141.683V211.649Z" stroke="#5C5C5C"/>
<path d="M165.166 211.649H141.683V235.122H165.166V211.649Z" stroke="#5C5C5C"/>
<path d="M188.65 211.649H165.166V235.122H188.65V211.649Z" stroke="#5C5C5C"/>
<path d="M212.133 211.649H188.65V235.122H212.133V211.649Z" stroke="#5C5C5C"/>
<path d="M24.2661 235.122H0.782776V258.595H24.2661V235.122Z" stroke="#5C5C5C"/>
<path d="M47.7495 235.122H24.2661V258.595H47.7495V235.122Z" stroke="#5C5C5C"/>
<path d="M71.2329 235.122H47.7495V258.595H71.2329V235.122Z" stroke="#5C5C5C"/>
<path d="M94.7162 235.122H71.2328V258.595H94.7162V235.122Z" stroke="#5C5C5C"/>
<path d="M118.2 235.122H94.7162V258.595H118.2V235.122Z" stroke="#5C5C5C"/>
<path d="M141.683 235.122H118.2V258.595H141.683V235.122Z" stroke="#5C5C5C"/>
<path d="M165.166 235.122H141.683V258.595H165.166V235.122Z" stroke="#5C5C5C"/>
<path d="M188.65 235.122H165.166V258.595H188.65V235.122Z" stroke="#5C5C5C"/>
<path d="M212.133 235.122H188.65V258.595H212.133V235.122Z" stroke="#5C5C5C"/>
<path d="M24.2661 258.595H0.782776V282.068H24.2661V258.595Z" stroke="#5C5C5C"/>
<path d="M47.7495 258.595H24.2661V282.068H47.7495V258.595Z" stroke="#5C5C5C"/>
<path d="M71.2329 258.595H47.7495V282.068H71.2329V258.595Z" stroke="#5C5C5C"/>
<path d="M94.7162 258.595H71.2328V282.068H94.7162V258.595Z" stroke="#5C5C5C"/>
<path d="M118.2 258.595H94.7162V282.068H118.2V258.595Z" stroke="#5C5C5C"/>
<path d="M141.683 258.595H118.2V282.068H141.683V258.595Z" stroke="#5C5C5C"/>
<path d="M165.166 258.595H141.683V282.068H165.166V258.595Z" stroke="#5C5C5C"/>
<path d="M188.65 258.595H165.166V282.068H188.65V258.595Z" stroke="#5C5C5C"/>
<path d="M212.133 258.595H188.65V282.068H212.133V258.595Z" stroke="#5C5C5C"/>
<path d="M24.2661 282.068H0.782776V305.541H24.2661V282.068Z" stroke="#5C5C5C"/>
<path d="M47.7495 282.068H24.2661V305.541H47.7495V282.068Z" stroke="#5C5C5C"/>
<path d="M71.2329 282.068H47.7495V305.541H71.2329V282.068Z" stroke="#5C5C5C"/>
<path d="M94.7162 282.068H71.2328V305.541H94.7162V282.068Z" stroke="#5C5C5C"/>
<path d="M118.2 282.068H94.7162V305.541H118.2V282.068Z" stroke="#5C5C5C"/>
<path d="M141.683 282.068H118.2V305.541H141.683V282.068Z" stroke="#5C5C5C"/>
<path d="M165.166 282.068H141.683V305.541H165.166V282.068Z" stroke="#5C5C5C"/>
<path d="M188.65 282.068H165.166V305.541H188.65V282.068Z" stroke="#5C5C5C"/>
<path d="M212.133 282.068H188.65V305.541H212.133V282.068Z" stroke="#5C5C5C"/>
<path d="M24.2661 282.068H0.782776V305.541H24.2661V282.068Z" stroke="#5C5C5C"/>
<path d="M47.7495 282.068H24.2661V305.541H47.7495V282.068Z" stroke="#5C5C5C"/>
<path d="M71.2329 282.068H47.7495V305.541H71.2329V282.068Z" stroke="#5C5C5C"/>
<path d="M94.7162 282.068H71.2328V305.541H94.7162V282.068Z" stroke="#5C5C5C"/>
<path d="M118.2 282.068H94.7162V305.541H118.2V282.068Z" stroke="#5C5C5C"/>
<path d="M141.683 282.068H118.2V305.541H141.683V282.068Z" stroke="#5C5C5C"/>
<path d="M165.166 282.068H141.683V305.541H165.166V282.068Z" stroke="#5C5C5C"/>
<path d="M188.65 282.068H165.166V305.541H188.65V282.068Z" stroke="#5C5C5C"/>
<path d="M212.133 282.068H188.65V305.541H212.133V282.068Z" stroke="#5C5C5C"/>
<path d="M24.2661 305.541H0.782776V329.014H24.2661V305.541Z" stroke="#5C5C5C"/>
<path d="M47.7495 305.541H24.2661V329.014H47.7495V305.541Z" stroke="#5C5C5C"/>
<path d="M71.2329 305.541H47.7495V329.014H71.2329V305.541Z" stroke="#5C5C5C"/>
<path d="M94.7162 305.541H71.2328V329.014H94.7162V305.541Z" stroke="#5C5C5C"/>
<path d="M118.2 305.541H94.7162V329.014H118.2V305.541Z" stroke="#5C5C5C"/>
<path d="M141.683 305.541H118.2V329.014H141.683V305.541Z" stroke="#5C5C5C"/>
<path d="M165.166 305.541H141.683V329.014H165.166V305.541Z" stroke="#5C5C5C"/>
<path d="M188.65 305.541H165.166V329.014H188.65V305.541Z" stroke="#5C5C5C"/>
<path d="M212.133 305.541H188.65V329.014H212.133V305.541Z" stroke="#5C5C5C"/>
<path d="M24.2661 329.014H0.782776V352.487H24.2661V329.014Z" stroke="#5C5C5C"/>
<path d="M47.7495 329.014H24.2661V352.487H47.7495V329.014Z" stroke="#5C5C5C"/>
<path d="M71.2329 329.014H47.7495V352.487H71.2329V329.014Z" stroke="#5C5C5C"/>
<path d="M94.7162 329.014H71.2328V352.487H94.7162V329.014Z" stroke="#5C5C5C"/>
<path d="M118.2 329.014H94.7162V352.487H118.2V329.014Z" stroke="#5C5C5C"/>
<path d="M141.683 329.014H118.2V352.487H141.683V329.014Z" stroke="#5C5C5C"/>
<path d="M165.166 329.014H141.683V352.487H165.166V329.014Z" stroke="#5C5C5C"/>
<path d="M188.65 329.014H165.166V352.487H188.65V329.014Z" stroke="#5C5C5C"/>
<path d="M212.133 329.014H188.65V352.487H212.133V329.014Z" stroke="#5C5C5C"/>
<path d="M24.2661 352.487H0.782776V375.96H24.2661V352.487Z" stroke="#5C5C5C"/>
<path d="M47.7495 352.487H24.2661V375.96H47.7495V352.487Z" stroke="#5C5C5C"/>
<path d="M71.2329 352.487H47.7495V375.96H71.2329V352.487Z" stroke="#5C5C5C"/>
<path d="M94.7162 352.487H71.2328V375.96H94.7162V352.487Z" stroke="#5C5C5C"/>
<path d="M118.2 352.487H94.7162V375.96H118.2V352.487Z" stroke="#5C5C5C"/>
<path d="M141.683 352.487H118.2V375.96H141.683V352.487Z" stroke="#5C5C5C"/>
<path d="M165.166 352.487H141.683V375.96H165.166V352.487Z" stroke="#5C5C5C"/>
<path d="M188.65 352.487H165.166V375.96H188.65V352.487Z" stroke="#5C5C5C"/>
<path d="M212.133 352.487H188.65V375.96H212.133V352.487Z" stroke="#5C5C5C"/>
<path d="M38.3561 242.946H171.429" stroke="#3586FF" stroke-opacity="0.4" stroke-width="3"/>
<path d="M38.3561 110.715H171.429" stroke="#3586FF" stroke-opacity="0.4" stroke-width="3"/>
<path d="M37.9648 244.12V111.106" stroke="#3586FF" stroke-opacity="0.4" stroke-width="3"/>
<path d="M170.254 244.12V111.106" stroke="#3586FF" stroke-opacity="0.4" stroke-width="3"/>
<path d="M170.254 116.583C173.497 116.583 176.125 113.956 176.125 110.715C176.125 107.474 173.497 104.846 170.254 104.846C167.012 104.846 164.384 107.474 164.384 110.715C164.384 113.956 167.012 116.583 170.254 116.583Z" fill="#3586FF"/>
<path d="M37.9648 116.583C41.2072 116.583 43.8356 113.956 43.8356 110.715C43.8356 107.474 41.2072 104.846 37.9648 104.846C34.7224 104.846 32.0939 107.474 32.0939 110.715C32.0939 113.956 34.7224 116.583 37.9648 116.583Z" fill="#3586FF"/>
<path d="M170.254 248.814C173.497 248.814 176.125 246.187 176.125 242.946C176.125 239.705 173.497 237.078 170.254 237.078C167.012 237.078 164.384 239.705 164.384 242.946C164.384 246.187 167.012 248.814 170.254 248.814Z" fill="#3586FF"/>
<path d="M37.9648 248.814C41.2072 248.814 43.8356 246.187 43.8356 242.946C43.8356 239.705 41.2072 237.078 37.9648 237.078C34.7224 237.078 32.0939 239.705 32.0939 242.946C32.0939 246.187 34.7224 248.814 37.9648 248.814Z" fill="#3586FF"/>
<path d="M212.133 0H400V392H212.133V0Z" fill="#383838"/>
<path d="M327.984 97.8044H286.497C285.632 97.8044 284.932 98.5051 284.932 99.3693V109.541C284.932 110.405 285.632 111.106 286.497 111.106H327.984C328.849 111.106 329.55 110.405 329.55 109.541V99.3693C329.55 98.5051 328.849 97.8044 327.984 97.8044Z" fill="#2A2A2A"/>
<path d="M309.589 101.717H291.585C290.072 101.717 288.845 102.943 288.845 104.455C288.845 105.968 290.072 107.194 291.585 107.194H309.589C311.102 107.194 312.329 105.968 312.329 104.455C312.329 102.943 311.102 101.717 309.589 101.717Z" fill="white" fill-opacity="0.4"/>
<path d="M275.658 101.717C275.785 101.717 275.904 101.775 275.982 101.875L277.495 103.816L279.008 101.875C279.086 101.775 279.205 101.717 279.332 101.717C279.677 101.717 279.868 102.113 279.655 102.383L278.033 104.428L279.699 106.521C279.915 106.793 279.722 107.194 279.375 107.194C279.248 107.194 279.127 107.135 279.049 107.035L277.495 105.053L275.941 107.035C275.862 107.135 275.742 107.194 275.615 107.194C275.268 107.194 275.075 106.793 275.291 106.521L276.957 104.428L275.335 102.383C275.122 102.113 275.313 101.717 275.658 101.717Z" fill="#585858"/>
<path d="M347.554 98.9782C347.554 98.1136 348.254 97.4133 349.119 97.4133H390.607C391.471 97.4133 392.172 98.1136 392.172 98.9782V109.15C392.172 110.014 391.471 110.715 390.607 110.715H349.119C348.254 110.715 347.554 110.014 347.554 109.15V98.9782Z" fill="#2A2A2A"/>
<path d="M351.468 104.064C351.468 102.552 352.694 101.325 354.207 101.325H362.035C363.548 101.325 364.775 102.552 364.775 104.064C364.775 105.576 363.548 106.802 362.035 106.802H354.207C352.694 106.802 351.468 105.576 351.468 104.064Z" fill="white" fill-opacity="0.4"/>
<path d="M338.214 101.325C338.366 101.325 338.507 101.406 338.585 101.537L340.194 104.261L341.808 101.535C341.885 101.405 342.024 101.325 342.175 101.325C342.509 101.325 342.713 101.69 342.539 101.975L340.634 105.091V106.36C340.634 106.605 340.436 106.802 340.192 106.802C339.947 106.802 339.749 106.605 339.749 106.36V105.091L337.847 101.98C337.671 101.693 337.878 101.325 338.214 101.325Z" fill="#585858"/>
<path d="M255.577 100.934H223.483C221.538 100.934 219.961 102.511 219.961 104.455C219.961 106.4 221.538 107.976 223.483 107.976H255.577C257.523 107.976 259.1 106.4 259.1 104.455C259.1 102.511 257.523 100.934 255.577 100.934Z" fill="#585858"/>
<path d="M327.984 115.018H286.497C285.632 115.018 284.932 115.719 284.932 116.583V126.755C284.932 127.619 285.632 128.319 286.497 128.319H327.984C328.849 128.319 329.55 127.619 329.55 126.755V116.583C329.55 115.719 328.849 115.018 327.984 115.018Z" fill="#2A2A2A"/>
<path d="M309.589 118.93H291.585C290.072 118.93 288.845 120.156 288.845 121.669C288.845 123.181 290.072 124.407 291.585 124.407H309.589C311.102 124.407 312.329 123.181 312.329 121.669C312.329 120.156 311.102 118.93 309.589 118.93Z" fill="white" fill-opacity="0.4"/>
<path d="M275.658 118.93C275.785 118.93 275.904 118.989 275.982 119.089L277.495 121.029L279.008 119.089C279.086 118.989 279.205 118.93 279.332 118.93C279.677 118.93 279.868 119.327 279.655 119.597L278.033 121.642L279.699 123.735C279.915 124.007 279.722 124.407 279.375 124.407C279.248 124.407 279.127 124.349 279.049 124.248L277.495 122.266L275.941 124.248C275.862 124.349 275.742 124.407 275.615 124.407C275.268 124.407 275.075 124.007 275.291 123.735L276.957 121.642L275.335 119.597C275.122 119.327 275.313 118.93 275.658 118.93Z" fill="#585858"/>
<path d="M347.554 116.192C347.554 115.327 348.254 114.627 349.119 114.627H390.607C391.471 114.627 392.172 115.327 392.172 116.192V126.363C392.172 127.228 391.471 127.928 390.607 127.928H349.119C348.254 127.928 347.554 127.228 347.554 126.363V116.192Z" fill="#2A2A2A"/>
<path d="M351.468 121.278C351.468 119.765 352.694 118.539 354.207 118.539H370.646C372.159 118.539 373.385 119.765 373.385 121.278C373.385 122.79 372.159 124.016 370.646 124.016H354.207C352.694 124.016 351.468 122.79 351.468 121.278Z" fill="white" fill-opacity="0.4"/>
<path d="M338.214 118.539C338.366 118.539 338.507 118.62 338.585 118.75L340.194 121.475L341.808 118.749C341.885 118.619 342.024 118.539 342.175 118.539C342.509 118.539 342.713 118.904 342.539 119.188L340.634 122.304V123.574C340.634 123.818 340.436 124.016 340.192 124.016C339.947 124.016 339.749 123.818 339.749 123.574V122.304L337.847 119.194C337.671 118.907 337.878 118.539 338.214 118.539Z" fill="#585858"/>
<path d="M255.577 118.148H223.483C221.538 118.148 219.961 119.724 219.961 121.669C219.961 123.613 221.538 125.19 223.483 125.19H255.577C257.523 125.19 259.1 123.613 259.1 121.669C259.1 119.724 257.523 118.148 255.577 118.148Z" fill="#585858"/>
<path d="M327.984 132.232H286.497C285.632 132.232 284.932 132.932 284.932 133.797V143.968C284.932 144.832 285.632 145.533 286.497 145.533H327.984C328.849 145.533 329.55 144.832 329.55 143.968V133.797C329.55 132.932 328.849 132.232 327.984 132.232Z" fill="#2A2A2A"/>
<path d="M317.417 136.144H291.585C290.072 136.144 288.845 137.37 288.845 138.882C288.845 140.395 290.072 141.621 291.585 141.621H317.417C318.93 141.621 320.157 140.395 320.157 138.882C320.157 137.37 318.93 136.144 317.417 136.144Z" fill="white" fill-opacity="0.4"/>
<path d="M275.658 136.144C275.785 136.144 275.904 136.202 275.982 136.303L277.495 138.243L279.008 136.303C279.086 136.202 279.205 136.144 279.332 136.144C279.677 136.144 279.868 136.54 279.655 136.81L278.033 138.856L279.699 140.949C279.915 141.22 279.722 141.621 279.375 141.621C279.248 141.621 279.127 141.562 279.049 141.462L277.495 139.48L275.941 141.462C275.862 141.562 275.742 141.621 275.615 141.621C275.268 141.621 275.075 141.22 275.291 140.949L276.957 138.856L275.335 136.81C275.122 136.54 275.313 136.144 275.658 136.144Z" fill="#585858"/>
<path d="M347.554 133.405C347.554 132.541 348.254 131.84 349.119 131.84H390.607C391.471 131.84 392.172 132.541 392.172 133.405V143.577C392.172 144.441 391.471 145.142 390.607 145.142H349.119C348.254 145.142 347.554 144.441 347.554 143.577V133.405Z" fill="#2A2A2A"/>
<path d="M351.468 138.491C351.468 136.979 352.694 135.753 354.207 135.753H365.949C367.462 135.753 368.689 136.979 368.689 138.491C368.689 140.004 367.462 141.23 365.949 141.23H354.207C352.694 141.23 351.468 140.004 351.468 138.491Z" fill="white" fill-opacity="0.4"/>
<path d="M338.214 135.753C338.366 135.753 338.507 135.833 338.585 135.964L340.194 138.688L341.808 135.962C341.885 135.832 342.024 135.753 342.175 135.753C342.509 135.753 342.713 136.117 342.539 136.402L340.634 139.518V140.788C340.634 141.032 340.436 141.23 340.192 141.23C339.947 141.23 339.749 141.032 339.749 140.788V139.518L337.847 136.408C337.671 136.12 337.878 135.753 338.214 135.753Z" fill="#585858"/>
<path d="M255.577 135.361H223.483C221.538 135.361 219.961 136.938 219.961 138.882C219.961 140.827 221.538 142.403 223.483 142.403H255.577C257.523 142.403 259.1 140.827 259.1 138.882C259.1 136.938 257.523 135.361 255.577 135.361Z" fill="#585858"/>
<path d="M236.308 80.5667V87.2417H235.052V80.5667H236.308ZM238.381 80.5667V81.5612H233.001V80.5667H238.381ZM240.019 83.2943V87.2417H238.808V82.281H239.955L240.019 83.2943ZM241.528 82.249L241.51 83.3772C241.443 83.3647 241.366 83.3553 241.281 83.3491C241.198 83.3436 241.119 83.3405 241.047 83.3405C240.859 83.3405 240.696 83.3663 240.556 83.4179C240.415 83.4672 240.297 83.5392 240.203 83.6339C240.11 83.7285 240.041 83.8443 239.991 83.982C239.943 84.1166 239.915 84.2692 239.909 84.4406L239.648 84.4085C239.648 84.0939 239.68 83.8021 239.744 83.5329C239.808 83.2638 239.901 83.0283 240.023 82.8264C240.146 82.6253 240.299 82.4688 240.482 82.3593C240.668 82.2458 240.883 82.1895 241.124 82.1895C241.191 82.1895 241.263 82.1957 241.34 82.2075C241.419 82.2169 241.482 82.231 241.528 82.249ZM244.771 86.187V83.8999C244.771 83.7317 244.741 83.5861 244.683 83.4641C244.625 83.342 244.537 83.2473 244.417 83.1801C244.298 83.1128 244.147 83.0791 243.963 83.0791C243.801 83.0791 243.659 83.1065 243.537 83.1613C243.418 83.216 243.326 83.2943 243.262 83.3952C243.198 83.493 243.166 83.6065 243.166 83.7348H241.95C241.95 83.5298 241.999 83.3358 242.097 83.1519C242.195 82.9657 242.333 82.8006 242.514 82.6574C242.697 82.5103 242.916 82.396 243.17 82.3131C243.427 82.231 243.714 82.1895 244.032 82.1895C244.409 82.1895 244.743 82.2536 245.036 82.382C245.333 82.5072 245.566 82.6965 245.734 82.9508C245.905 83.2043 245.991 83.5235 245.991 83.9085V86.0727C245.991 86.32 246.006 86.5328 246.037 86.7096C246.07 86.8841 246.119 87.0351 246.183 87.1634V87.2417H244.95C244.892 87.1165 244.847 86.9576 244.816 86.7652C244.786 86.5696 244.771 86.3771 244.771 86.187ZM244.94 84.2207L244.95 84.9405H244.184C243.994 84.9405 243.827 84.9601 243.684 85C243.54 85.0368 243.422 85.0915 243.331 85.1651C243.238 85.2355 243.17 85.3208 243.124 85.4217C243.078 85.5195 243.055 85.6306 243.055 85.7566C243.055 85.8787 243.083 85.9882 243.138 86.086C243.196 86.1838 243.278 86.2621 243.385 86.32C243.496 86.3755 243.624 86.4029 243.771 86.4029C243.985 86.4029 244.171 86.3599 244.33 86.2746C244.489 86.1854 244.613 86.079 244.702 85.9538C244.791 85.8278 244.838 85.7089 244.844 85.5954L245.193 86.1181C245.15 86.2441 245.086 86.3771 245 86.5171C244.914 86.658 244.804 86.7894 244.67 86.9115C244.535 87.0335 244.373 87.1345 244.184 87.2143C243.994 87.2933 243.774 87.3332 243.523 87.3332C243.202 87.3332 242.914 87.2691 242.661 87.1407C242.407 87.0124 242.207 86.8364 242.06 86.6134C241.913 86.3904 241.84 86.1369 241.84 85.8528C241.84 85.59 241.889 85.3576 241.987 85.1557C242.085 84.9538 242.229 84.784 242.423 84.6471C242.615 84.5063 242.853 84.4007 243.138 84.3302C243.425 84.2575 243.754 84.2207 244.124 84.2207H244.94ZM248.27 83.3405V87.2417H247.059V82.281H248.196L248.27 83.3405ZM248.077 84.583H247.72C247.723 84.2223 247.772 83.8952 247.867 83.6018C247.962 83.3084 248.095 83.0556 248.265 82.8452C248.44 82.6339 248.647 82.4719 248.885 82.3593C249.123 82.2458 249.389 82.1895 249.683 82.1895C249.922 82.1895 250.137 82.2231 250.33 82.2904C250.522 82.3577 250.687 82.4649 250.825 82.6112C250.966 82.7583 251.072 82.9508 251.146 83.1887C251.223 83.4242 251.261 83.7145 251.261 84.0603V87.2417H250.041V84.0509C250.041 83.8248 250.007 83.6456 249.94 83.5142C249.876 83.3827 249.781 83.2896 249.656 83.2348C249.533 83.18 249.382 83.1519 249.202 83.1519C249.014 83.1519 248.851 83.1902 248.711 83.2669C248.573 83.3404 248.457 83.4429 248.362 83.5736C248.27 83.7051 248.2 83.8569 248.151 84.0282C248.102 84.1988 248.077 84.3842 248.077 84.583ZM255.058 85.8849C255.058 85.7809 255.031 85.6878 254.976 85.6048C254.921 85.5227 254.817 85.4476 254.664 85.3803C254.514 85.3098 254.294 85.2441 254.003 85.1831C253.746 85.1283 253.51 85.0595 253.292 84.9765C253.076 84.8944 252.889 84.795 252.733 84.6792C252.577 84.5595 252.455 84.421 252.366 84.2614C252.28 84.0994 252.238 83.9132 252.238 83.7027C252.238 83.4977 252.282 83.3052 252.371 83.1245C252.459 82.9414 252.588 82.781 252.756 82.6433C252.924 82.5025 253.129 82.3929 253.371 82.3131C253.612 82.231 253.884 82.1895 254.187 82.1895C254.609 82.1895 254.971 82.2583 255.274 82.3961C255.58 82.533 255.814 82.7231 255.976 82.9641C256.138 83.2027 256.219 83.4719 256.219 83.7708H255.008C255.008 83.6393 254.978 83.5204 254.916 83.4132C254.858 83.3068 254.768 83.2207 254.646 83.1566C254.524 83.0893 254.369 83.0556 254.182 83.0556C254.014 83.0556 253.872 83.0838 253.756 83.1386C253.643 83.1934 253.557 83.2653 253.499 83.3538C253.441 83.4429 253.412 83.5408 253.412 83.6472C253.412 83.727 253.427 83.799 253.458 83.8631C253.491 83.9241 253.545 83.9805 253.618 84.0321C253.692 84.0845 253.791 84.1315 253.916 84.1745C254.045 84.2176 254.202 84.259 254.389 84.2982C254.758 84.3717 255.081 84.4695 255.357 84.5916C255.634 84.7113 255.852 84.8701 256.008 85.0688C256.164 85.2676 256.242 85.5211 256.242 85.8294C256.242 86.05 256.194 86.2511 256.099 86.435C256.005 86.6149 255.867 86.7722 255.687 86.9068C255.506 87.0414 255.291 87.147 255.04 87.2237C254.789 87.2964 254.506 87.3332 254.192 87.3332C253.736 87.3332 253.35 87.2526 253.036 87.0907C252.721 86.9256 252.482 86.7174 252.32 86.4671C252.158 86.2136 252.077 85.9507 252.077 85.6784H253.238C253.247 85.8708 253.299 86.025 253.393 86.1416C253.488 86.2574 253.608 86.3419 253.751 86.3935C253.898 86.4428 254.052 86.4671 254.214 86.4671C254.398 86.4671 254.553 86.4428 254.678 86.3935C254.803 86.3419 254.898 86.273 254.962 86.187C255.026 86.0985 255.058 85.9976 255.058 85.8849ZM258.751 87.2417H257.53V81.8225C257.53 81.4501 257.602 81.1363 257.746 80.8828C257.89 80.6262 258.095 80.4321 258.361 80.3007C258.627 80.1692 258.94 80.1035 259.301 80.1035C259.42 80.1035 259.533 80.1113 259.641 80.1262C259.75 80.1419 259.859 80.163 259.966 80.1904L259.943 81.1121C259.885 81.0964 259.821 81.0863 259.75 81.08C259.683 81.0737 259.609 81.0706 259.526 81.0706C259.36 81.0706 259.22 81.0996 259.104 81.1582C258.988 81.2161 258.899 81.3014 258.838 81.4149C258.78 81.5244 258.751 81.6606 258.751 81.8225V87.2417ZM259.755 82.281V83.1519H256.783V82.281H259.755ZM260.287 84.8122V84.7152C260.287 84.3521 260.339 84.0173 260.443 83.7113C260.547 83.403 260.698 83.1355 260.897 82.9093C261.096 82.6832 261.339 82.5072 261.627 82.382C261.914 82.2536 262.241 82.1895 262.608 82.1895C262.981 82.1895 263.311 82.2536 263.598 82.382C263.889 82.5072 264.134 82.6832 264.333 82.9093C264.531 83.1355 264.683 83.403 264.787 83.7113C264.891 84.0173 264.942 84.3521 264.942 84.7152V84.8122C264.942 85.1721 264.891 85.507 264.787 85.8161C264.683 86.1212 264.531 86.3888 264.333 86.6181C264.134 86.8442 263.89 87.0202 263.603 87.1454C263.316 87.2706 262.987 87.3332 262.617 87.3332C262.25 87.3332 261.922 87.2706 261.631 87.1454C261.34 87.0202 261.096 86.8442 260.897 86.6181C260.698 86.3888 260.547 86.1212 260.443 85.8161C260.339 85.507 260.287 85.1721 260.287 84.8122ZM261.498 84.7152V84.8122C261.498 85.0289 261.519 85.2324 261.562 85.4217C261.605 85.6111 261.67 85.7777 261.76 85.9209C261.848 86.0649 261.962 86.1783 262.103 86.2605C262.247 86.3403 262.418 86.3794 262.617 86.3794C262.813 86.3794 262.981 86.3403 263.122 86.2605C263.263 86.1783 263.377 86.0649 263.465 85.9209C263.558 85.7777 263.624 85.6111 263.667 85.4217C263.71 85.2324 263.731 85.0289 263.731 84.8122V84.7152C263.731 84.5016 263.71 84.3013 263.667 84.1151C263.624 83.9257 263.558 83.7591 263.465 83.6151C263.377 83.4688 263.261 83.3538 263.117 83.2716C262.976 83.1855 262.807 83.1433 262.608 83.1433C262.413 83.1433 262.244 83.1855 262.103 83.2716C261.962 83.3538 261.848 83.4688 261.76 83.6151C261.67 83.7591 261.605 83.9257 261.562 84.1151C261.519 84.3013 261.498 84.5016 261.498 84.7152ZM267.034 83.2943V87.2417H265.823V82.281H266.97L267.034 83.2943ZM268.543 82.249L268.524 83.3772C268.457 83.3647 268.381 83.3553 268.295 83.3491C268.213 83.3436 268.135 83.3405 268.061 83.3405C267.875 83.3405 267.711 83.3663 267.57 83.4179C267.43 83.4672 267.312 83.5392 267.217 83.6339C267.126 83.7285 267.055 83.8443 267.007 83.982C266.957 84.1166 266.93 84.2692 266.924 84.4406L266.662 84.4085C266.662 84.0939 266.694 83.8021 266.758 83.5329C266.823 83.2638 266.917 83.0283 267.039 82.8264C267.161 82.6253 267.313 82.4688 267.497 82.3593C267.684 82.2458 267.897 82.1895 268.139 82.1895C268.207 82.1895 268.279 82.1957 268.355 82.2075C268.434 82.2169 268.497 82.231 268.543 82.249ZM270.414 83.299V87.2417H269.203V82.281H270.345L270.414 83.299ZM270.236 84.583H269.864C269.864 84.2371 269.905 83.9195 269.987 83.6292C270.074 83.3389 270.199 83.0862 270.364 82.8726C270.529 82.6558 270.733 82.4876 270.974 82.3679C271.219 82.249 271.501 82.1895 271.822 82.1895C272.045 82.1895 272.25 82.2231 272.437 82.2904C272.624 82.3546 272.784 82.4571 272.919 82.5971C273.056 82.7348 273.162 82.9156 273.235 83.1386C273.309 83.3584 273.345 83.6229 273.345 83.932V87.2417H272.135V84.0556C272.135 83.8232 272.101 83.6409 272.034 83.5095C271.969 83.378 271.876 83.2865 271.753 83.2348C271.631 83.18 271.484 83.1519 271.313 83.1519C271.124 83.1519 270.96 83.1902 270.823 83.2669C270.688 83.3404 270.576 83.4429 270.488 83.5736C270.402 83.7051 270.338 83.8569 270.295 84.0282C270.255 84.1988 270.236 84.3842 270.236 84.583ZM273.253 84.3576L272.754 84.4499C272.756 84.1378 272.799 83.8459 272.882 83.5736C272.964 83.299 273.085 83.0588 273.245 82.8546C273.407 82.6464 273.606 82.4845 273.845 82.3679C274.087 82.249 274.365 82.1895 274.68 82.1895C274.924 82.1895 275.144 82.2247 275.34 82.2951C275.539 82.3624 275.709 82.4704 275.85 82.6206C275.99 82.7669 276.097 82.9578 276.171 83.1934C276.247 83.4289 276.285 83.716 276.285 84.0556V87.2417H275.065V84.0509C275.065 83.8091 275.032 83.6245 274.964 83.4962C274.9 83.3678 274.807 83.2794 274.684 83.2301C274.562 83.1785 274.419 83.1519 274.254 83.1519C274.085 83.1519 273.938 83.184 273.813 83.2481C273.691 83.3099 273.587 83.3952 273.501 83.5055C273.418 83.6151 273.356 83.7434 273.313 83.8905C273.274 84.0337 273.253 84.1902 273.253 84.3576Z" fill="white" fill-opacity="0.8"/>
<path d="M223.611 80.1997H225.177V84.5031L224.394 84.8943L223.611 84.5031V80.1997Z" fill="#2BDE21"/>
<path d="M228.89 86.4929L228.107 87.8481L224.394 85.6768V84.8944L225.177 84.5032L228.89 86.4929Z" fill="#E04A4A"/>
<path d="M220.782 88.0312L219.999 86.676L223.611 84.5032L224.394 84.8944V85.6768L220.782 88.0312Z" fill="#4A86E0"/>
<path d="M238.966 168.447C238.966 168.318 238.946 168.204 238.906 168.103C238.87 167.999 238.801 167.906 238.7 167.823C238.602 167.738 238.463 167.655 238.283 167.576C238.106 167.493 237.876 167.407 237.595 167.319C237.283 167.221 236.993 167.111 236.723 166.989C236.454 166.867 236.217 166.724 236.013 166.562C235.811 166.4 235.653 166.214 235.54 166.003C235.427 165.789 235.37 165.541 235.37 165.26C235.37 164.985 235.429 164.735 235.544 164.509C235.663 164.282 235.832 164.088 236.049 163.926C236.266 163.761 236.521 163.635 236.815 163.545C237.112 163.457 237.439 163.413 237.796 163.413C238.292 163.413 238.72 163.503 239.081 163.683C239.445 163.864 239.726 164.108 239.925 164.417C240.124 164.725 240.223 165.073 240.223 165.458H238.966C238.966 165.249 238.922 165.066 238.833 164.908C238.748 164.749 238.616 164.623 238.438 164.531C238.265 164.44 238.044 164.394 237.778 164.394C237.521 164.394 237.307 164.432 237.136 164.509C236.968 164.585 236.841 164.688 236.755 164.82C236.672 164.951 236.632 165.098 236.632 165.26C236.632 165.382 236.661 165.493 236.719 165.591C236.777 165.685 236.864 165.775 236.98 165.861C237.097 165.944 237.24 166.022 237.411 166.095C237.586 166.165 237.787 166.235 238.016 166.306C238.384 166.415 238.705 166.538 238.98 166.673C239.258 166.807 239.489 166.96 239.673 167.131C239.859 167.302 239.998 167.494 240.09 167.709C240.185 167.922 240.232 168.166 240.232 168.437C240.232 168.725 240.175 168.982 240.063 169.208C239.949 169.434 239.787 169.626 239.576 169.785C239.365 169.944 239.112 170.065 238.815 170.148C238.521 170.23 238.193 170.271 237.829 170.271C237.505 170.271 237.184 170.228 236.866 170.143C236.55 170.054 236.265 169.923 236.008 169.748C235.751 169.572 235.546 169.349 235.393 169.08C235.24 168.807 235.164 168.49 235.164 168.126H236.43C236.43 168.337 236.463 168.517 236.531 168.666C236.601 168.813 236.699 168.934 236.824 169.029C236.953 169.12 237.102 169.187 237.274 169.231C237.445 169.274 237.63 169.295 237.829 169.295C238.085 169.295 238.297 169.259 238.462 169.189C238.629 169.116 238.755 169.015 238.838 168.887C238.923 168.759 238.966 168.612 238.966 168.447ZM242.323 166.173V172.087H241.108V165.219H242.232L242.323 166.173ZM245.512 167.649V167.745C245.512 168.106 245.469 168.44 245.382 168.749C245.3 169.054 245.178 169.322 245.016 169.551C244.854 169.777 244.652 169.955 244.41 170.083C244.172 170.209 243.897 170.271 243.585 170.271C243.279 170.271 243.013 170.213 242.787 170.097C242.56 169.978 242.369 169.81 242.214 169.593C242.057 169.376 241.932 169.123 241.837 168.836C241.746 168.546 241.677 168.23 241.631 167.887V167.58C241.677 167.217 241.746 166.886 241.837 166.59C241.932 166.29 242.057 166.032 242.214 165.815C242.369 165.595 242.559 165.426 242.782 165.306C243.008 165.187 243.273 165.127 243.576 165.127C243.89 165.127 244.168 165.187 244.405 165.306C244.647 165.426 244.851 165.597 245.016 165.82C245.181 166.043 245.305 166.309 245.387 166.617C245.47 166.926 245.512 167.27 245.512 167.649ZM244.296 167.745V167.649C244.296 167.429 244.276 167.226 244.236 167.039C244.196 166.85 244.135 166.684 244.052 166.544C243.97 166.4 243.863 166.289 243.732 166.21C243.6 166.13 243.441 166.09 243.255 166.09C243.068 166.09 242.907 166.12 242.773 166.182C242.639 166.243 242.528 166.33 242.443 166.443C242.357 166.556 242.29 166.691 242.241 166.846C242.195 167 242.164 167.169 242.15 167.356V168.116C242.177 168.342 242.23 168.546 242.31 168.727C242.389 168.907 242.506 169.051 242.658 169.157C242.814 169.264 243.016 169.317 243.263 169.317C243.451 169.317 243.609 169.277 243.741 169.194C243.872 169.112 243.979 168.998 244.062 168.855C244.144 168.708 244.204 168.54 244.24 168.35C244.277 168.161 244.296 167.959 244.296 167.745ZM247.607 166.232V170.18H246.396V165.219H247.543L247.607 166.232ZM249.116 165.187L249.098 166.315C249.031 166.303 248.954 166.293 248.869 166.287C248.786 166.282 248.708 166.278 248.635 166.278C248.448 166.278 248.284 166.304 248.144 166.356C248.003 166.405 247.886 166.477 247.791 166.572C247.699 166.666 247.629 166.782 247.58 166.92C247.531 167.055 247.503 167.207 247.497 167.378L247.236 167.346C247.236 167.032 247.268 166.74 247.332 166.471C247.396 166.202 247.49 165.966 247.612 165.764C247.734 165.563 247.887 165.407 248.07 165.297C248.257 165.184 248.471 165.127 248.712 165.127C248.78 165.127 248.852 165.134 248.928 165.145C249.007 165.155 249.07 165.169 249.116 165.187ZM251.065 165.219V170.18H249.85V165.219H251.065ZM249.768 163.922C249.768 163.741 249.829 163.592 249.951 163.473C250.077 163.353 250.244 163.293 250.456 163.293C250.666 163.293 250.833 163.353 250.956 163.473C251.081 163.592 251.144 163.741 251.144 163.922C251.144 164.099 251.081 164.247 250.956 164.366C250.833 164.486 250.666 164.545 250.456 164.545C250.244 164.545 250.077 164.486 249.951 164.366C249.829 164.247 249.768 164.099 249.768 163.922ZM254.57 165.219V166.09H251.726V165.219H254.57ZM252.488 164H253.703V168.749C253.703 168.896 253.723 169.009 253.763 169.088C253.802 169.168 253.861 169.221 253.941 169.249C254.021 169.277 254.116 169.29 254.225 169.29C254.305 169.29 254.379 169.285 254.446 169.277C254.514 169.267 254.57 169.258 254.615 169.249L254.62 170.157C254.519 170.191 254.405 170.218 254.276 170.239C254.151 170.261 254.009 170.271 253.85 170.271C253.577 170.271 253.339 170.226 253.134 170.133C252.929 170.039 252.77 169.888 252.657 169.68C252.544 169.469 252.488 169.191 252.488 168.846V164ZM257.606 170.271C257.23 170.271 256.892 170.21 256.593 170.088C256.293 169.966 256.038 169.796 255.826 169.579C255.619 169.359 255.458 169.104 255.345 168.813C255.234 168.52 255.18 168.206 255.18 167.869V167.685C255.18 167.303 255.234 166.957 255.345 166.645C255.455 166.33 255.611 166.059 255.813 165.833C256.014 165.607 256.256 165.433 256.537 165.311C256.819 165.188 257.129 165.127 257.468 165.127C257.82 165.127 258.131 165.187 258.399 165.306C258.669 165.422 258.893 165.588 259.074 165.801C259.254 166.015 259.39 166.272 259.482 166.572C259.573 166.868 259.62 167.197 259.62 167.557V168.066H255.73V167.231H258.427V167.14C258.421 166.947 258.384 166.772 258.317 166.612C258.25 166.451 258.146 166.322 258.005 166.228C257.865 166.13 257.682 166.081 257.459 166.081C257.279 166.081 257.122 166.12 256.987 166.2C256.856 166.277 256.745 166.386 256.657 166.53C256.571 166.671 256.506 166.839 256.464 167.034C256.421 167.23 256.4 167.447 256.4 167.685V167.869C256.4 168.076 256.427 168.27 256.482 168.447C256.54 168.624 256.625 168.778 256.734 168.91C256.848 169.038 256.982 169.139 257.138 169.213C257.297 169.283 257.478 169.317 257.679 169.317C257.933 169.317 258.163 169.269 258.367 169.171C258.575 169.07 258.755 168.922 258.909 168.727L259.519 169.359C259.414 169.511 259.274 169.659 259.097 169.799C258.922 169.939 258.712 170.054 258.463 170.143C258.216 170.228 257.93 170.271 257.606 170.271ZM262.863 163.505H265.288C265.796 163.505 266.232 163.581 266.596 163.734C266.96 163.886 267.239 164.113 267.435 164.412C267.631 164.712 267.728 165.08 267.728 165.517C267.728 165.862 267.667 166.162 267.545 166.415C267.423 166.67 267.25 166.882 267.027 167.053C266.807 167.224 266.547 167.359 266.247 167.457L265.853 167.658H263.711L263.702 166.663H265.303C265.562 166.663 265.778 166.617 265.949 166.526C266.121 166.434 266.249 166.307 266.334 166.145C266.423 165.983 266.467 165.798 266.467 165.591C266.467 165.368 266.424 165.175 266.339 165.012C266.254 164.848 266.124 164.721 265.949 164.632C265.775 164.544 265.555 164.499 265.288 164.499H264.124V170.18H262.863V163.505ZM266.632 170.18L265.087 167.191L266.421 167.186L267.985 170.115V170.18H266.632ZM270.971 170.271C270.595 170.271 270.258 170.21 269.958 170.088C269.658 169.966 269.403 169.796 269.191 169.579C268.984 169.359 268.824 169.104 268.71 168.813C268.6 168.52 268.545 168.206 268.545 167.869V167.685C268.545 167.303 268.6 166.957 268.71 166.645C268.82 166.33 268.976 166.059 269.178 165.833C269.38 165.607 269.621 165.433 269.903 165.311C270.184 165.188 270.495 165.127 270.834 165.127C271.185 165.127 271.496 165.187 271.765 165.306C272.034 165.422 272.258 165.588 272.439 165.801C272.619 166.015 272.755 166.272 272.847 166.572C272.939 166.868 272.985 167.197 272.985 167.557V168.066H269.095V167.231H271.793V167.14C271.786 166.947 271.75 166.772 271.682 166.612C271.615 166.451 271.511 166.322 271.371 166.228C271.23 166.13 271.048 166.081 270.824 166.081C270.644 166.081 270.487 166.12 270.352 166.2C270.221 166.277 270.11 166.386 270.022 166.53C269.937 166.671 269.872 166.839 269.829 167.034C269.786 167.23 269.765 167.447 269.765 167.685V167.869C269.765 168.076 269.793 168.27 269.847 168.447C269.906 168.624 269.99 168.778 270.1 168.91C270.213 169.038 270.348 169.139 270.503 169.213C270.662 169.283 270.843 169.317 271.045 169.317C271.299 169.317 271.528 169.269 271.733 169.171C271.941 169.07 272.121 168.922 272.274 168.727L272.884 169.359C272.78 169.511 272.64 169.659 272.462 169.799C272.288 169.939 272.077 170.054 271.829 170.143C271.581 170.228 271.295 170.271 270.971 170.271ZM274.985 166.278V170.18H273.774V165.219H274.911L274.985 166.278ZM274.792 167.521H274.434C274.438 167.16 274.486 166.833 274.581 166.54C274.676 166.246 274.809 165.994 274.98 165.783C275.155 165.572 275.36 165.41 275.599 165.297C275.838 165.184 276.104 165.127 276.398 165.127C276.636 165.127 276.852 165.161 277.044 165.228C277.237 165.296 277.402 165.403 277.54 165.549C277.68 165.696 277.787 165.889 277.861 166.127C277.937 166.362 277.975 166.652 277.975 166.998V170.18H276.755V166.989C276.755 166.763 276.722 166.584 276.654 166.452C276.59 166.321 276.496 166.228 276.369 166.173C276.247 166.118 276.096 166.09 275.915 166.09C275.729 166.09 275.566 166.128 275.425 166.205C275.288 166.278 275.171 166.381 275.076 166.512C274.985 166.643 274.914 166.795 274.866 166.966C274.816 167.137 274.792 167.322 274.792 167.521ZM282.02 169.125V163.138H283.241V170.18H282.139L282.02 169.125ZM278.833 167.759V167.663C278.833 167.284 278.876 166.94 278.961 166.631C279.05 166.319 279.178 166.052 279.346 165.828C279.515 165.605 279.718 165.433 279.956 165.311C280.198 165.188 280.472 165.127 280.777 165.127C281.074 165.127 281.332 165.187 281.552 165.306C281.776 165.426 281.966 165.595 282.121 165.815C282.28 166.035 282.407 166.296 282.502 166.599C282.596 166.899 282.665 167.229 282.708 167.589V167.85C282.665 168.202 282.596 168.525 282.502 168.818C282.407 169.112 282.28 169.368 282.121 169.588C281.966 169.805 281.776 169.973 281.552 170.093C281.329 170.212 281.068 170.271 280.769 170.271C280.466 170.271 280.193 170.209 279.952 170.083C279.714 169.958 279.51 169.782 279.342 169.556C279.177 169.33 279.05 169.064 278.961 168.759C278.876 168.453 278.833 168.119 278.833 167.759ZM280.049 167.663V167.759C280.049 167.973 280.067 168.173 280.103 168.36C280.14 168.546 280.2 168.711 280.282 168.855C280.365 168.995 280.47 169.105 280.599 169.185C280.73 169.264 280.889 169.304 281.076 169.304C281.314 169.304 281.51 169.252 281.663 169.148C281.818 169.041 281.94 168.896 282.025 168.713C282.11 168.526 282.166 168.317 282.19 168.084V167.364C282.178 167.181 282.146 167.012 282.094 166.856C282.045 166.7 281.975 166.566 281.883 166.452C281.794 166.339 281.684 166.251 281.552 166.186C281.422 166.122 281.265 166.09 281.085 166.09C280.899 166.09 280.739 166.131 280.607 166.214C280.476 166.293 280.369 166.405 280.287 166.548C280.204 166.692 280.143 166.859 280.103 167.048C280.067 167.238 280.049 167.443 280.049 167.663ZM286.566 170.271C286.189 170.271 285.852 170.21 285.552 170.088C285.252 169.966 284.997 169.796 284.786 169.579C284.578 169.359 284.418 169.104 284.305 168.813C284.194 168.52 284.139 168.206 284.139 167.869V167.685C284.139 167.303 284.194 166.957 284.305 166.645C284.415 166.33 284.571 166.059 284.773 165.833C284.975 165.607 285.216 165.433 285.497 165.311C285.778 165.188 286.088 165.127 286.428 165.127C286.78 165.127 287.09 165.187 287.359 165.306C287.628 165.422 287.853 165.588 288.034 165.801C288.214 166.015 288.35 166.272 288.442 166.572C288.533 166.868 288.579 167.197 288.579 167.557V168.066H284.69V167.231H287.387V167.14C287.381 166.947 287.344 166.772 287.277 166.612C287.209 166.451 287.105 166.322 286.965 166.228C286.824 166.13 286.642 166.081 286.419 166.081C286.239 166.081 286.081 166.12 285.947 166.2C285.815 166.277 285.705 166.386 285.616 166.53C285.531 166.671 285.466 166.839 285.424 167.034C285.381 167.23 285.36 167.447 285.36 167.685V167.869C285.36 168.076 285.387 168.27 285.442 168.447C285.5 168.624 285.584 168.778 285.694 168.91C285.807 169.038 285.942 169.139 286.098 169.213C286.257 169.283 286.438 169.317 286.64 169.317C286.893 169.317 287.123 169.269 287.327 169.171C287.535 169.07 287.716 168.922 287.869 168.727L288.478 169.359C288.374 169.511 288.234 169.659 288.056 169.799C287.882 169.939 287.671 170.054 287.423 170.143C287.176 170.228 286.89 170.271 286.566 170.271ZM290.602 166.232V170.18H289.391V165.219H290.538L290.602 166.232ZM292.111 165.187L292.092 166.315C292.025 166.303 291.949 166.293 291.863 166.287C291.781 166.282 291.703 166.278 291.63 166.278C291.443 166.278 291.279 166.304 291.139 166.356C290.998 166.405 290.88 166.477 290.785 166.572C290.694 166.666 290.623 166.782 290.575 166.92C290.525 167.055 290.498 167.207 290.492 167.378L290.23 167.346C290.23 167.032 290.262 166.74 290.326 166.471C290.391 166.202 290.485 165.966 290.607 165.764C290.729 165.563 290.881 165.407 291.065 165.297C291.252 165.184 291.466 165.127 291.707 165.127C291.775 165.127 291.847 165.134 291.923 165.145C292.002 165.155 292.065 165.169 292.111 165.187ZM294.914 170.271C294.537 170.271 294.2 170.21 293.9 170.088C293.6 169.966 293.345 169.796 293.133 169.579C292.926 169.359 292.766 169.104 292.652 168.813C292.542 168.52 292.487 168.206 292.487 167.869V167.685C292.487 167.303 292.542 166.957 292.652 166.645C292.762 166.33 292.918 166.059 293.12 165.833C293.322 165.607 293.563 165.433 293.845 165.311C294.126 165.188 294.436 165.127 294.776 165.127C295.127 165.127 295.438 165.187 295.707 165.306C295.976 165.422 296.2 165.588 296.381 165.801C296.561 166.015 296.697 166.272 296.789 166.572C296.881 166.868 296.927 167.197 296.927 167.557V168.066H293.037V167.231H295.735V167.14C295.728 166.947 295.692 166.772 295.624 166.612C295.557 166.451 295.453 166.322 295.313 166.228C295.172 166.13 294.989 166.081 294.766 166.081C294.586 166.081 294.429 166.12 294.294 166.2C294.163 166.277 294.052 166.386 293.964 166.53C293.879 166.671 293.814 166.839 293.771 167.034C293.728 167.23 293.707 167.447 293.707 167.685V167.869C293.707 168.076 293.735 168.27 293.789 168.447C293.848 168.624 293.932 168.778 294.042 168.91C294.155 169.038 294.29 169.139 294.445 169.213C294.604 169.283 294.785 169.317 294.987 169.317C295.241 169.317 295.47 169.269 295.674 169.171C295.883 169.07 296.063 168.922 296.216 168.727L296.826 169.359C296.722 169.511 296.582 169.659 296.404 169.799C296.229 169.939 296.019 170.054 295.771 170.143C295.523 170.228 295.238 170.271 294.914 170.271ZM298.95 166.232V170.18H297.739V165.219H298.885L298.95 166.232ZM300.459 165.187L300.44 166.315C300.373 166.303 300.297 166.293 300.211 166.287C300.128 166.282 300.05 166.278 299.977 166.278C299.79 166.278 299.627 166.304 299.487 166.356C299.346 166.405 299.228 166.477 299.133 166.572C299.041 166.666 298.971 166.782 298.922 166.92C298.873 167.055 298.845 167.207 298.839 167.378L298.578 167.346C298.578 167.032 298.61 166.74 298.675 166.471C298.739 166.202 298.832 165.966 298.954 165.764C299.076 165.563 299.23 165.407 299.413 165.297C299.599 165.184 299.814 165.127 300.055 165.127C300.122 165.127 300.194 165.134 300.271 165.145C300.35 165.155 300.413 165.169 300.459 165.187Z" fill="white" fill-opacity="0.8"/>
<path d="M229.354 161.573H221.526C220.662 161.573 219.961 162.274 219.961 163.138V170.962C219.961 171.826 220.662 172.527 221.526 172.527H229.354C230.219 172.527 230.92 171.826 230.92 170.962V163.138C230.92 162.274 230.219 161.573 229.354 161.573Z" fill="#2A2A2A"/>
<path d="M223.092 167.634L223.948 168.669C224.261 169.047 224.841 169.047 225.154 168.669L227.789 165.485" stroke="white" stroke-opacity="0.4" stroke-width="1.5" stroke-linecap="round"/>
<path d="M274.755 293.413C274.755 292.549 275.456 291.848 276.321 291.848H390.607C391.471 291.848 392.172 292.549 392.172 293.413V303.585C392.172 304.45 391.471 305.15 390.607 305.15H276.321C275.456 305.15 274.755 304.45 274.755 303.585V293.413Z" fill="#2A2A2A"/>
<path d="M321.331 295.369H281.409C279.896 295.369 278.669 296.595 278.669 298.108C278.669 299.62 279.896 300.846 281.409 300.846H321.331C322.844 300.846 324.07 299.62 324.07 298.108C324.07 296.595 322.844 295.369 321.331 295.369Z" fill="white" fill-opacity="0.4"/>
<path d="M255.577 294.978H223.483C221.538 294.978 219.961 296.554 219.961 298.499C219.961 300.444 221.538 302.02 223.483 302.02H255.577C257.523 302.02 259.1 300.444 259.1 298.499C259.1 296.554 257.523 294.978 255.577 294.978Z" fill="#585858"/>
<path d="M274.755 310.627C274.755 309.762 275.456 309.062 276.321 309.062H390.607C391.471 309.062 392.172 309.762 392.172 310.627V320.799C392.172 321.663 391.471 322.363 390.607 322.363H276.321C275.456 322.363 274.755 321.663 274.755 320.799V310.627Z" fill="#515151"/>
<path d="M255.577 312.192H223.483C221.538 312.192 219.961 313.768 219.961 315.713C219.961 317.657 221.538 319.234 223.483 319.234H255.577C257.523 319.234 259.1 317.657 259.1 315.713C259.1 313.768 257.523 312.192 255.577 312.192Z" fill="#585858"/>
<path d="M274.755 276.2C274.755 275.335 275.456 274.635 276.321 274.635H390.607C391.471 274.635 392.172 275.335 392.172 276.2V286.371C392.172 287.236 391.471 287.936 390.607 287.936H276.321C275.456 287.936 274.755 287.236 274.755 286.371V276.2Z" fill="#515151"/>
<path d="M255.577 277.765H223.483C221.538 277.765 219.961 279.341 219.961 281.286C219.961 283.23 221.538 284.807 223.483 284.807H255.577C257.523 284.807 259.1 283.23 259.1 281.286C259.1 279.341 257.523 277.765 255.577 277.765Z" fill="#585858"/>
<path d="M274.755 182.308C274.755 181.443 275.456 180.743 276.321 180.743H390.607C391.471 180.743 392.172 181.443 392.172 182.308V192.479C392.172 193.344 391.471 194.044 390.607 194.044H276.321C275.456 194.044 274.755 193.344 274.755 192.479V182.308Z" fill="#2A2A2A"/>
<path d="M294.716 184.264H281.409C279.896 184.264 278.669 185.49 278.669 187.002C278.669 188.515 279.896 189.741 281.409 189.741H294.716C296.229 189.741 297.456 188.515 297.456 187.002C297.456 185.49 296.229 184.264 294.716 184.264Z" fill="white" fill-opacity="0.4"/>
<path d="M344.031 184.264H303.327C301.814 184.264 300.587 185.49 300.587 187.002C300.587 188.515 301.814 189.741 303.327 189.741H344.031C345.544 189.741 346.771 188.515 346.771 187.002C346.771 185.49 345.544 184.264 344.031 184.264Z" fill="white" fill-opacity="0.4"/>
<path d="M255.577 183.872H223.483C221.538 183.872 219.961 185.449 219.961 187.393C219.961 189.338 221.538 190.914 223.483 190.914H255.577C257.523 190.914 259.1 189.338 259.1 187.393C259.1 185.449 257.523 183.872 255.577 183.872Z" fill="#585858"/>
<path d="M274.755 233.948C274.755 233.084 275.456 232.383 276.321 232.383H390.607C391.471 232.383 392.172 233.084 392.172 233.948V244.12C392.172 244.984 391.471 245.685 390.607 245.685H276.321C275.456 245.685 274.755 244.984 274.755 244.12V233.948Z" fill="#2A2A2A"/>
<path d="M317.417 235.904H281.409C279.896 235.904 278.669 237.13 278.669 238.643C278.669 240.155 279.896 241.381 281.409 241.381H317.417C318.93 241.381 320.157 240.155 320.157 238.643C320.157 237.13 318.93 235.904 317.417 235.904Z" fill="white" fill-opacity="0.4"/>
<path d="M359.687 235.904H326.81C325.297 235.904 324.07 237.13 324.07 238.643C324.07 240.155 325.297 241.381 326.81 241.381H359.687C361.2 241.381 362.427 240.155 362.427 238.643C362.427 237.13 361.2 235.904 359.687 235.904Z" fill="white" fill-opacity="0.4"/>
<path d="M255.577 235.513H223.483C221.538 235.513 219.961 237.09 219.961 239.034C219.961 240.979 221.538 242.555 223.483 242.555H255.577C257.523 242.555 259.1 240.979 259.1 239.034C259.1 237.09 257.523 235.513 255.577 235.513Z" fill="#585858"/>
<path d="M274.755 199.521C274.755 198.656 275.456 197.956 276.321 197.956H390.607C391.471 197.956 392.172 198.656 392.172 199.521V209.693C392.172 210.557 391.471 211.257 390.607 211.257H276.321C275.456 211.257 274.755 210.557 274.755 209.693V199.521Z" fill="#2A2A2A"/>
<path d="M255.577 201.086H223.483C221.538 201.086 219.961 202.662 219.961 204.607C219.961 206.551 221.538 208.128 223.483 208.128H255.577C257.523 208.128 259.1 206.551 259.1 204.607C259.1 202.662 257.523 201.086 255.577 201.086Z" fill="#585858"/>
<path d="M274.755 251.162C274.755 250.297 275.456 249.597 276.321 249.597H390.607C391.471 249.597 392.172 250.297 392.172 251.162V261.333C392.172 262.198 391.471 262.898 390.607 262.898H276.321C275.456 262.898 274.755 262.198 274.755 261.333V251.162Z" fill="#515151"/>
<path d="M255.577 252.727H223.483C221.538 252.727 219.961 254.303 219.961 256.248C219.961 258.192 221.538 259.768 223.483 259.768H255.577C257.523 259.768 259.1 258.192 259.1 256.248C259.1 254.303 257.523 252.727 255.577 252.727Z" fill="#585858"/>
<path d="M295.89 214.779H285.714C284.85 214.779 284.149 215.479 284.149 216.343V226.515C284.149 227.379 284.85 228.08 285.714 228.08H295.89C296.755 228.08 297.456 227.379 297.456 226.515V216.343C297.456 215.479 296.755 214.779 295.89 214.779Z" fill="#2A2A2A"/>
<path d="M293.542 221.429C293.542 219.917 292.315 218.691 290.802 218.691C289.289 218.691 288.063 219.917 288.063 221.429C288.063 222.942 289.289 224.168 290.802 224.168C292.315 224.168 293.542 222.942 293.542 221.429Z" fill="white" fill-opacity="0.4"/>
<path d="M275.658 218.691C275.785 218.691 275.904 218.749 275.982 218.85L277.495 220.79L279.008 218.85C279.086 218.749 279.205 218.691 279.332 218.691C279.677 218.691 279.868 219.087 279.655 219.357L278.033 221.403L279.699 223.496C279.915 223.767 279.722 224.168 279.375 224.168C279.248 224.168 279.127 224.109 279.049 224.009L277.495 222.027L275.941 224.009C275.862 224.109 275.742 224.168 275.615 224.168C275.268 224.168 275.075 223.767 275.291 223.496L276.957 221.403L275.335 219.357C275.122 219.087 275.313 218.691 275.658 218.691Z" fill="#585858"/>
<path d="M315.46 216.343C315.46 215.479 316.16 214.779 317.025 214.779H327.202C328.066 214.779 328.767 215.479 328.767 216.343V226.515C328.767 227.38 328.066 228.08 327.202 228.08H317.025C316.16 228.08 315.46 227.38 315.46 226.515V216.343Z" fill="#2A2A2A"/>
<path d="M306.834 218.691C306.986 218.691 307.128 218.771 307.205 218.902L308.814 221.626L310.428 218.9C310.505 218.77 310.645 218.691 310.795 218.691C311.129 218.691 311.334 219.055 311.159 219.34L309.254 222.456V223.726C309.254 223.97 309.056 224.168 308.812 224.168C308.567 224.168 308.369 223.97 308.369 223.726V222.456L306.467 219.346C306.291 219.058 306.498 218.691 306.834 218.691Z" fill="#585858"/>
<path d="M255.577 217.517H223.483C221.538 217.517 219.961 219.093 219.961 221.038C219.961 222.983 221.538 224.559 223.483 224.559H255.577C257.523 224.559 259.1 222.983 259.1 221.038C259.1 219.093 257.523 217.517 255.577 217.517Z" fill="#585858"/>
<path d="M235.231 341.348L233.327 347.01H231.992L234.488 340.335H235.341L235.231 341.348ZM236.822 347.01L234.91 341.348L234.795 340.335H235.652L238.161 347.01H236.822ZM236.735 344.53V345.525H233.153V344.53H236.735ZM239.826 343.109V347.01H238.615V342.049H239.753L239.826 343.109ZM239.634 344.351H239.276C239.279 343.991 239.328 343.664 239.422 343.37C239.518 343.077 239.651 342.824 239.822 342.613C239.996 342.402 240.203 342.24 240.441 342.128C240.679 342.014 240.946 341.958 241.239 341.958C241.477 341.958 241.693 341.991 241.886 342.059C242.078 342.126 242.243 342.233 242.381 342.38C242.521 342.527 242.629 342.719 242.702 342.957C242.779 343.192 242.816 343.483 242.816 343.829V347.01H241.597V343.819C241.597 343.593 241.563 343.414 241.496 343.282C241.432 343.151 241.337 343.058 241.212 343.003C241.089 342.948 240.938 342.92 240.758 342.92C240.571 342.92 240.407 342.959 240.267 343.035C240.129 343.109 240.013 343.211 239.918 343.342C239.826 343.473 239.756 343.625 239.707 343.797C239.658 343.967 239.634 344.153 239.634 344.351ZM245.169 342.049V347.01H243.955V342.049H245.169ZM243.872 340.752C243.872 340.571 243.933 340.422 244.055 340.303C244.181 340.183 244.348 340.124 244.56 340.124C244.771 340.124 244.937 340.183 245.06 340.303C245.185 340.422 245.248 340.571 245.248 340.752C245.248 340.93 245.185 341.078 245.06 341.196C244.937 341.316 244.771 341.376 244.56 341.376C244.348 341.376 244.181 341.316 244.055 341.196C243.933 341.078 243.872 340.93 243.872 340.752ZM247.532 343.067V347.01H246.321V342.049H247.463L247.532 343.067ZM247.353 344.351H246.982C246.982 344.005 247.022 343.688 247.105 343.397C247.191 343.107 247.316 342.854 247.481 342.641C247.646 342.424 247.85 342.256 248.092 342.136C248.336 342.017 248.619 341.958 248.94 341.958C249.163 341.958 249.368 341.991 249.555 342.059C249.741 342.123 249.901 342.225 250.036 342.365C250.174 342.503 250.279 342.684 250.352 342.907C250.426 343.127 250.463 343.391 250.463 343.7V347.01H249.252V343.824C249.252 343.592 249.218 343.409 249.151 343.278C249.087 343.146 248.993 343.055 248.871 343.003C248.749 342.948 248.602 342.92 248.431 342.92C248.241 342.92 248.078 342.959 247.94 343.035C247.805 343.109 247.694 343.211 247.606 343.342C247.519 343.473 247.455 343.625 247.413 343.797C247.373 343.967 247.353 344.153 247.353 344.351ZM250.371 344.126L249.871 344.218C249.874 343.906 249.917 343.614 249.999 343.342C250.082 343.067 250.203 342.827 250.362 342.623C250.524 342.415 250.724 342.253 250.963 342.136C251.204 342.017 251.483 341.958 251.797 341.958C252.042 341.958 252.262 341.993 252.458 342.063C252.657 342.131 252.827 342.239 252.967 342.389C253.108 342.535 253.215 342.726 253.288 342.962C253.364 343.197 253.403 343.484 253.403 343.824V347.01H252.182V343.819C252.182 343.577 252.149 343.393 252.081 343.264C252.017 343.136 251.924 343.048 251.802 342.998C251.68 342.947 251.536 342.92 251.371 342.92C251.202 342.92 251.056 342.952 250.931 343.016C250.808 343.078 250.705 343.164 250.618 343.274C250.536 343.383 250.474 343.512 250.431 343.659C250.391 343.802 250.371 343.958 250.371 344.126ZM257.224 345.955V343.668C257.224 343.5 257.195 343.354 257.136 343.232C257.078 343.11 256.989 343.016 256.87 342.948C256.751 342.881 256.6 342.847 256.416 342.847C256.254 342.847 256.112 342.875 255.99 342.93C255.87 342.984 255.778 343.063 255.714 343.164C255.65 343.261 255.618 343.375 255.618 343.503H254.402C254.402 343.298 254.452 343.104 254.55 342.92C254.647 342.734 254.786 342.569 254.967 342.426C255.15 342.279 255.369 342.164 255.623 342.081C255.879 341.999 256.167 341.958 256.485 341.958C256.861 341.958 257.196 342.022 257.49 342.15C257.786 342.275 258.018 342.465 258.186 342.719C258.358 342.973 258.443 343.292 258.443 343.677V345.841C258.443 346.088 258.459 346.301 258.489 346.478C258.523 346.652 258.571 346.803 258.636 346.932V347.01H257.402C257.344 346.885 257.299 346.726 257.269 346.533C257.238 346.338 257.224 346.145 257.224 345.955ZM257.393 343.989L257.402 344.709H256.636C256.447 344.709 256.28 344.728 256.136 344.768C255.992 344.805 255.875 344.86 255.783 344.933C255.692 345.004 255.623 345.089 255.577 345.19C255.531 345.288 255.508 345.399 255.508 345.525C255.508 345.647 255.535 345.757 255.591 345.854C255.649 345.952 255.731 346.03 255.838 346.088C255.948 346.144 256.077 346.171 256.223 346.171C256.438 346.171 256.624 346.128 256.783 346.043C256.942 345.954 257.066 345.847 257.155 345.722C257.243 345.596 257.291 345.477 257.296 345.364L257.645 345.886C257.602 346.012 257.538 346.145 257.453 346.285C257.367 346.426 257.257 346.558 257.123 346.68C256.988 346.802 256.826 346.903 256.636 346.983C256.447 347.062 256.226 347.102 255.976 347.102C255.655 347.102 255.368 347.037 255.113 346.909C254.86 346.781 254.659 346.605 254.513 346.382C254.366 346.159 254.293 345.905 254.293 345.621C254.293 345.358 254.341 345.126 254.439 344.924C254.537 344.722 254.683 344.552 254.875 344.415C255.068 344.275 255.306 344.169 255.591 344.099C255.878 344.026 256.207 343.989 256.577 343.989H257.393ZM261.883 342.049V342.92H259.04V342.049H261.883ZM259.801 340.83H261.016V345.58C261.016 345.726 261.036 345.839 261.076 345.918C261.115 345.998 261.176 346.052 261.255 346.08C261.335 346.107 261.429 346.12 261.539 346.12C261.619 346.12 261.692 346.116 261.76 346.107C261.827 346.098 261.883 346.088 261.929 346.08L261.933 346.987C261.833 347.021 261.718 347.048 261.59 347.069C261.465 347.091 261.322 347.102 261.163 347.102C260.891 347.102 260.653 347.056 260.448 346.964C260.243 346.869 260.084 346.718 259.97 346.51C259.858 346.3 259.801 346.021 259.801 345.676V340.83ZM262.355 344.581V344.484C262.355 344.12 262.408 343.786 262.512 343.48C262.615 343.171 262.767 342.904 262.966 342.678C263.165 342.452 263.407 342.275 263.695 342.15C263.982 342.022 264.309 341.958 264.676 341.958C265.05 341.958 265.38 342.022 265.667 342.15C265.958 342.275 266.202 342.452 266.401 342.678C266.6 342.904 266.751 343.171 266.855 343.48C266.959 343.786 267.011 344.12 267.011 344.484V344.581C267.011 344.94 266.959 345.275 266.855 345.584C266.751 345.89 266.6 346.157 266.401 346.386C266.202 346.613 265.959 346.789 265.672 346.914C265.385 347.039 265.056 347.102 264.686 347.102C264.319 347.102 263.99 347.039 263.699 346.914C263.409 346.789 263.165 346.613 262.966 346.386C262.767 346.157 262.615 345.89 262.512 345.584C262.408 345.275 262.355 344.94 262.355 344.581ZM263.566 344.484V344.581C263.566 344.797 263.588 345.001 263.631 345.19C263.674 345.379 263.739 345.546 263.828 345.689C263.917 345.833 264.031 345.947 264.172 346.029C264.315 346.109 264.487 346.148 264.686 346.148C264.881 346.148 265.05 346.109 265.19 346.029C265.331 345.947 265.446 345.833 265.534 345.689C265.626 345.546 265.693 345.379 265.736 345.19C265.778 345.001 265.8 344.797 265.8 344.581V344.484C265.8 344.27 265.778 344.07 265.736 343.883C265.693 343.694 265.626 343.527 265.534 343.383C265.446 343.237 265.329 343.122 265.186 343.04C265.045 342.954 264.875 342.912 264.676 342.912C264.481 342.912 264.312 342.954 264.172 343.04C264.031 343.122 263.917 343.237 263.828 343.383C263.739 343.527 263.674 343.694 263.631 343.883C263.588 344.07 263.566 344.27 263.566 344.484ZM269.103 343.063V347.01H267.892V342.049H269.038L269.103 343.063ZM270.611 342.017L270.593 343.146C270.526 343.133 270.449 343.124 270.364 343.117C270.281 343.112 270.204 343.109 270.13 343.109C269.944 343.109 269.78 343.135 269.639 343.186C269.498 343.236 269.381 343.308 269.286 343.402C269.195 343.497 269.124 343.613 269.075 343.75C269.026 343.885 268.999 344.038 268.993 344.209L268.731 344.177C268.731 343.862 268.763 343.57 268.827 343.301C268.892 343.032 268.985 342.797 269.107 342.595C269.23 342.394 269.382 342.237 269.566 342.128C269.753 342.014 269.966 341.958 270.208 341.958C270.276 341.958 270.347 341.964 270.424 341.976C270.503 341.985 270.566 341.999 270.611 342.017Z" fill="white" fill-opacity="0.8"/>
<path d="M220.548 339.186C220.548 338.862 220.285 338.599 219.961 338.599C219.637 338.599 219.374 338.862 219.374 339.186H220.548ZM224.344 344.154H225.127V342.981H224.344V344.154ZM219.374 339.186C219.374 341.93 221.599 344.154 224.344 344.154V342.981C222.247 342.981 220.548 341.282 220.548 339.186H219.374Z" fill="#D7D7D7"/>
<path d="M220.548 347.792C220.548 348.116 220.285 348.379 219.961 348.379C219.637 348.379 219.374 348.116 219.374 347.792H220.548ZM224.188 342.98H225.127V344.154H224.188V342.98ZM219.374 347.792C219.374 345.135 221.53 342.98 224.188 342.98V344.154C222.178 344.154 220.548 345.783 220.548 347.792H219.374Z" fill="#D7D7D7"/>
<path d="M225.127 343.567H227.71" stroke="#D7D7D7" stroke-width="1.5"/>
<path d="M225.44 340.985L228.023 343.567L225.44 346.149" stroke="#D7D7D7" stroke-width="1.5" stroke-linecap="round"/>
<path d="M309.98 372.048C309.98 370.751 311.032 369.701 312.329 369.701H389.824C391.121 369.701 392.172 370.751 392.172 372.048V380.655C392.172 381.951 391.121 383.002 389.824 383.002H312.329C311.032 383.002 309.98 381.951 309.98 380.655V372.048Z" fill="#515151"/>
<path d="M383.953 373.613H318.982C317.469 373.613 316.243 374.839 316.243 376.351C316.243 377.864 317.469 379.09 318.982 379.09H383.953C385.466 379.09 386.693 377.864 386.693 376.351C386.693 374.839 385.466 373.613 383.953 373.613Z" fill="white" fill-opacity="0.4"/>
<path d="M219.961 372.048C219.961 370.751 221.012 369.701 222.309 369.701H299.804C301.101 369.701 302.153 370.751 302.153 372.048V380.655C302.153 381.951 301.101 383.002 299.804 383.002H222.309C221.012 383.002 219.961 381.951 219.961 380.655V372.048Z" fill="#515151"/>
<path d="M293.151 373.613H228.18C226.667 373.613 225.44 374.839 225.44 376.351C225.44 377.864 226.667 379.09 228.18 379.09H293.151C294.664 379.09 295.89 377.864 295.89 376.351C295.89 374.839 294.664 373.613 293.151 373.613Z" fill="white" fill-opacity="0.4"/>
<path d="M258.317 32.8623H249.706C248.842 32.8623 248.141 33.5629 248.141 34.4272V43.034C248.141 43.8982 248.842 44.5988 249.706 44.5988H258.317C259.182 44.5988 259.883 43.8982 259.883 43.034V34.4272C259.883 33.5629 259.182 32.8623 258.317 32.8623Z" fill="#2A2A2A"/>
<path d="M256.751 38.7307C256.751 37.2183 255.525 35.9922 254.012 35.9922C252.499 35.9922 251.272 37.2183 251.272 38.7307C251.272 40.2432 252.499 41.4692 254.012 41.4692C255.525 41.4692 256.751 40.2432 256.751 38.7307Z" fill="white" fill-opacity="0.4"/>
<path d="M263.797 33.6447C263.797 32.7804 264.497 32.0798 265.362 32.0798H390.607C391.472 32.0798 392.172 32.7804 392.172 33.6447V43.8164C392.172 44.6806 391.472 45.3812 390.607 45.3812H265.362C264.497 45.3812 263.797 44.6806 263.797 43.8164V33.6447Z" fill="#2A2A2A"/>
<path d="M319.765 36.3833H270.45C268.937 36.3833 267.71 37.6094 267.71 39.1218C267.71 40.6343 268.937 41.8603 270.45 41.8603H319.765C321.278 41.8603 322.505 40.6343 322.505 39.1218C322.505 37.6094 321.278 36.3833 319.765 36.3833Z" fill="white" fill-opacity="0.4"/>
<path d="M263.797 50.8583C263.797 49.994 264.497 49.2935 265.362 49.2935H390.607C391.472 49.2935 392.172 49.994 392.172 50.8583V61.03C392.172 61.8943 391.472 62.5949 390.607 62.5949H265.362C264.497 62.5949 263.797 61.8943 263.797 61.03V50.8583Z" fill="#515151"/>
<path d="M296.282 53.2056H270.45C268.937 53.2056 267.71 54.4316 267.71 55.9441C267.71 57.4565 268.937 58.6826 270.45 58.6826H296.282C297.795 58.6826 299.022 57.4565 299.022 55.9441C299.022 54.4316 297.795 53.2056 296.282 53.2056Z" fill="white" fill-opacity="0.4"/>
<path d="M256.36 52.4233H246.184C244.239 52.4233 242.661 53.9997 242.661 55.9443C242.661 57.8889 244.239 59.4653 246.184 59.4653H256.36C258.305 59.4653 259.883 57.8889 259.883 55.9443C259.883 53.9997 258.305 52.4233 256.36 52.4233Z" fill="#585858"/>
<path d="M230.178 31.3188L237.587 35.6174L230.135 39.9123L222.686 35.6136L230.178 31.3188Z" fill="#A83434"/>
<path d="M237.587 43.9226L230.137 48.5057V39.9112L237.587 35.6145V43.9226Z" fill="#2BDE21"/>
<path d="M222.686 44.4954L230.137 48.5058V39.9122L222.686 35.6155V44.4954Z" fill="#4A86E0"/>
<path d="M400 333.709H212.133V334.491H400V333.709Z" fill="black" fill-opacity="0.2"/>
<path d="M400 353.27H212.133V354.052H400V353.27Z" fill="black" fill-opacity="0.2"/>
<path d="M400 73.9402H212.133V74.7226H400V73.9402Z" fill="black" fill-opacity="0.2"/>
<path d="M400 156.878H212.133V157.661H400V156.878Z" fill="black" fill-opacity="0.2"/>
<path d="M262.622 4.69482H224.266C223.185 4.69482 222.309 5.57059 222.309 6.65091C222.309 7.73123 223.185 8.607 224.266 8.607H262.622C263.703 8.607 264.579 7.73123 264.579 6.65091C264.579 5.57059 263.703 4.69482 262.622 4.69482Z" fill="white" fill-opacity="0.2"/>
<path d="M273.19 0H400V12.1278H276.638C275.882 12.1278 275.269 11.5151 275.269 10.7593V3.56015C275.269 2.08555 274.474 0.725191 273.19 0Z" fill="#2A2A2A"/>
<path d="M392.172 6.25952C392.172 4.74707 390.946 3.521 389.432 3.521C387.919 3.521 386.693 4.74707 386.693 6.25952C386.693 7.77196 387.919 8.99804 389.432 8.99804C390.946 8.99804 392.172 7.77196 392.172 6.25952Z" fill="#E04A4A"/>
<path d="M382.779 6.25952C382.779 4.74707 381.552 3.521 380.039 3.521C378.526 3.521 377.299 4.74707 377.299 6.25952C377.299 7.77196 378.526 8.99804 380.039 8.99804C381.552 8.99804 382.779 7.77196 382.779 6.25952Z" fill="#DEC821"/>
<path d="M373.386 6.25952C373.386 4.74707 372.159 3.521 370.646 3.521C369.133 3.521 367.906 4.74707 367.906 6.25952C367.906 7.77196 369.133 8.99804 370.646 8.99804C372.159 8.99804 373.386 7.77196 373.386 6.25952Z" fill="#6DE04A"/>
</g>
</g>
<defs>
<clipPath id="clip0_1157_1385">
<rect width="400" height="392" rx="8" fill="white"/>
</clipPath>
</defs>
</svg>
