<svg width="300" height="300" viewBox="0 0 300 300" fill="none" xmlns="http://www.w3.org/2000/svg">
<rect width="300" height="300" rx="20" fill="#121836"/>
<path d="M108.125 211.563C102.604 211.563 97.9427 209.661 94.1406 205.859C90.3385 202.057 88.4375 197.396 88.4375 191.875V108.125C88.4375 102.604 90.3385 97.9427 94.1406 94.1406C97.9427 90.3385 102.604 88.4375 108.125 88.4375H191.875C197.396 88.4375 202.057 90.3385 205.859 94.1406C209.661 97.9427 211.563 102.604 211.563 108.125V191.875C211.563 197.396 209.661 202.057 205.859 205.859C202.057 209.661 197.396 211.563 191.875 211.563H108.125ZM119.375 183.125H180.625C182.708 183.125 184.167 182.24 185 180.469C185.833 178.698 185.677 176.979 184.531 175.313L167.969 152.344C167.031 150.99 165.729 150.286 164.063 150.234C162.396 150.182 161.042 150.833 160 152.188L145.313 171.875L135.313 158.438C134.271 157.083 132.917 156.432 131.25 156.484C129.583 156.536 128.281 157.24 127.344 158.594L115.469 175.313C114.323 176.979 114.167 178.698 115 180.469C115.833 182.24 117.292 183.125 119.375 183.125ZM128.125 141.094C131.771 141.094 134.844 139.844 137.344 137.344C139.844 134.844 141.094 131.771 141.094 128.125C141.094 124.479 139.844 121.406 137.344 118.906C134.844 116.406 131.771 115.156 128.125 115.156C124.479 115.156 121.406 116.406 118.906 118.906C116.406 121.406 115.156 124.479 115.156 128.125C115.156 131.771 116.406 134.844 118.906 137.344C121.406 139.844 124.479 141.094 128.125 141.094Z" fill="#2F3868"/>
</svg>
