<svg width="26" height="30" viewBox="0 0 26 30" fill="none" xmlns="http://www.w3.org/2000/svg">
<path d="M26 20.8246V6.94981L14.1317 0.142822V5.43636L18.7812 8.14473C18.9647 8.26776 18.9647 8.51405 18.7812 8.57562L13.2753 11.7764C13.0918 11.8994 12.9083 11.8379 12.7859 11.7764L7.27999 8.57562C7.09647 8.51405 7.09647 8.2063 7.27999 8.14473L11.9294 5.43636V0.142822L1.52588e-05 7.03677V20.8246L4.52705 18.1778V12.7611C4.52705 12.5765 4.77178 12.4535 4.89411 12.515L10.4 15.7157C10.5835 15.8388 10.6447 15.962 10.6447 16.1466V22.5481C10.6447 22.7327 10.4 22.8559 10.2777 22.7943L5.61365 19.9383L1.18183 22.8928L13 29.6882L24.8377 22.7943L20.3106 20.1475L15.6612 22.8559C15.4777 22.979 15.2941 22.8559 15.2941 22.6096V16.2081C15.2941 16.0235 15.4164 15.8388 15.5388 15.7773L21.0448 12.5765C21.2282 12.4535 21.4118 12.5765 21.4118 12.8227V18.2394L26 20.8246Z" fill="#3586FF"/>
<path d="M13 29.6882L24.8377 22.7941L20.3106 20.1473L15.6612 22.8558C15.4777 22.9788 15.2941 22.8558 15.2941 22.6095V16.208C15.2941 16.0233 15.4164 15.8387 15.5388 15.7771L21.0447 12.5763C21.2282 12.4533 21.4118 12.5763 21.4118 12.8226V18.2392L26 20.8246V6.93823L13 14.62V29.6882Z" fill="#1A4E9D"/>
<path d="M14.1318 0.142822V5.43636L18.7812 8.14473C18.9647 8.26776 18.9647 8.51405 18.7812 8.57562L13.2753 11.7764C13.0918 11.8994 12.9083 11.8379 12.7859 11.7764L7.27999 8.57562C7.09647 8.51405 7.09647 8.2063 7.27999 8.14473L11.9294 5.43636V0.142822L1.52588e-05 7.03678L13 14.6201L26 6.93827L14.1318 0.142822Z" fill="#4A86E0"/>
<path d="M10.3389 22.856L5.61365 19.9383L1.18183 22.8929L13 29.6883V14.6201L1.52588e-05 7.03687V20.8247L4.52705 18.1779V12.7612C4.52705 12.5766 4.77178 12.4535 4.89411 12.5151L10.4 15.7158C10.5835 15.8389 10.6447 15.9621 10.6447 16.1467V22.5482C10.7059 22.7944 10.5224 22.979 10.3389 22.856Z" fill="#316CC5"/>
</svg>
