<svg width="30" height="31" viewBox="0 0 30 31" fill="none" xmlns="http://www.w3.org/2000/svg">
<path d="M15 0.142822C6.71194 0.142822 0 6.85626 0 15.1428C0 23.4294 6.71194 30.1428 15 30.1428C23.2824 30.1428 30 23.4294 30 15.1428C30 6.85626 23.2833 0.142822 14.9953 0.142822H15ZM15 0.801885C18.8263 0.801885 22.4305 2.29626 25.1393 5.00095C27.8424 7.69626 29.3495 11.3441 29.3401 15.1428C29.3401 18.9706 27.8481 22.5744 25.1393 25.2847C22.4655 27.9753 18.8112 29.4884 15 29.4838C11.1888 29.4884 7.53451 27.9753 4.8607 25.2847C2.15758 22.5894 0.645761 18.9416 0.655216 15.1428C0.655216 11.315 2.15191 7.71126 4.85597 5.00095C7.52978 2.30563 11.1888 0.791572 15 0.801885ZM14.2465 6.08001C11.8043 6.7297 9.54365 7.9747 6.53041 11.4022C3.51718 14.8297 4.08824 17.6619 4.08824 17.6619C4.08824 17.6619 4.92026 15.7138 6.91995 13.6625C7.87015 12.6913 8.57454 12.3641 9.0624 12.3641C9.49543 12.3397 9.86038 12.6866 9.86038 13.1159V20.0741C9.86038 20.7622 9.41223 20.9141 8.99905 20.9038C8.64923 20.8991 8.32398 20.7772 8.32398 20.7772C10.3776 23.7359 15.2922 24.1513 15.2922 24.1513L17.4488 21.8656L17.498 21.9097L19.4731 23.5794C23.0876 21.4503 24.8311 17.5053 24.8311 17.5053C23.2162 19.1947 22.1913 19.5903 21.5805 19.5903C21.0388 19.5856 20.827 19.2725 20.827 19.2725C20.7977 19.1263 20.7485 17.0066 20.7286 14.8878C20.7088 12.695 20.7286 10.4984 20.8374 10.4928C21.4623 9.33032 23.4526 6.98657 23.4526 6.98657C19.735 7.71407 17.7107 10.1309 17.7107 10.1309C17.1103 9.6622 15.8887 9.74001 15.8887 9.74001C16.4598 10.0522 17.0309 10.9606 17.0309 11.7125V19.115C17.0309 19.115 15.7847 20.2034 14.8251 20.2034C14.254 20.2034 13.9042 19.8959 13.7123 19.6419C13.6385 19.5444 13.5742 19.4366 13.5251 19.3194V10.1788C13.3917 10.2763 13.2291 10.3297 13.0674 10.3353C12.8604 10.3353 12.6486 10.2331 12.5058 9.93501C12.3971 9.71001 12.3281 9.37345 12.3281 8.88032C12.3281 7.19563 14.2483 6.0772 14.2483 6.0772L14.2465 6.08001Z" fill="#3586FF"/>
</svg>
